<?xml version="1.0" encoding="utf-8" standalone="no"?>
<!DOCTYPE svg PUBLIC "-//W3C//DTD SVG 1.1//EN"
  "http://www.w3.org/Graphics/SVG/1.1/DTD/svg11.dtd">
<!-- Created with matplotlib (https://matplotlib.org/) -->
<svg height="198.562389pt" version="1.1" viewBox="0 0 291.308865 198.562389" width="291.308865pt" xmlns="http://www.w3.org/2000/svg" xmlns:xlink="http://www.w3.org/1999/xlink">
 <metadata>
  <rdf:RDF xmlns:cc="http://creativecommons.org/ns#" xmlns:dc="http://purl.org/dc/elements/1.1/" xmlns:rdf="http://www.w3.org/1999/02/22-rdf-syntax-ns#">
   <cc:Work>
    <dc:type rdf:resource="http://purl.org/dc/dcmitype/StillImage"/>
    <dc:date>2022-10-01T09:14:50.779052</dc:date>
    <dc:format>image/svg+xml</dc:format>
    <dc:creator>
     <cc:Agent>
      <dc:title>Matplotlib v3.3.2, https://matplotlib.org/</dc:title>
     </cc:Agent>
    </dc:creator>
   </cc:Work>
  </rdf:RDF>
 </metadata>
 <defs>
  <style type="text/css">*{stroke-linecap:butt;stroke-linejoin:round;}</style>
 </defs>
 <g id="figure_1">
  <g id="patch_1">
   <path d="M -0 198.562389 
L 291.308865 198.562389 
L 291.308865 0 
L -0 0 
z
" style="fill:none;"/>
  </g>
  <g id="axes_1">
   <g id="patch_2">
    <path d="M 29.208111 165.479937 
L 287.708865 165.479937 
L 287.708865 9.840733 
L 29.208111 9.840733 
z
" style="fill:none;"/>
   </g>
   <g id="line2d_1">
    <path clip-path="url(#p9739413e2a)" d="M 102.800431 120.325962 
L 114.240325 112.699415 
L 127.413537 104.191569 
L 142.493397 94.723154 
L 159.82657 84.108637 
L 179.75972 72.169569 
L 202.639508 58.731615 
L 228.8126 43.622505 
L 258.972321 26.474915 
L 275.958831 16.915243 
L 275.958831 16.915243 
" style="fill:none;stroke:#ff7f0e;stroke-linecap:square;stroke-width:1.5;"/>
   </g>
   <g id="matplotlib.axis_1">
    <g id="xtick_1">
     <g id="line2d_2">
      <defs>
       <path d="M 0 0 
L 0 -6 
" id="m635bdd7f67" style="stroke:#000000;stroke-width:0.8;"/>
      </defs>
      <g>
       <use style="stroke:#000000;stroke-width:0.8;" x="90.431974" xlink:href="#m635bdd7f67" y="165.479937"/>
      </g>
     </g>
     <g id="text_1">
      <!-- $\mathdefault{5}$ -->
      <g transform="translate(87.941306 178.398435)scale(0.1 -0.1)">
       <defs>
        <path d="M 11.40625 58.59375 
C 12.40625 58.1875 16.5 56.890625 20.703125 56.890625 
C 30 56.890625 35.09375 61.890625 38 64.6875 
C 38 65.484375 38 66 37.40625 66 
C 37.296875 66 37.09375 66 36.296875 65.59375 
C 32.796875 64.09375 28.703125 63 23.703125 63 
C 20.703125 63 16.203125 63.359375 11.296875 65.484375 
C 10.203125 66 10 66 9.90625 66 
C 9.40625 66 9.296875 65.890625 9.296875 63.90625 
L 9.296875 34.859375 
C 9.296875 33.015625 9.296875 32.5 10.296875 32.5 
C 10.796875 32.5 11 32.703125 11.5 33.421875 
C 14.703125 38.046875 19.09375 40 24.09375 40 
C 27.59375 40 35.09375 37.734375 35.09375 20.203125 
C 35.09375 16.984375 35.09375 11.1875 32.09375 6.59375 
C 29.59375 2.484375 25.703125 0.390625 21.40625 0.390625 
C 14.796875 0.390625 8.09375 4.984375 6.296875 12.6875 
C 6.703125 12.59375 7.5 12.390625 7.90625 12.390625 
C 9.203125 12.390625 11.703125 13.09375 11.703125 16.1875 
C 11.703125 18.890625 9.796875 20 7.90625 20 
C 5.59375 20 4.09375 18.59375 4.09375 15.796875 
C 4.09375 7.09375 11 -2 21.59375 -2 
C 31.90625 -2 41.703125 6.890625 41.703125 19.796875 
C 41.703125 32.09375 33.90625 41.59375 24.203125 41.59375 
C 19.09375 41.59375 14.796875 39.6875 11.40625 36 
z
" id="CMR17-53"/>
       </defs>
       <use transform="scale(0.996264)" xlink:href="#CMR17-53"/>
      </g>
     </g>
    </g>
    <g id="xtick_2">
     <g id="line2d_3">
      <g>
       <use style="stroke:#000000;stroke-width:0.8;" x="152.274259" xlink:href="#m635bdd7f67" y="165.479937"/>
      </g>
     </g>
     <g id="text_2">
      <!-- $\mathdefault{10}$ -->
      <g transform="translate(147.292924 178.398435)scale(0.1 -0.1)">
       <defs>
        <path d="M 26.59375 63.796875 
C 26.59375 65.890625 26.5 66 25.09375 66 
C 21.203125 61.359375 15.296875 59.890625 9.703125 59.6875 
C 9.40625 59.6875 8.90625 59.6875 8.796875 59.5 
C 8.703125 59.296875 8.703125 59.09375 8.703125 57 
C 11.796875 57 17 57.59375 21 59.984375 
L 21 7.296875 
C 21 3.796875 20.796875 2.59375 12.203125 2.59375 
L 9.203125 2.59375 
L 9.203125 0 
C 14 0.09375 19 0.1875 23.796875 0.1875 
C 28.59375 0.1875 33.59375 0.09375 38.40625 0 
L 38.40625 2.59375 
L 35.40625 2.59375 
C 26.796875 2.59375 26.59375 3.6875 26.59375 7.296875 
z
" id="CMR17-49"/>
        <path d="M 42 31.84375 
C 42 37.96875 41.90625 48.421875 37.703125 56.453125 
C 34 63.484375 28.09375 66 22.90625 66 
C 18.09375 66 12 63.78125 8.203125 56.5625 
C 4.203125 49.015625 3.796875 39.671875 3.796875 31.84375 
C 3.796875 26.109375 3.90625 17.375 7 9.734375 
C 11.296875 -0.609375 19 -2 22.90625 -2 
C 27.5 -2 34.5 -0.109375 38.59375 9.4375 
C 41.59375 16.375 42 24.5 42 31.84375 
z
M 22.90625 -0.40625 
C 16.5 -0.40625 12.703125 5.125 11.296875 12.75 
C 10.203125 18.6875 10.203125 27.328125 10.203125 32.953125 
C 10.203125 40.6875 10.203125 47.109375 11.5 53.234375 
C 13.40625 61.78125 19 64.390625 22.90625 64.390625 
C 27 64.390625 32.296875 61.671875 34.203125 53.4375 
C 35.5 47.71875 35.59375 40.984375 35.59375 32.953125 
C 35.59375 26.421875 35.59375 18.375 34.40625 12.453125 
C 32.296875 1.5 26.40625 -0.40625 22.90625 -0.40625 
z
" id="CMR17-48"/>
       </defs>
       <use transform="scale(0.996264)" xlink:href="#CMR17-49"/>
       <use transform="translate(45.690477 0)scale(0.996264)" xlink:href="#CMR17-48"/>
      </g>
     </g>
    </g>
    <g id="xtick_3">
     <g id="line2d_4">
      <g>
       <use style="stroke:#000000;stroke-width:0.8;" x="214.116545" xlink:href="#m635bdd7f67" y="165.479937"/>
      </g>
     </g>
     <g id="text_3">
      <!-- $\mathdefault{15}$ -->
      <g transform="translate(209.13521 178.398435)scale(0.1 -0.1)">
       <use transform="scale(0.996264)" xlink:href="#CMR17-49"/>
       <use transform="translate(45.690477 0)scale(0.996264)" xlink:href="#CMR17-53"/>
      </g>
     </g>
    </g>
    <g id="xtick_4">
     <g id="line2d_5">
      <g>
       <use style="stroke:#000000;stroke-width:0.8;" x="275.958831" xlink:href="#m635bdd7f67" y="165.479937"/>
      </g>
     </g>
     <g id="text_4">
      <!-- $\mathdefault{20}$ -->
      <g transform="translate(270.977495 178.398435)scale(0.1 -0.1)">
       <defs>
        <path d="M 41.703125 15.46875 
L 39.90625 15.46875 
C 38.90625 8.390625 38.09375 7.1875 37.703125 6.59375 
C 37.203125 5.796875 30 5.796875 28.59375 5.796875 
L 9.40625 5.796875 
C 13 9.6875 20 16.765625 28.5 24.9375 
C 34.59375 30.71875 41.703125 37.5 41.703125 47.390625 
C 41.703125 59.1875 32.296875 66 21.796875 66 
C 10.796875 66 4.09375 56.296875 4.09375 47.296875 
C 4.09375 43.390625 7 42.890625 8.203125 42.890625 
C 9.203125 42.890625 12.203125 43.484375 12.203125 46.984375 
C 12.203125 50.09375 9.59375 51 8.203125 51 
C 7.59375 51 7 50.890625 6.59375 50.6875 
C 8.5 59.1875 14.296875 63.390625 20.40625 63.390625 
C 29.09375 63.390625 34.796875 56.5 34.796875 47.390625 
C 34.796875 38.703125 29.703125 31.21875 24 24.734375 
L 4.09375 2.296875 
L 4.09375 0 
L 39.296875 0 
z
" id="CMR17-50"/>
       </defs>
       <use transform="scale(0.996264)" xlink:href="#CMR17-50"/>
       <use transform="translate(45.690477 0)scale(0.996264)" xlink:href="#CMR17-48"/>
      </g>
     </g>
    </g>
    <g id="text_5">
     <!-- $\ell$ -->
     <g transform="translate(156.002435 192.637793)scale(0.12 -0.12)">
      <defs>
       <path d="M 9.203125 17.046875 
C 2.90625 10.90625 1.296875 9.421875 1.296875 9.015625 
C 1.296875 8.625 1.703125 7.9375 2.40625 7.9375 
C 2.90625 7.9375 8.59375 13.375 9.40625 14.265625 
C 10 7.625 12.5 -1 20.296875 -1 
C 24.296875 -1 27.90625 1.484375 29.5 2.671875 
C 30.796875 3.671875 35.59375 7.734375 35.59375 8.625 
C 35.59375 9.125 35.09375 9.71875 34.59375 9.71875 
C 34.203125 9.71875 32.703125 8.234375 32.296875 7.828125 
C 28.796875 4.46875 24.40625 1 20.40625 1 
C 15 1 14.296875 8.71875 14.296875 14.078125 
C 14.296875 15.0625 14.296875 19.234375 15 20.015625 
C 20.90625 26.0625 39.40625 45 39.40625 62.53125 
C 39.40625 66.5 37.90625 70 33.59375 70 
C 24.296875 70 16.203125 49.546875 14.796875 45.78125 
C 14.40625 44.796875 8.59375 29.53125 9.203125 17.046875 
z
M 15.203125 23.1875 
C 15.296875 23.78125 19.796875 49.75 28.203125 63.625 
C 29.90625 66.296875 31.59375 67.984375 33.59375 67.984375 
C 37 67.984375 37.203125 64.8125 37.203125 62.640625 
C 37.203125 59.171875 36.203125 50.25 27.5 37.765625 
C 24.90625 34.09375 20.90625 29.140625 15.203125 23.1875 
z
" id="CMMI12-96"/>
      </defs>
      <use transform="scale(0.996264)" xlink:href="#CMMI12-96"/>
     </g>
    </g>
   </g>
   <g id="matplotlib.axis_2">
    <g id="ytick_1">
     <g id="line2d_6">
      <defs>
       <path d="M 0 0 
L 6 0 
" id="m9756e11de8" style="stroke:#000000;stroke-width:0.8;"/>
      </defs>
      <g>
       <use style="stroke:#000000;stroke-width:0.8;" x="29.208111" xlink:href="#m9756e11de8" y="163.967447"/>
      </g>
     </g>
     <g id="text_6">
      <!-- $\mathdefault{0}$ -->
      <g transform="translate(18.226776 167.426696)scale(0.1 -0.1)">
       <use transform="scale(0.996264)" xlink:href="#CMR17-48"/>
      </g>
     </g>
    </g>
    <g id="ytick_2">
     <g id="line2d_7">
      <g>
       <use style="stroke:#000000;stroke-width:0.8;" x="29.208111" xlink:href="#m9756e11de8" y="136.122404"/>
      </g>
     </g>
     <g id="text_7">
      <!-- $\mathdefault{1}$ -->
      <g transform="translate(18.226776 139.581653)scale(0.1 -0.1)">
       <use transform="scale(0.996264)" xlink:href="#CMR17-49"/>
      </g>
     </g>
    </g>
    <g id="ytick_3">
     <g id="line2d_8">
      <g>
       <use style="stroke:#000000;stroke-width:0.8;" x="29.208111" xlink:href="#m9756e11de8" y="108.277361"/>
      </g>
     </g>
     <g id="text_8">
      <!-- $\mathdefault{2}$ -->
      <g transform="translate(18.226776 111.73661)scale(0.1 -0.1)">
       <use transform="scale(0.996264)" xlink:href="#CMR17-50"/>
      </g>
     </g>
    </g>
    <g id="ytick_4">
     <g id="line2d_9">
      <g>
       <use style="stroke:#000000;stroke-width:0.8;" x="29.208111" xlink:href="#m9756e11de8" y="80.432318"/>
      </g>
     </g>
     <g id="text_9">
      <!-- $\mathdefault{3}$ -->
      <g transform="translate(18.226776 83.891567)scale(0.1 -0.1)">
       <defs>
        <path d="M 22.09375 34 
C 31 34 34.90625 26.140625 34.90625 17.09375 
C 34.90625 5.03125 28.5 0.390625 22.703125 0.390625 
C 17.40625 0.390625 8.796875 3.015625 6.09375 10.796875 
C 6.59375 10.59375 7.09375 10.59375 7.59375 10.59375 
C 10 10.59375 11.796875 12.1875 11.796875 14.796875 
C 11.796875 17.6875 9.59375 19 7.59375 19 
C 5.90625 19 3.296875 18.1875 3.296875 14.484375 
C 3.296875 5.234375 12.296875 -2 22.90625 -2 
C 34 -2 42.5 6.75 42.5 16.984375 
C 42.5 26.84375 34.5 34 25 35.09375 
C 32.59375 36.671875 39.90625 43.375 39.90625 52.390625 
C 39.90625 60.25 32 66 23 66 
C 13.90625 66 5.90625 60.34375 5.90625 52.296875 
C 5.90625 48.796875 8.5 48.1875 9.796875 48.1875 
C 11.90625 48.1875 13.703125 49.484375 13.703125 52.09375 
C 13.703125 54.6875 11.90625 56 9.796875 56 
C 9.40625 56 8.90625 56 8.5 55.796875 
C 11.40625 62.484375 19.296875 63.6875 22.796875 63.6875 
C 26.296875 63.6875 32.90625 61.96875 32.90625 52.296875 
C 32.90625 49.484375 32.5 44.546875 29.09375 40.21875 
C 26.09375 36.390625 22.703125 36.1875 19.40625 35.890625 
C 18.90625 35.890625 16.59375 35.6875 16.203125 35.6875 
C 15.5 35.59375 15.09375 35.5 15.09375 34.796875 
C 15.09375 34.09375 15.203125 34 17.203125 34 
z
" id="CMR17-51"/>
       </defs>
       <use transform="scale(0.996264)" xlink:href="#CMR17-51"/>
      </g>
     </g>
    </g>
    <g id="ytick_5">
     <g id="line2d_10">
      <g>
       <use style="stroke:#000000;stroke-width:0.8;" x="29.208111" xlink:href="#m9756e11de8" y="52.587275"/>
      </g>
     </g>
     <g id="text_10">
      <!-- $\mathdefault{4}$ -->
      <g transform="translate(18.226776 56.046524)scale(0.1 -0.1)">
       <defs>
        <path d="M 33.59375 64.796875 
C 33.59375 66.890625 33.5 67 31.703125 67 
L 2 19.59375 
L 2 17 
L 27.796875 17 
L 27.796875 7.1875 
C 27.796875 3.59375 27.59375 2.59375 20.59375 2.59375 
L 18.703125 2.59375 
L 18.703125 0 
C 21.90625 0.1875 27.296875 0.1875 30.703125 0.1875 
C 34.09375 0.1875 39.5 0.1875 42.703125 0 
L 42.703125 2.59375 
L 40.796875 2.59375 
C 33.796875 2.59375 33.59375 3.59375 33.59375 7.1875 
L 33.59375 17 
L 43.796875 17 
L 43.796875 19.59375 
L 33.59375 19.59375 
z
M 28.09375 58.171875 
L 28.09375 19.59375 
L 4 19.59375 
z
" id="CMR17-52"/>
       </defs>
       <use transform="scale(0.996264)" xlink:href="#CMR17-52"/>
      </g>
     </g>
    </g>
    <g id="ytick_6">
     <g id="line2d_11">
      <g>
       <use style="stroke:#000000;stroke-width:0.8;" x="29.208111" xlink:href="#m9756e11de8" y="24.742232"/>
      </g>
     </g>
     <g id="text_11">
      <!-- $\mathdefault{5}$ -->
      <g transform="translate(18.226776 28.201481)scale(0.1 -0.1)">
       <use transform="scale(0.996264)" xlink:href="#CMR17-53"/>
      </g>
     </g>
    </g>
    <g id="text_12">
     <!-- $S_2$ -->
     <g transform="translate(11.90218 93.377094)rotate(-90)scale(0.12 -0.12)">
      <defs>
       <path d="M 63.5 69.09375 
C 63.5 70 62.796875 70 62.59375 70 
C 62.203125 70 62.09375 69.890625 60.90625 68.390625 
C 60.296875 67.6875 56.203125 62.53125 56.09375 62.4375 
C 52.796875 68.890625 46.203125 70 42 70 
C 29.296875 70 17.796875 58.46875 17.796875 47.25 
C 17.796875 39.796875 22.296875 35.4375 27.203125 33.75 
C 28.296875 33.34375 34.203125 31.765625 37.203125 31.0625 
C 42.296875 29.671875 43.59375 29.28125 45.703125 27.09375 
C 46.09375 26.59375 48.09375 24.3125 48.09375 19.65625 
C 48.09375 10.421875 39.5 0.890625 29.5 0.890625 
C 21.296875 0.890625 12.203125 4.359375 12.203125 15.484375 
C 12.203125 17.375 12.59375 19.75 12.90625 20.75 
C 12.90625 21.046875 13 21.53125 13 21.734375 
C 13 22.140625 12.796875 22.625 12 22.625 
C 11.09375 22.625 11 22.4375 10.59375 20.75 
L 5.5 0.390625 
C 5.5 0.296875 5.09375 -1 5.09375 -1.109375 
C 5.09375 -2 5.90625 -2 6.09375 -2 
C 6.5 -2 6.59375 -1.90625 7.796875 -0.40625 
L 12.40625 5.5625 
C 14.796875 1.984375 20 -2 29.296875 -2 
C 42.203125 -2 54 10.421875 54 22.828125 
C 54 27 53 30.671875 49.203125 34.34375 
C 47.09375 36.421875 45.296875 36.921875 36.09375 39.3125 
C 29.40625 41.09375 28.5 41.390625 26.703125 42.984375 
C 25 44.671875 23.703125 47.046875 23.703125 50.421875 
C 23.703125 58.765625 32.203125 67.296875 41.703125 67.296875 
C 51.5 67.296875 56.09375 61.34375 56.09375 51.90625 
C 56.09375 49.328125 55.59375 46.65625 55.59375 46.25 
C 55.59375 45.359375 56.40625 45.359375 56.703125 45.359375 
C 57.59375 45.359375 57.703125 45.65625 58.09375 47.25 
z
" id="CMMI12-83"/>
      </defs>
      <use transform="scale(0.996264)" xlink:href="#CMMI12-83"/>
      <use transform="translate(59.994488 -14.943915)scale(0.697382)" xlink:href="#CMR17-50"/>
     </g>
    </g>
   </g>
   <g id="LineCollection_1">
    <path clip-path="url(#p9739413e2a)" d="M 40.958145 158.405427 
L 40.958145 158.364446 
" style="fill:none;stroke:#1f77b4;stroke-width:1.5;"/>
    <path clip-path="url(#p9739413e2a)" d="M 53.326602 150.984088 
L 53.326602 150.902914 
" style="fill:none;stroke:#1f77b4;stroke-width:1.5;"/>
    <path clip-path="url(#p9739413e2a)" d="M 65.695059 143.338057 
L 65.695059 143.216249 
" style="fill:none;stroke:#1f77b4;stroke-width:1.5;"/>
    <path clip-path="url(#p9739413e2a)" d="M 78.063516 135.633046 
L 78.063516 135.466332 
" style="fill:none;stroke:#1f77b4;stroke-width:1.5;"/>
    <path clip-path="url(#p9739413e2a)" d="M 90.431974 127.838115 
L 90.431974 127.62664 
" style="fill:none;stroke:#1f77b4;stroke-width:1.5;"/>
    <path clip-path="url(#p9739413e2a)" d="M 102.800431 120.026373 
L 102.800431 119.828201 
" style="fill:none;stroke:#1f77b4;stroke-width:1.5;"/>
    <path clip-path="url(#p9739413e2a)" d="M 115.168888 112.354606 
L 115.168888 112.187431 
" style="fill:none;stroke:#1f77b4;stroke-width:1.5;"/>
    <path clip-path="url(#p9739413e2a)" d="M 127.537345 104.81654 
L 127.537345 104.536899 
" style="fill:none;stroke:#1f77b4;stroke-width:1.5;"/>
    <path clip-path="url(#p9739413e2a)" d="M 139.905802 97.583086 
L 139.905802 97.054524 
" style="fill:none;stroke:#1f77b4;stroke-width:1.5;"/>
    <path clip-path="url(#p9739413e2a)" d="M 152.274259 91.436896 
L 152.274259 89.284341 
" style="fill:none;stroke:#1f77b4;stroke-width:1.5;"/>
    <path clip-path="url(#p9739413e2a)" d="M 164.642716 81.695141 
L 164.642716 81.210189 
" style="fill:none;stroke:#1f77b4;stroke-width:1.5;"/>
    <path clip-path="url(#p9739413e2a)" d="M 177.011174 75.52934 
L 177.011174 74.275235 
" style="fill:none;stroke:#1f77b4;stroke-width:1.5;"/>
    <path clip-path="url(#p9739413e2a)" d="M 189.379631 66.293761 
L 189.379631 66.119219 
" style="fill:none;stroke:#1f77b4;stroke-width:1.5;"/>
    <path clip-path="url(#p9739413e2a)" d="M 201.748088 59.323586 
L 201.748088 59.062511 
" style="fill:none;stroke:#1f77b4;stroke-width:1.5;"/>
    <path clip-path="url(#p9739413e2a)" d="M 214.116545 51.745413 
L 214.116545 51.322947 
" style="fill:none;stroke:#1f77b4;stroke-width:1.5;"/>
    <path clip-path="url(#p9739413e2a)" d="M 226.485002 44.91042 
L 226.485002 44.005946 
" style="fill:none;stroke:#1f77b4;stroke-width:1.5;"/>
    <path clip-path="url(#p9739413e2a)" d="M 238.853459 38.116737 
L 238.853459 37.046878 
" style="fill:none;stroke:#1f77b4;stroke-width:1.5;"/>
    <path clip-path="url(#p9739413e2a)" d="M 251.221916 31.621377 
L 251.221916 30.856827 
" style="fill:none;stroke:#1f77b4;stroke-width:1.5;"/>
    <path clip-path="url(#p9739413e2a)" d="M 263.590373 24.800874 
L 263.590373 24.117265 
" style="fill:none;stroke:#1f77b4;stroke-width:1.5;"/>
    <path clip-path="url(#p9739413e2a)" d="M 275.958831 18.688954 
L 275.958831 17.994365 
" style="fill:none;stroke:#1f77b4;stroke-width:1.5;"/>
   </g>
   <g id="line2d_12">
    <defs>
     <path d="M 5 0 
L -5 -0 
" id="mdd18591a90" style="stroke:#1f77b4;"/>
    </defs>
    <g clip-path="url(#p9739413e2a)">
     <use style="fill:#1f77b4;stroke:#1f77b4;" x="40.958145" xlink:href="#mdd18591a90" y="158.405427"/>
     <use style="fill:#1f77b4;stroke:#1f77b4;" x="53.326602" xlink:href="#mdd18591a90" y="150.984088"/>
     <use style="fill:#1f77b4;stroke:#1f77b4;" x="65.695059" xlink:href="#mdd18591a90" y="143.338057"/>
     <use style="fill:#1f77b4;stroke:#1f77b4;" x="78.063516" xlink:href="#mdd18591a90" y="135.633046"/>
     <use style="fill:#1f77b4;stroke:#1f77b4;" x="90.431974" xlink:href="#mdd18591a90" y="127.838115"/>
     <use style="fill:#1f77b4;stroke:#1f77b4;" x="102.800431" xlink:href="#mdd18591a90" y="120.026373"/>
     <use style="fill:#1f77b4;stroke:#1f77b4;" x="115.168888" xlink:href="#mdd18591a90" y="112.354606"/>
     <use style="fill:#1f77b4;stroke:#1f77b4;" x="127.537345" xlink:href="#mdd18591a90" y="104.81654"/>
     <use style="fill:#1f77b4;stroke:#1f77b4;" x="139.905802" xlink:href="#mdd18591a90" y="97.583086"/>
     <use style="fill:#1f77b4;stroke:#1f77b4;" x="152.274259" xlink:href="#mdd18591a90" y="91.436896"/>
     <use style="fill:#1f77b4;stroke:#1f77b4;" x="164.642716" xlink:href="#mdd18591a90" y="81.695141"/>
     <use style="fill:#1f77b4;stroke:#1f77b4;" x="177.011174" xlink:href="#mdd18591a90" y="75.52934"/>
     <use style="fill:#1f77b4;stroke:#1f77b4;" x="189.379631" xlink:href="#mdd18591a90" y="66.293761"/>
     <use style="fill:#1f77b4;stroke:#1f77b4;" x="201.748088" xlink:href="#mdd18591a90" y="59.323586"/>
     <use style="fill:#1f77b4;stroke:#1f77b4;" x="214.116545" xlink:href="#mdd18591a90" y="51.745413"/>
     <use style="fill:#1f77b4;stroke:#1f77b4;" x="226.485002" xlink:href="#mdd18591a90" y="44.91042"/>
     <use style="fill:#1f77b4;stroke:#1f77b4;" x="238.853459" xlink:href="#mdd18591a90" y="38.116737"/>
     <use style="fill:#1f77b4;stroke:#1f77b4;" x="251.221916" xlink:href="#mdd18591a90" y="31.621377"/>
     <use style="fill:#1f77b4;stroke:#1f77b4;" x="263.590373" xlink:href="#mdd18591a90" y="24.800874"/>
     <use style="fill:#1f77b4;stroke:#1f77b4;" x="275.958831" xlink:href="#mdd18591a90" y="18.688954"/>
    </g>
   </g>
   <g id="line2d_13">
    <g clip-path="url(#p9739413e2a)">
     <use style="fill:#1f77b4;stroke:#1f77b4;" x="40.958145" xlink:href="#mdd18591a90" y="158.364446"/>
     <use style="fill:#1f77b4;stroke:#1f77b4;" x="53.326602" xlink:href="#mdd18591a90" y="150.902914"/>
     <use style="fill:#1f77b4;stroke:#1f77b4;" x="65.695059" xlink:href="#mdd18591a90" y="143.216249"/>
     <use style="fill:#1f77b4;stroke:#1f77b4;" x="78.063516" xlink:href="#mdd18591a90" y="135.466332"/>
     <use style="fill:#1f77b4;stroke:#1f77b4;" x="90.431974" xlink:href="#mdd18591a90" y="127.62664"/>
     <use style="fill:#1f77b4;stroke:#1f77b4;" x="102.800431" xlink:href="#mdd18591a90" y="119.828201"/>
     <use style="fill:#1f77b4;stroke:#1f77b4;" x="115.168888" xlink:href="#mdd18591a90" y="112.187431"/>
     <use style="fill:#1f77b4;stroke:#1f77b4;" x="127.537345" xlink:href="#mdd18591a90" y="104.536899"/>
     <use style="fill:#1f77b4;stroke:#1f77b4;" x="139.905802" xlink:href="#mdd18591a90" y="97.054524"/>
     <use style="fill:#1f77b4;stroke:#1f77b4;" x="152.274259" xlink:href="#mdd18591a90" y="89.284341"/>
     <use style="fill:#1f77b4;stroke:#1f77b4;" x="164.642716" xlink:href="#mdd18591a90" y="81.210189"/>
     <use style="fill:#1f77b4;stroke:#1f77b4;" x="177.011174" xlink:href="#mdd18591a90" y="74.275235"/>
     <use style="fill:#1f77b4;stroke:#1f77b4;" x="189.379631" xlink:href="#mdd18591a90" y="66.119219"/>
     <use style="fill:#1f77b4;stroke:#1f77b4;" x="201.748088" xlink:href="#mdd18591a90" y="59.062511"/>
     <use style="fill:#1f77b4;stroke:#1f77b4;" x="214.116545" xlink:href="#mdd18591a90" y="51.322947"/>
     <use style="fill:#1f77b4;stroke:#1f77b4;" x="226.485002" xlink:href="#mdd18591a90" y="44.005946"/>
     <use style="fill:#1f77b4;stroke:#1f77b4;" x="238.853459" xlink:href="#mdd18591a90" y="37.046878"/>
     <use style="fill:#1f77b4;stroke:#1f77b4;" x="251.221916" xlink:href="#mdd18591a90" y="30.856827"/>
     <use style="fill:#1f77b4;stroke:#1f77b4;" x="263.590373" xlink:href="#mdd18591a90" y="24.117265"/>
     <use style="fill:#1f77b4;stroke:#1f77b4;" x="275.958831" xlink:href="#mdd18591a90" y="17.994365"/>
    </g>
   </g>
   <g id="line2d_14">
    <defs>
     <path d="M 0 3 
C 0.795609 3 1.55874 2.683901 2.12132 2.12132 
C 2.683901 1.55874 3 0.795609 3 0 
C 3 -0.795609 2.683901 -1.55874 2.12132 -2.12132 
C 1.55874 -2.683901 0.795609 -3 0 -3 
C -0.795609 -3 -1.55874 -2.683901 -2.12132 -2.12132 
C -2.683901 -1.55874 -3 -0.795609 -3 0 
C -3 0.795609 -2.683901 1.55874 -2.12132 2.12132 
C -1.55874 2.683901 -0.795609 3 0 3 
z
" id="m6baf4bfc2b" style="stroke:#1f77b4;"/>
    </defs>
    <g clip-path="url(#p9739413e2a)">
     <use style="fill:#add8e6;stroke:#1f77b4;" x="40.958145" xlink:href="#m6baf4bfc2b" y="158.384937"/>
     <use style="fill:#add8e6;stroke:#1f77b4;" x="53.326602" xlink:href="#m6baf4bfc2b" y="150.943501"/>
     <use style="fill:#add8e6;stroke:#1f77b4;" x="65.695059" xlink:href="#m6baf4bfc2b" y="143.277153"/>
     <use style="fill:#add8e6;stroke:#1f77b4;" x="78.063516" xlink:href="#m6baf4bfc2b" y="135.549689"/>
     <use style="fill:#add8e6;stroke:#1f77b4;" x="90.431974" xlink:href="#m6baf4bfc2b" y="127.732377"/>
     <use style="fill:#add8e6;stroke:#1f77b4;" x="102.800431" xlink:href="#m6baf4bfc2b" y="119.927287"/>
     <use style="fill:#add8e6;stroke:#1f77b4;" x="115.168888" xlink:href="#m6baf4bfc2b" y="112.271018"/>
     <use style="fill:#add8e6;stroke:#1f77b4;" x="127.537345" xlink:href="#m6baf4bfc2b" y="104.676719"/>
     <use style="fill:#add8e6;stroke:#1f77b4;" x="139.905802" xlink:href="#m6baf4bfc2b" y="97.318805"/>
     <use style="fill:#add8e6;stroke:#1f77b4;" x="152.274259" xlink:href="#m6baf4bfc2b" y="90.360618"/>
     <use style="fill:#add8e6;stroke:#1f77b4;" x="164.642716" xlink:href="#m6baf4bfc2b" y="81.452665"/>
     <use style="fill:#add8e6;stroke:#1f77b4;" x="177.011174" xlink:href="#m6baf4bfc2b" y="74.902287"/>
     <use style="fill:#add8e6;stroke:#1f77b4;" x="189.379631" xlink:href="#m6baf4bfc2b" y="66.20649"/>
     <use style="fill:#add8e6;stroke:#1f77b4;" x="201.748088" xlink:href="#m6baf4bfc2b" y="59.193048"/>
     <use style="fill:#add8e6;stroke:#1f77b4;" x="214.116545" xlink:href="#m6baf4bfc2b" y="51.53418"/>
     <use style="fill:#add8e6;stroke:#1f77b4;" x="226.485002" xlink:href="#m6baf4bfc2b" y="44.458183"/>
     <use style="fill:#add8e6;stroke:#1f77b4;" x="238.853459" xlink:href="#m6baf4bfc2b" y="37.581808"/>
     <use style="fill:#add8e6;stroke:#1f77b4;" x="251.221916" xlink:href="#m6baf4bfc2b" y="31.239102"/>
     <use style="fill:#add8e6;stroke:#1f77b4;" x="263.590373" xlink:href="#m6baf4bfc2b" y="24.459069"/>
     <use style="fill:#add8e6;stroke:#1f77b4;" x="275.958831" xlink:href="#m6baf4bfc2b" y="18.341659"/>
    </g>
   </g>
   <g id="patch_3">
    <path d="M 29.208111 165.479937 
L 29.208111 9.840733 
" style="fill:none;stroke:#000000;stroke-linecap:square;stroke-linejoin:miter;stroke-width:0.8;"/>
   </g>
   <g id="patch_4">
    <path d="M 287.708865 165.479937 
L 287.708865 9.840733 
" style="fill:none;stroke:#000000;stroke-linecap:square;stroke-linejoin:miter;stroke-width:0.8;"/>
   </g>
   <g id="patch_5">
    <path d="M 29.208111 165.479937 
L 287.708865 165.479937 
" style="fill:none;stroke:#000000;stroke-linecap:square;stroke-linejoin:miter;stroke-width:0.8;"/>
   </g>
   <g id="patch_6">
    <path d="M 29.208111 9.840733 
L 287.708865 9.840733 
" style="fill:none;stroke:#000000;stroke-linecap:square;stroke-linejoin:miter;stroke-width:0.8;"/>
   </g>
   <g id="text_13">
    <!-- $M=32\times32=1024$ -->
    <g transform="translate(40.783241 25.813111)scale(0.12 -0.12)">
     <defs>
      <path d="M 90.796875 60.71875 
C 91.703125 64.09375 91.90625 65.09375 99 65.09375 
C 100.90625 65.09375 101.796875 65.09375 101.796875 66.984375 
C 101.796875 68 101.09375 68 99.203125 68 
L 87.203125 68 
C 84.703125 68 84.59375 67.890625 83.5 66.296875 
L 47 8.859375 
L 39.5 65.796875 
C 39.203125 68 39.09375 68 36.5 68 
L 24.09375 68 
C 22.203125 68 21.296875 68 21.296875 66.09375 
C 21.296875 65.09375 22.203125 65.09375 23.703125 65.09375 
C 29.796875 65.09375 29.796875 64.296875 29.796875 63.203125 
C 29.796875 63 29.796875 62.40625 29.40625 60.90625 
L 16.59375 10.15625 
C 15.40625 5.375 13.09375 3.1875 6.40625 2.890625 
C 6.09375 2.890625 4.90625 2.796875 4.90625 1.09375 
C 4.90625 0 5.796875 0 6.203125 0 
C 8.203125 0 13.296875 0.1875 15.296875 0.1875 
L 20.09375 0.1875 
C 21.5 0.1875 23.203125 0 24.59375 0 
C 25.296875 0 26.40625 0 26.40625 1.890625 
C 26.40625 2.796875 25.40625 2.890625 25 2.890625 
C 21.703125 2.984375 18.5 3.59375 18.5 7.171875 
C 18.5 8.171875 18.5 8.265625 18.90625 9.65625 
L 32.703125 64.5 
L 32.796875 64.5 
L 41.09375 2.6875 
C 41.40625 0.296875 41.5 0 42.40625 0 
C 43.5 0 44 0.796875 44.5 1.6875 
L 84.703125 64.984375 
L 84.796875 64.984375 
L 70.296875 7.375 
C 69.40625 3.890625 69.203125 2.890625 62.203125 2.890625 
C 60.296875 2.890625 59.296875 2.890625 59.296875 1.09375 
C 59.296875 0 60.203125 0 60.796875 0 
C 62.5 0 64.5 0.1875 66.203125 0.1875 
L 78 0.1875 
C 79.703125 0.1875 81.796875 0 83.5 0 
C 84.296875 0 85.40625 0 85.40625 1.890625 
C 85.40625 2.890625 84.5 2.890625 83 2.890625 
C 76.90625 2.890625 76.90625 3.6875 76.90625 4.6875 
C 76.90625 4.78125 76.90625 5.484375 77.09375 6.28125 
z
" id="CMMI12-77"/>
      <path d="M 64.296875 32 
C 65.796875 32 67.296875 32 67.296875 33.6875 
C 67.296875 35.5 65.59375 35.5 63.90625 35.5 
L 8 35.5 
C 6.296875 35.5 4.59375 35.5 4.59375 33.6875 
C 4.59375 32 6.09375 32 7.59375 32 
z
M 63.90625 14.484375 
C 65.59375 14.484375 67.296875 14.484375 67.296875 16.296875 
C 67.296875 18 65.796875 18 64.296875 18 
L 7.59375 18 
C 6.09375 18 4.59375 18 4.59375 16.296875 
C 4.59375 14.484375 6.296875 14.484375 8 14.484375 
z
" id="CMR17-61"/>
      <path d="M 38.90625 27.734375 
L 18.90625 47.59375 
C 17.703125 48.796875 17.5 49 16.703125 49 
C 15.703125 49 14.703125 48.09375 14.703125 47 
C 14.703125 46.296875 14.90625 46.09375 16 45 
L 36 24.9375 
L 16 4.890625 
C 14.90625 3.796875 14.703125 3.59375 14.703125 2.890625 
C 14.703125 1.796875 15.703125 0.890625 16.703125 0.890625 
C 17.5 0.890625 17.703125 1.09375 18.90625 2.296875 
L 38.796875 22.15625 
L 59.5 1.484375 
C 59.703125 1.390625 60.40625 0.890625 61 0.890625 
C 62.203125 0.890625 63 1.796875 63 2.890625 
C 63 3.09375 63 3.484375 62.703125 3.984375 
C 62.59375 4.1875 46.703125 19.859375 41.703125 24.9375 
L 60 43.203125 
C 60.5 43.796875 62 45.09375 62.5 45.703125 
C 62.59375 45.890625 63 46.296875 63 47 
C 63 48.09375 62.203125 49 61 49 
C 60.203125 49 59.796875 48.59375 58.703125 47.5 
z
" id="CMSY10-2"/>
     </defs>
     <use transform="scale(0.996264)" xlink:href="#CMMI12-77"/>
     <use transform="translate(132.454088 0)scale(0.996264)" xlink:href="#CMR17-61"/>
     <use transform="translate(231.842885 0)scale(0.996264)" xlink:href="#CMR17-51"/>
     <use transform="translate(277.533362 0)scale(0.996264)" xlink:href="#CMR17-50"/>
     <use transform="translate(345.363046 0)scale(0.996264)" xlink:href="#CMSY10-2"/>
     <use transform="translate(444.989721 0)scale(0.996264)" xlink:href="#CMR17-51"/>
     <use transform="translate(490.680198 0)scale(0.996264)" xlink:href="#CMR17-50"/>
     <use transform="translate(564.044684 0)scale(0.996264)" xlink:href="#CMR17-61"/>
     <use transform="translate(663.433481 0)scale(0.996264)" xlink:href="#CMR17-49"/>
     <use transform="translate(709.123958 0)scale(0.996264)" xlink:href="#CMR17-48"/>
     <use transform="translate(754.814435 0)scale(0.996264)" xlink:href="#CMR17-50"/>
     <use transform="translate(800.504912 0)scale(0.996264)" xlink:href="#CMR17-52"/>
    </g>
   </g>
   <g id="text_14">
    <!-- $N=1024$ -->
    <g transform="translate(40.783241 45.669349)scale(0.12 -0.12)">
     <defs>
      <path d="M 74 57.53125 
C 75.09375 61.8125 76.703125 64.796875 84.296875 65.09375 
C 84.59375 65.09375 85.796875 65.1875 85.796875 66.890625 
C 85.796875 68 84.90625 68 84.5 68 
C 82.5 68 77.40625 67.796875 75.40625 67.796875 
L 70.59375 67.796875 
C 69.203125 67.796875 67.40625 68 66 68 
C 65.40625 68 64.203125 68 64.203125 66.09375 
C 64.203125 65.09375 65 65.09375 65.703125 65.09375 
C 71.703125 64.890625 72.09375 62.609375 72.09375 60.8125 
C 72.09375 59.921875 72 59.625 71.703125 58.21875 
L 60.40625 13.34375 
L 39 66.296875 
C 38.296875 67.890625 38.203125 68 36 68 
L 23.796875 68 
C 21.796875 68 20.90625 68 20.90625 66.09375 
C 20.90625 65.09375 21.59375 65.09375 23.5 65.09375 
C 24 65.09375 29.90625 65.09375 29.90625 64.203125 
C 29.90625 64 29.703125 63.203125 29.59375 62.90625 
L 16.296875 10.15625 
C 15.09375 5.28125 12.703125 3.1875 6.09375 2.890625 
C 5.59375 2.890625 4.59375 2.796875 4.59375 1 
C 4.59375 0 5.59375 0 5.90625 0 
C 7.90625 0 13 0.1875 15 0.1875 
L 19.796875 0.1875 
C 21.203125 0.1875 22.90625 0 24.296875 0 
C 25 0 26.09375 0 26.09375 1.890625 
C 26.09375 2.796875 25.09375 2.890625 24.703125 2.890625 
C 21.40625 2.984375 18.203125 3.59375 18.203125 7.171875 
C 18.203125 7.96875 18.40625 8.859375 18.59375 9.65625 
L 32.09375 62.90625 
C 32.703125 61.90625 32.703125 61.703125 33.09375 60.8125 
L 56.90625 1.796875 
C 57.40625 0.59375 57.59375 0 58.5 0 
C 59.5 0 59.59375 0.296875 60 2 
z
" id="CMMI12-78"/>
     </defs>
     <use transform="scale(0.996264)" xlink:href="#CMMI12-78"/>
     <use transform="translate(116.195781 0)scale(0.996264)" xlink:href="#CMR17-61"/>
     <use transform="translate(215.584578 0)scale(0.996264)" xlink:href="#CMR17-49"/>
     <use transform="translate(261.275056 0)scale(0.996264)" xlink:href="#CMR17-48"/>
     <use transform="translate(306.965533 0)scale(0.996264)" xlink:href="#CMR17-50"/>
     <use transform="translate(352.65601 0)scale(0.996264)" xlink:href="#CMR17-52"/>
    </g>
   </g>
   <g id="text_15">
    <!-- $\ell_{\rm{max}}=20$ -->
    <g transform="translate(40.783241 65.525588)scale(0.12 -0.12)">
     <defs>
      <path d="M 67.59375 30.53125 
C 67.59375 35.5625 66.703125 44 54.796875 44 
C 48 44 43.296875 39.375 41.5 33.953125 
L 41.40625 33.953125 
C 40.203125 42.1875 34.296875 44 28.703125 44 
C 20.796875 44 16.703125 37.875 15.203125 33.84375 
L 15.09375 33.84375 
L 15.09375 44 
L 3.296875 42.890625 
L 3.296875 40.28125 
C 9.203125 40.28125 10.09375 39.6875 10.09375 34.859375 
L 10.09375 6.921875 
C 10.09375 3.09375 9.703125 2.59375 3.296875 2.59375 
L 3.296875 0 
C 5.703125 0.1875 10.09375 0.1875 12.703125 0.1875 
C 15.296875 0.1875 19.796875 0.1875 22.203125 0 
L 22.203125 2.59375 
C 15.796875 2.59375 15.40625 3 15.40625 6.921875 
L 15.40625 26.21875 
C 15.40625 35.453125 21 42.390625 28 42.390625 
C 35.40625 42.390625 36.203125 35.765625 36.203125 30.9375 
L 36.203125 6.921875 
C 36.203125 3.09375 35.796875 2.59375 29.40625 2.59375 
L 29.40625 0 
C 31.796875 0.1875 36.203125 0.1875 38.796875 0.1875 
C 41.40625 0.1875 45.90625 0.1875 48.296875 0 
L 48.296875 2.59375 
C 41.90625 2.59375 41.5 3 41.5 6.921875 
L 41.5 26.21875 
C 41.5 35.453125 47.09375 42.390625 54.09375 42.390625 
C 61.5 42.390625 62.296875 35.765625 62.296875 30.9375 
L 62.296875 6.921875 
C 62.296875 3.09375 61.90625 2.59375 55.5 2.59375 
L 55.5 0 
C 57.90625 0.1875 62.296875 0.1875 64.90625 0.1875 
C 67.5 0.1875 72 0.1875 74.40625 0 
L 74.40625 2.59375 
C 68 2.59375 67.59375 3 67.59375 6.921875 
z
" id="CMR17-109"/>
      <path d="M 36 25.875 
C 36 32 36 35.546875 31.796875 39.59375 
C 28.09375 42.984375 23.796875 44 20.40625 44 
C 12.5 44 6.796875 37.625 6.796875 30.890625 
C 6.796875 27.1875 9.796875 27 10.40625 27 
C 11.703125 27 14 27.796875 14 30.59375 
C 14 33.09375 12.09375 34.1875 10.40625 34.1875 
C 10 34.1875 9.5 34.09375 9.203125 34 
C 11.296875 40.53125 16.703125 42.390625 20.203125 42.390625 
C 25.203125 42.390625 30.703125 37.828125 30.703125 29.296875 
L 30.703125 25.5 
C 24.796875 25.296875 17.703125 24.5 12.09375 21.453125 
C 5.796875 17.921875 4 12.84375 4 9 
C 4 1.203125 13 -1 18.296875 -1 
C 23.796875 -1 28.90625 2.109375 31.09375 7.890625 
C 31.296875 3.421875 34.09375 -0.609375 38.5 -0.609375 
C 40.59375 -0.609375 45.90625 0.796875 45.90625 8.796875 
L 45.90625 14.46875 
L 44.09375 14.46875 
L 44.09375 8.703125 
C 44.09375 2.515625 41.40625 1.703125 40.09375 1.703125 
C 36 1.703125 36 6.96875 36 11.4375 
z
M 30.703125 13.859375 
C 30.703125 5.046875 24.5 0.59375 19 0.59375 
C 14 0.59375 10.09375 4.34375 10.09375 9 
C 10.09375 12.046875 11.40625 17.40625 17.203125 20.65625 
C 22 23.390625 27.5 23.796875 30.703125 24 
z
" id="CMR17-97"/>
      <path d="M 26 23.296875 
C 29 27.1875 32.40625 31.59375 35.203125 34.890625 
C 38.5 38.6875 42.296875 40.296875 46.703125 40.390625 
L 46.703125 43 
C 45 42.890625 41.5 42.796875 39.703125 42.796875 
C 37 42.796875 33.90625 42.796875 31.59375 43 
L 31.59375 40.390625 
C 33 40.1875 33.796875 39.1875 33.796875 37.796875 
C 33.796875 36 32.796875 34.890625 32.296875 34.1875 
L 24.90625 24.796875 
L 16.09375 36.296875 
C 15.203125 37.390625 15.203125 37.59375 15.203125 38.09375 
C 15.203125 39.296875 16.203125 40.296875 17.90625 40.390625 
L 17.90625 43 
C 15.5 42.796875 11.203125 42.796875 8.703125 42.796875 
C 6 42.796875 2.796875 42.796875 0.59375 43 
L 0.59375 40.390625 
C 6 40.390625 7.203125 40 9.59375 37 
L 21.09375 22.09375 
C 21.296875 21.890625 21.796875 21.296875 21.796875 21 
C 21.796875 20.59375 13.09375 9.890625 12 8.5 
C 7.5 3.09375 2.796875 2.6875 0.09375 2.59375 
L 0.09375 0 
C 1.796875 0.09375 5.296875 0.1875 7.09375 0.1875 
C 9.09375 0.1875 13.5 0.1875 15.296875 0 
L 15.296875 2.59375 
C 14.703125 2.6875 13.09375 2.890625 13.09375 5.1875 
C 13.09375 7 13.90625 8.09375 14.796875 9.296875 
L 23.09375 19.5 
L 31.796875 8.1875 
C 32.59375 7.09375 33.796875 5.59375 33.796875 4.890625 
C 33.796875 3.5 32.59375 2.6875 31 2.59375 
L 31 0 
C 33.40625 0.1875 37.703125 0.1875 40.203125 0.1875 
C 42.90625 0.1875 46.09375 0.1875 48.296875 0 
L 48.296875 2.59375 
C 43.296875 2.59375 41.796875 2.796875 39.40625 5.890625 
z
" id="CMR17-120"/>
     </defs>
     <use transform="scale(0.996264)" xlink:href="#CMMI12-96"/>
     <use transform="translate(40.934219 -14.943915)scale(0.697382)" xlink:href="#CMR17-109"/>
     <use transform="translate(94.777686 -14.943915)scale(0.697382)" xlink:href="#CMR17-97"/>
     <use transform="translate(126.760868 -14.943915)scale(0.697382)" xlink:href="#CMR17-120"/>
     <use transform="translate(188.737896 0)scale(0.996264)" xlink:href="#CMR17-61"/>
     <use transform="translate(288.126693 0)scale(0.996264)" xlink:href="#CMR17-50"/>
     <use transform="translate(333.817171 0)scale(0.996264)" xlink:href="#CMR17-48"/>
    </g>
   </g>
   <g id="text_16">
    <!-- $D=2$ -->
    <g transform="translate(40.783241 85.381827)scale(0.12 -0.12)">
     <defs>
      <path d="M 15.703125 7.375 
C 14.796875 3.890625 14.59375 2.890625 7.59375 2.890625 
C 5.703125 2.890625 4.703125 2.890625 4.703125 1.09375 
C 4.703125 0 5.296875 0 7.296875 0 
L 39 0 
C 59.203125 0 78.90625 20.8125 78.90625 43 
C 78.90625 57.328125 70.296875 68 56 68 
L 23.90625 68 
C 22 68 21.09375 68 21.09375 66.09375 
C 21.09375 65.09375 22 65.09375 23.5 65.09375 
C 29.59375 65.09375 29.59375 64.296875 29.59375 63.203125 
C 29.59375 63 29.59375 62.40625 29.203125 60.90625 
z
M 36.796875 61.203125 
C 37.703125 64.890625 38.09375 65.09375 42 65.09375 
L 53 65.09375 
C 62.40625 65.09375 71 60.015625 71 46.28125 
C 71 41.3125 69 23.984375 59.296875 13.046875 
C 56.5 9.765625 48.90625 2.890625 37.40625 2.890625 
L 26 2.890625 
C 24.59375 2.890625 24.40625 2.890625 23.796875 2.984375 
C 22.703125 3.09375 22.59375 3.296875 22.59375 4.09375 
C 22.59375 4.78125 22.796875 5.375 23 6.28125 
z
" id="CMMI12-68"/>
     </defs>
     <use transform="scale(0.996264)" xlink:href="#CMMI12-68"/>
     <use transform="translate(111.377956 0)scale(0.996264)" xlink:href="#CMR17-61"/>
     <use transform="translate(210.766754 0)scale(0.996264)" xlink:href="#CMR17-50"/>
    </g>
   </g>
   <g id="text_17">
    <!-- $\frac{U}{t} \approx (\frac{U}{t})_c$ -->
    <g transform="translate(40.783241 105.238066)scale(0.12 -0.12)">
     <defs>
      <path d="M 50.59375 22.953125 
C 47.09375 9.046875 35.5 0.890625 26.09375 0.890625 
C 18.90625 0.890625 14 5.65625 14 13.90625 
C 14 14.3125 14 17.296875 15.09375 21.65625 
L 24.90625 60.71875 
C 25.796875 64.09375 26 65.09375 33.09375 65.09375 
C 34.90625 65.09375 35.90625 65.09375 35.90625 66.890625 
C 35.90625 68 35 68 34.40625 68 
C 32.59375 68 30.5 67.796875 28.59375 67.796875 
L 16.796875 67.796875 
C 14.90625 67.796875 12.796875 68 10.90625 68 
C 10.203125 68 9 68 9 66.09375 
C 9 65.09375 9.703125 65.09375 11.59375 65.09375 
C 17.59375 65.09375 17.59375 64.296875 17.59375 63.203125 
C 17.59375 62.609375 16.90625 59.71875 16.40625 58.03125 
L 7.703125 23.25 
C 7.40625 22.15625 6.796875 19.46875 6.796875 16.796875 
C 6.796875 5.859375 14.703125 -2 25.59375 -2 
C 35.703125 -2 46.90625 5.953125 52 18.578125 
C 52.703125 20.265625 53.59375 23.75 54.203125 26.4375 
C 55.203125 30.015625 57.296875 38.75 58 41.34375 
L 61.796875 56.25 
C 63.09375 61.421875 63.90625 64.6875 72.703125 65.09375 
C 73.5 65.1875 73.90625 65.984375 73.90625 66.890625 
C 73.90625 68 73 68 72.59375 68 
C 71.203125 68 69.40625 67.796875 68 67.796875 
L 63.296875 67.796875 
C 57.09375 67.796875 53.90625 68 53.796875 68 
C 53.203125 68 52 68 52 66.09375 
C 52 65.09375 52.796875 65.09375 53.5 65.09375 
C 59.5 64.890625 59.90625 62.609375 59.90625 60.8125 
C 59.90625 59.921875 59.90625 59.625 59.5 58.234375 
z
" id="CMMI12-85"/>
      <path d="M 20.09375 40.09375 
L 29.296875 40.09375 
C 31.203125 40.09375 32.203125 40.09375 32.203125 41.890625 
C 32.203125 43 31.59375 43 29.59375 43 
L 20.796875 43 
L 24.5 57.25 
C 24.90625 58.625 24.90625 58.8125 24.90625 59.5 
C 24.90625 61.09375 23.59375 62 22.296875 62 
C 21.5 62 19.203125 61.6875 18.40625 58.53125 
L 14.5 43 
L 5.09375 43 
C 3.09375 43 2.203125 43 2.203125 41.09375 
C 2.203125 40.09375 2.90625 40.09375 4.796875 40.09375 
L 13.703125 40.09375 
L 7.09375 13.765625 
C 6.296875 10.265625 6 9.265625 6 7.96875 
C 6 3.28125 9.296875 -1 14.90625 -1 
C 25 -1 30.40625 13.5625 30.40625 14.265625 
C 30.40625 14.859375 30 15.15625 29.40625 15.15625 
C 29.203125 15.15625 28.796875 15.15625 28.59375 14.75 
C 28.5 14.65625 28.40625 14.5625 27.703125 12.96875 
C 25.59375 7.96875 21 1 15.203125 1 
C 12.203125 1 12 3.484375 12 5.6875 
C 12 5.78125 12 7.671875 12.296875 8.875 
z
" id="CMMI12-116"/>
      <path d="M 72.203125 45.5 
C 72.203125 47.59375 71.5 48.5 70.796875 48.5 
C 70.40625 48.5 69.5 48.09375 69.40625 45.796875 
C 69 38.796875 62 34.59375 55.5 34.59375 
C 49.703125 34.59375 44.703125 37.765625 39.5 41.359375 
C 34.09375 45 28.703125 48.59375 22.203125 48.59375 
C 12.90625 48.59375 5.5 41.453125 5.5 32.09375 
C 5.5 29.890625 6.296875 29.09375 6.90625 29.09375 
C 7.90625 29.09375 8.296875 31 8.296875 31.390625 
C 8.796875 39.921875 17 43 22.203125 43 
C 28 43 33 39.8125 38.203125 36.234375 
C 43.59375 32.59375 49 29 55.5 29 
C 64.796875 29 72.203125 36.125 72.203125 45.5 
z
M 72.203125 21.796875 
C 72.203125 24.6875 71 24.890625 70.796875 24.890625 
C 70.40625 24.890625 69.5 24.390625 69.40625 22.1875 
C 69 15.1875 62 11 55.5 11 
C 49.703125 11 44.703125 14.171875 39.5 17.75 
C 34.09375 21.390625 28.703125 25 22.203125 25 
C 12.90625 25 5.5 17.859375 5.5 8.484375 
C 5.5 6.296875 6.296875 5.484375 6.90625 5.484375 
C 7.90625 5.484375 8.296875 7.390625 8.296875 7.796875 
C 8.796875 16.3125 17 19.390625 22.203125 19.390625 
C 28 19.390625 33 16.21875 38.203125 12.625 
C 43.59375 8.984375 49 5.390625 55.5 5.390625 
C 65 5.390625 72.203125 12.84375 72.203125 21.796875 
z
" id="CMSY10-25"/>
      <path d="M 30.59375 -24.40625 
C 30.59375 -24.3125 30.59375 -24.109375 30.296875 -23.8125 
C 25.703125 -19.109375 13.40625 -6.296875 13.40625 24.9375 
C 13.40625 56.171875 25.5 68.875 30.40625 73.890625 
C 30.40625 73.984375 30.59375 74.1875 30.59375 74.484375 
C 30.59375 74.796875 30.296875 75 29.90625 75 
C 28.796875 75 20.296875 67.578125 15.40625 56.5625 
C 10.40625 45.453125 9 34.65625 9 25.046875 
C 9 17.828125 9.703125 5.625 15.703125 -7.296875 
C 20.5 -17.703125 28.703125 -25 29.90625 -25 
C 30.40625 -25 30.59375 -24.8125 30.59375 -24.40625 
z
" id="CMR17-40"/>
      <path d="M 26.296875 24.9375 
C 26.296875 32.140625 25.59375 44.359375 19.59375 57.265625 
C 14.796875 67.6875 6.59375 75 5.40625 75 
C 5.09375 75 4.703125 74.890625 4.703125 74.390625 
C 4.703125 74.1875 4.796875 74.09375 4.90625 73.890625 
C 9.703125 68.875 21.90625 56.171875 21.90625 25.046875 
C 21.90625 -6.1875 9.796875 -18.90625 4.90625 -23.90625 
C 4.796875 -24.109375 4.703125 -24.203125 4.703125 -24.40625 
C 4.703125 -24.90625 5.09375 -25 5.40625 -25 
C 6.5 -25 15 -17.609375 19.90625 -6.59375 
C 24.90625 4.515625 26.296875 15.328125 26.296875 24.9375 
z
" id="CMR17-41"/>
      <path d="M 39.09375 38 
C 37.203125 38 36.296875 38 34.90625 36.796875 
C 34.296875 36.296875 33.203125 34.796875 33.203125 33.1875 
C 33.203125 31.1875 34.703125 29.984375 36.59375 29.984375 
C 39 29.984375 41.703125 31.984375 41.703125 35.984375 
C 41.703125 40.484375 37.09375 44 30.203125 44 
C 17.09375 44 4 30.1875 4 15.796875 
C 4 6.96875 9.40625 -1 19.59375 -1 
C 33.203125 -1 41.796875 9.71875 41.796875 11.03125 
C 41.796875 11.640625 41.203125 12.140625 40.796875 12.140625 
C 40.5 12.140625 40.40625 12.046875 39.5 11.125 
C 33.09375 2.515625 23.59375 1 19.796875 1 
C 12.90625 1 10.703125 7.078125 10.703125 12.140625 
C 10.703125 15.6875 12.40625 25.53125 16 32.390625 
C 18.59375 37.09375 24 41.984375 30.296875 41.984375 
C 31.59375 41.984375 37.09375 41.8125 39.09375 38 
z
" id="CMMI12-99"/>
     </defs>
     <use transform="translate(0 39.226102)scale(0.697382)" xlink:href="#CMMI12-85"/>
     <use transform="translate(14.501299 -34.355253)scale(0.697382)" xlink:href="#CMMI12-116"/>
     <use transform="translate(82.530431 0)scale(0.996264)" xlink:href="#CMSY10-25"/>
     <use transform="translate(187.691907 0)scale(0.996264)" xlink:href="#CMR17-40"/>
     <use transform="translate(224.168189 39.226102)scale(0.697382)" xlink:href="#CMMI12-85"/>
     <use transform="translate(238.669488 -34.355253)scale(0.697382)" xlink:href="#CMMI12-116"/>
     <use transform="translate(279.024611 0)scale(0.996264)" xlink:href="#CMR17-41"/>
     <use transform="translate(314.305379 -14.943915)scale(0.697382)" xlink:href="#CMMI12-99"/>
     <path d="M 0 22.914133 
L 53.660908 22.914133 
L 53.660908 26.899083 
L 0 26.899083 
L 0 22.914133 
z
"/>
     <path d="M 224.168189 22.914133 
L 277.829097 22.914133 
L 277.829097 26.899083 
L 224.168189 26.899083 
L 224.168189 22.914133 
z
"/>
    </g>
   </g>
  </g>
  <g id="axes_2">
   <g id="patch_7">
    <path d="M 195.649241 134.145951 
L 285.707569 134.145951 
L 285.707569 84.052804 
L 195.649241 84.052804 
z
" style="fill:none;"/>
   </g>
   <g id="matplotlib.axis_3">
    <g id="xtick_5">
     <g id="line2d_15">
      <g>
       <use style="stroke:#000000;stroke-width:0.8;" x="199.742802" xlink:href="#m635bdd7f67" y="134.145951"/>
      </g>
     </g>
     <g id="text_18">
      <!-- $\mathdefault{0}$ -->
      <g transform="translate(197.252134 147.06445)scale(0.1 -0.1)">
       <use transform="scale(0.996264)" xlink:href="#CMR17-48"/>
      </g>
     </g>
    </g>
    <g id="xtick_6">
     <g id="line2d_16">
      <g>
       <use style="stroke:#000000;stroke-width:0.8;" x="254.401362" xlink:href="#m635bdd7f67" y="134.145951"/>
      </g>
     </g>
     <g id="text_19">
      <!-- $\mathdefault{2}$ -->
      <g transform="translate(251.910694 147.06445)scale(0.1 -0.1)">
       <use transform="scale(0.996264)" xlink:href="#CMR17-50"/>
      </g>
     </g>
    </g>
    <g id="text_20">
     <!-- $\ln \ell$ -->
     <g transform="translate(232.348611 161.303808)scale(0.12 -0.12)">
      <defs>
       <path d="M 15.296875 69 
L 3.40625 67.890625 
L 3.40625 65.296875 
C 9.296875 65.296875 10.203125 64.703125 10.203125 59.921875 
L 10.203125 6.859375 
C 10.203125 3.09375 9.796875 2.59375 3.40625 2.59375 
L 3.40625 0 
C 5.796875 0.1875 10.203125 0.1875 12.703125 0.1875 
C 15.296875 0.1875 19.703125 0.1875 22.09375 0 
L 22.09375 2.59375 
C 15.703125 2.59375 15.296875 2.984375 15.296875 6.859375 
z
" id="CMR17-108"/>
       <path d="M 41.5 30.53125 
C 41.5 35.65625 40.5 44 28.703125 44 
C 20.796875 44 16.703125 37.875 15.203125 33.84375 
L 15.09375 33.84375 
L 15.09375 44 
L 3.296875 42.890625 
L 3.296875 40.28125 
C 9.203125 40.28125 10.09375 39.6875 10.09375 34.859375 
L 10.09375 6.921875 
C 10.09375 3.09375 9.703125 2.59375 3.296875 2.59375 
L 3.296875 0 
C 5.703125 0.1875 10.09375 0.1875 12.703125 0.1875 
C 15.296875 0.1875 19.796875 0.1875 22.203125 0 
L 22.203125 2.59375 
C 15.796875 2.59375 15.40625 3 15.40625 6.921875 
L 15.40625 26.21875 
C 15.40625 35.453125 21 42.390625 28 42.390625 
C 35.40625 42.390625 36.203125 35.765625 36.203125 30.9375 
L 36.203125 6.921875 
C 36.203125 3.09375 35.796875 2.59375 29.40625 2.59375 
L 29.40625 0 
C 31.796875 0.1875 36.203125 0.1875 38.796875 0.1875 
C 41.40625 0.1875 45.90625 0.1875 48.296875 0 
L 48.296875 2.59375 
C 41.90625 2.59375 41.5 3 41.5 6.921875 
z
" id="CMR17-110"/>
      </defs>
      <use transform="scale(0.996264)" xlink:href="#CMR17-108"/>
      <use transform="translate(24.871058 0)scale(0.996264)" xlink:href="#CMR17-110"/>
      <use transform="translate(92.370833 0)scale(0.996264)" xlink:href="#CMMI12-96"/>
     </g>
    </g>
   </g>
   <g id="matplotlib.axis_4">
    <g id="ytick_7">
     <g id="line2d_17">
      <g>
       <use style="stroke:#000000;stroke-width:0.8;" x="195.649241" xlink:href="#m9756e11de8" y="130.104735"/>
      </g>
     </g>
     <g id="text_21">
      <!-- $\mathdefault{0.0}$ -->
      <g transform="translate(176.919162 133.563984)scale(0.1 -0.1)">
       <defs>
        <path d="M 18.40625 4.796875 
C 18.40625 7.6875 16 9.6875 13.59375 9.6875 
C 10.703125 9.6875 8.703125 7.296875 8.703125 4.890625 
C 8.703125 2 11.09375 0 13.5 0 
C 16.40625 0 18.40625 2.390625 18.40625 4.796875 
z
" id="CMMI12-58"/>
       </defs>
       <use transform="scale(0.996264)" xlink:href="#CMR17-48"/>
       <use transform="translate(45.690477 0)scale(0.996264)" xlink:href="#CMMI12-58"/>
       <use transform="translate(72.787654 0)scale(0.996264)" xlink:href="#CMR17-48"/>
      </g>
     </g>
    </g>
    <g id="ytick_8">
     <g id="line2d_18">
      <g>
       <use style="stroke:#000000;stroke-width:0.8;" x="195.649241" xlink:href="#m9756e11de8" y="104.615441"/>
      </g>
     </g>
     <g id="text_22">
      <!-- $\mathdefault{0.5}$ -->
      <g transform="translate(176.919162 108.07469)scale(0.1 -0.1)">
       <use transform="scale(0.996264)" xlink:href="#CMR17-48"/>
       <use transform="translate(45.690477 0)scale(0.996264)" xlink:href="#CMMI12-58"/>
       <use transform="translate(72.787654 0)scale(0.996264)" xlink:href="#CMR17-53"/>
      </g>
     </g>
    </g>
    <g id="text_23">
     <!-- $S_2-a\ell$ -->
     <g transform="translate(170.594567 127.899635)rotate(-90)scale(0.12 -0.12)">
      <defs>
       <path d="M 65.90625 23 
C 67.59375 23 69.40625 23 69.40625 25 
C 69.40625 27 67.59375 27 65.90625 27 
L 11.796875 27 
C 10.09375 27 8.296875 27 8.296875 25 
C 8.296875 23 10.09375 23 11.796875 23 
z
" id="CMSY10-0"/>
       <path d="M 30.09375 11.859375 
C 29.59375 10.171875 29.59375 9.96875 28.203125 8.078125 
C 26 5.28125 21.59375 1 16.90625 1 
C 12.796875 1 10.5 4.6875 10.5 10.5625 
C 10.5 16.0625 13.59375 27.234375 15.5 31.421875 
C 18.90625 38.40625 23.59375 41.984375 27.5 41.984375 
C 34.09375 41.984375 35.40625 33.8125 35.40625 33.015625 
C 35.40625 32.921875 35.09375 31.625 35 31.421875 
z
M 36.5 37.40625 
C 35.40625 40 32.703125 44 27.5 44 
C 16.203125 44 4 29.421875 4 14.65625 
C 4 4.78125 9.796875 -1 16.59375 -1 
C 22.09375 -1 26.796875 3.28125 29.59375 6.578125 
C 30.59375 0.6875 35.296875 -1 38.296875 -1 
C 41.296875 -1 43.703125 0.796875 45.5 4.375 
C 47.09375 7.75 48.5 13.828125 48.5 14.21875 
C 48.5 14.71875 48.09375 15.125 47.5 15.125 
C 46.59375 15.125 46.5 14.625 46.09375 13.125 
C 44.59375 7.265625 42.703125 1 38.59375 1 
C 35.703125 1 35.5 3.578125 35.5 5.5625 
C 35.5 7.859375 35.796875 8.953125 36.703125 12.828125 
C 37.40625 15.3125 37.90625 17.5 38.703125 20.390625 
C 42.40625 35.3125 43.296875 38.890625 43.296875 39.5 
C 43.296875 40.890625 42.203125 42 40.703125 42 
C 37.5 42 36.703125 38.5 36.5 37.3125 
z
" id="CMMI12-97"/>
      </defs>
      <use transform="scale(0.996264)" xlink:href="#CMMI12-83"/>
      <use transform="translate(59.994488 -14.943915)scale(0.697382)" xlink:href="#CMR17-50"/>
      <use transform="translate(114.615009 0)scale(0.996264)" xlink:href="#CMSY10-0"/>
      <use transform="translate(214.241683 0)scale(0.996264)" xlink:href="#CMMI12-97"/>
      <use transform="translate(265.449541 0)scale(0.996264)" xlink:href="#CMMI12-96"/>
     </g>
    </g>
   </g>
   <g id="LineCollection_2">
    <path clip-path="url(#pddc250c5e6)" d="M 199.742802 131.86899 
L 199.742802 131.025634 
" style="fill:none;stroke:#1f77b4;stroke-width:1.5;"/>
    <path clip-path="url(#pddc250c5e6)" d="M 218.686015 130.229868 
L 218.686015 128.543283 
" style="fill:none;stroke:#1f77b4;stroke-width:1.5;"/>
    <path clip-path="url(#pddc250c5e6)" d="M 229.767085 128.179013 
L 229.767085 125.649129 
" style="fill:none;stroke:#1f77b4;stroke-width:1.5;"/>
    <path clip-path="url(#pddc250c5e6)" d="M 237.629229 126.016616 
L 237.629229 122.642734 
" style="fill:none;stroke:#1f77b4;stroke-width:1.5;"/>
    <path clip-path="url(#pddc250c5e6)" d="M 243.727581 123.68972 
L 243.727581 119.471853 
" style="fill:none;stroke:#1f77b4;stroke-width:1.5;"/>
    <path clip-path="url(#pddc250c5e6)" d="M 248.710298 121.38083 
L 248.710298 116.327717 
" style="fill:none;stroke:#1f77b4;stroke-width:1.5;"/>
    <path clip-path="url(#pddc250c5e6)" d="M 252.923125 119.344244 
L 252.923125 113.4562 
" style="fill:none;stroke:#1f77b4;stroke-width:1.5;"/>
    <path clip-path="url(#pddc250c5e6)" d="M 256.572442 117.429409 
L 256.572442 110.689839 
" style="fill:none;stroke:#1f77b4;stroke-width:1.5;"/>
    <path clip-path="url(#pddc250c5e6)" d="M 259.791368 115.962692 
L 259.791368 108.340904 
" style="fill:none;stroke:#1f77b4;stroke-width:1.5;"/>
    <path clip-path="url(#pddc250c5e6)" d="M 262.670795 115.615098 
L 262.670795 106.336488 
" style="fill:none;stroke:#1f77b4;stroke-width:1.5;"/>
    <path clip-path="url(#pddc250c5e6)" d="M 265.275553 110.871506 
L 265.275553 101.588818 
" style="fill:none;stroke:#1f77b4;stroke-width:1.5;"/>
    <path clip-path="url(#pddc250c5e6)" d="M 267.653512 110.969934 
L 267.653512 100.631609 
" style="fill:none;stroke:#1f77b4;stroke-width:1.5;"/>
    <path clip-path="url(#pddc250c5e6)" d="M 269.841021 106.905969 
L 269.841021 95.981139 
" style="fill:none;stroke:#1f77b4;stroke-width:1.5;"/>
    <path clip-path="url(#pddc250c5e6)" d="M 271.866339 106.051327 
L 271.866339 94.28145 
" style="fill:none;stroke:#1f77b4;stroke-width:1.5;"/>
    <path clip-path="url(#pddc250c5e6)" d="M 273.751864 104.019525 
L 273.751864 91.395629 
" style="fill:none;stroke:#1f77b4;stroke-width:1.5;"/>
    <path clip-path="url(#pddc250c5e6)" d="M 275.515656 103.086793 
L 275.515656 89.544977 
" style="fill:none;stroke:#1f77b4;stroke-width:1.5;"/>
    <path clip-path="url(#pddc250c5e6)" d="M 277.172483 102.496612 
L 277.172483 88.082706 
" style="fill:none;stroke:#1f77b4;stroke-width:1.5;"/>
    <path clip-path="url(#pddc250c5e6)" d="M 278.734581 102.832906 
L 278.734581 87.64804 
" style="fill:none;stroke:#1f77b4;stroke-width:1.5;"/>
    <path clip-path="url(#pddc250c5e6)" d="M 280.2122 102.395242 
L 280.2122 86.386018 
" style="fill:none;stroke:#1f77b4;stroke-width:1.5;"/>
    <path clip-path="url(#pddc250c5e6)" d="M 281.614008 103.178063 
L 281.614008 86.329765 
" style="fill:none;stroke:#1f77b4;stroke-width:1.5;"/>
   </g>
   <g id="line2d_19">
    <g clip-path="url(#pddc250c5e6)">
     <use style="fill:#1f77b4;stroke:#1f77b4;" x="199.742802" xlink:href="#mdd18591a90" y="131.86899"/>
     <use style="fill:#1f77b4;stroke:#1f77b4;" x="218.686015" xlink:href="#mdd18591a90" y="130.229868"/>
     <use style="fill:#1f77b4;stroke:#1f77b4;" x="229.767085" xlink:href="#mdd18591a90" y="128.179013"/>
     <use style="fill:#1f77b4;stroke:#1f77b4;" x="237.629229" xlink:href="#mdd18591a90" y="126.016616"/>
     <use style="fill:#1f77b4;stroke:#1f77b4;" x="243.727581" xlink:href="#mdd18591a90" y="123.68972"/>
     <use style="fill:#1f77b4;stroke:#1f77b4;" x="248.710298" xlink:href="#mdd18591a90" y="121.38083"/>
     <use style="fill:#1f77b4;stroke:#1f77b4;" x="252.923125" xlink:href="#mdd18591a90" y="119.344244"/>
     <use style="fill:#1f77b4;stroke:#1f77b4;" x="256.572442" xlink:href="#mdd18591a90" y="117.429409"/>
     <use style="fill:#1f77b4;stroke:#1f77b4;" x="259.791368" xlink:href="#mdd18591a90" y="115.962692"/>
     <use style="fill:#1f77b4;stroke:#1f77b4;" x="262.670795" xlink:href="#mdd18591a90" y="115.615098"/>
     <use style="fill:#1f77b4;stroke:#1f77b4;" x="265.275553" xlink:href="#mdd18591a90" y="110.871506"/>
     <use style="fill:#1f77b4;stroke:#1f77b4;" x="267.653512" xlink:href="#mdd18591a90" y="110.969934"/>
     <use style="fill:#1f77b4;stroke:#1f77b4;" x="269.841021" xlink:href="#mdd18591a90" y="106.905969"/>
     <use style="fill:#1f77b4;stroke:#1f77b4;" x="271.866339" xlink:href="#mdd18591a90" y="106.051327"/>
     <use style="fill:#1f77b4;stroke:#1f77b4;" x="273.751864" xlink:href="#mdd18591a90" y="104.019525"/>
     <use style="fill:#1f77b4;stroke:#1f77b4;" x="275.515656" xlink:href="#mdd18591a90" y="103.086793"/>
     <use style="fill:#1f77b4;stroke:#1f77b4;" x="277.172483" xlink:href="#mdd18591a90" y="102.496612"/>
     <use style="fill:#1f77b4;stroke:#1f77b4;" x="278.734581" xlink:href="#mdd18591a90" y="102.832906"/>
     <use style="fill:#1f77b4;stroke:#1f77b4;" x="280.2122" xlink:href="#mdd18591a90" y="102.395242"/>
     <use style="fill:#1f77b4;stroke:#1f77b4;" x="281.614008" xlink:href="#mdd18591a90" y="103.178063"/>
    </g>
   </g>
   <g id="line2d_20">
    <g clip-path="url(#pddc250c5e6)">
     <use style="fill:#1f77b4;stroke:#1f77b4;" x="199.742802" xlink:href="#mdd18591a90" y="131.025634"/>
     <use style="fill:#1f77b4;stroke:#1f77b4;" x="218.686015" xlink:href="#mdd18591a90" y="128.543283"/>
     <use style="fill:#1f77b4;stroke:#1f77b4;" x="229.767085" xlink:href="#mdd18591a90" y="125.649129"/>
     <use style="fill:#1f77b4;stroke:#1f77b4;" x="237.629229" xlink:href="#mdd18591a90" y="122.642734"/>
     <use style="fill:#1f77b4;stroke:#1f77b4;" x="243.727581" xlink:href="#mdd18591a90" y="119.471853"/>
     <use style="fill:#1f77b4;stroke:#1f77b4;" x="248.710298" xlink:href="#mdd18591a90" y="116.327717"/>
     <use style="fill:#1f77b4;stroke:#1f77b4;" x="252.923125" xlink:href="#mdd18591a90" y="113.4562"/>
     <use style="fill:#1f77b4;stroke:#1f77b4;" x="256.572442" xlink:href="#mdd18591a90" y="110.689839"/>
     <use style="fill:#1f77b4;stroke:#1f77b4;" x="259.791368" xlink:href="#mdd18591a90" y="108.340904"/>
     <use style="fill:#1f77b4;stroke:#1f77b4;" x="262.670795" xlink:href="#mdd18591a90" y="106.336488"/>
     <use style="fill:#1f77b4;stroke:#1f77b4;" x="265.275553" xlink:href="#mdd18591a90" y="101.588818"/>
     <use style="fill:#1f77b4;stroke:#1f77b4;" x="267.653512" xlink:href="#mdd18591a90" y="100.631609"/>
     <use style="fill:#1f77b4;stroke:#1f77b4;" x="269.841021" xlink:href="#mdd18591a90" y="95.981139"/>
     <use style="fill:#1f77b4;stroke:#1f77b4;" x="271.866339" xlink:href="#mdd18591a90" y="94.28145"/>
     <use style="fill:#1f77b4;stroke:#1f77b4;" x="273.751864" xlink:href="#mdd18591a90" y="91.395629"/>
     <use style="fill:#1f77b4;stroke:#1f77b4;" x="275.515656" xlink:href="#mdd18591a90" y="89.544977"/>
     <use style="fill:#1f77b4;stroke:#1f77b4;" x="277.172483" xlink:href="#mdd18591a90" y="88.082706"/>
     <use style="fill:#1f77b4;stroke:#1f77b4;" x="278.734581" xlink:href="#mdd18591a90" y="87.64804"/>
     <use style="fill:#1f77b4;stroke:#1f77b4;" x="280.2122" xlink:href="#mdd18591a90" y="86.386018"/>
     <use style="fill:#1f77b4;stroke:#1f77b4;" x="281.614008" xlink:href="#mdd18591a90" y="86.329765"/>
    </g>
   </g>
   <g id="line2d_21">
    <defs>
     <path d="M 0 1.5 
C 0.397805 1.5 0.77937 1.341951 1.06066 1.06066 
C 1.341951 0.77937 1.5 0.397805 1.5 0 
C 1.5 -0.397805 1.341951 -0.77937 1.06066 -1.06066 
C 0.77937 -1.341951 0.397805 -1.5 0 -1.5 
C -0.397805 -1.5 -0.77937 -1.341951 -1.06066 -1.06066 
C -1.341951 -0.77937 -1.5 -0.397805 -1.5 0 
C -1.5 0.397805 -1.341951 0.77937 -1.06066 1.06066 
C -0.77937 1.341951 -0.397805 1.5 0 1.5 
z
" id="m74c860624e" style="stroke:#1f77b4;"/>
    </defs>
    <g clip-path="url(#pddc250c5e6)">
     <use style="fill:#add8e6;stroke:#1f77b4;" x="199.742802" xlink:href="#m74c860624e" y="131.447312"/>
     <use style="fill:#add8e6;stroke:#1f77b4;" x="218.686015" xlink:href="#m74c860624e" y="129.386575"/>
     <use style="fill:#add8e6;stroke:#1f77b4;" x="229.767085" xlink:href="#m74c860624e" y="126.914071"/>
     <use style="fill:#add8e6;stroke:#1f77b4;" x="237.629229" xlink:href="#m74c860624e" y="124.329675"/>
     <use style="fill:#add8e6;stroke:#1f77b4;" x="243.727581" xlink:href="#m74c860624e" y="121.580787"/>
     <use style="fill:#add8e6;stroke:#1f77b4;" x="248.710298" xlink:href="#m74c860624e" y="118.854273"/>
     <use style="fill:#add8e6;stroke:#1f77b4;" x="252.923125" xlink:href="#m74c860624e" y="116.400222"/>
     <use style="fill:#add8e6;stroke:#1f77b4;" x="256.572442" xlink:href="#m74c860624e" y="114.059624"/>
     <use style="fill:#add8e6;stroke:#1f77b4;" x="259.791368" xlink:href="#m74c860624e" y="112.151798"/>
     <use style="fill:#add8e6;stroke:#1f77b4;" x="262.670795" xlink:href="#m74c860624e" y="110.975793"/>
     <use style="fill:#add8e6;stroke:#1f77b4;" x="265.275553" xlink:href="#m74c860624e" y="106.230162"/>
     <use style="fill:#add8e6;stroke:#1f77b4;" x="267.653512" xlink:href="#m74c860624e" y="105.800771"/>
     <use style="fill:#add8e6;stroke:#1f77b4;" x="269.841021" xlink:href="#m74c860624e" y="101.443554"/>
     <use style="fill:#add8e6;stroke:#1f77b4;" x="271.866339" xlink:href="#m74c860624e" y="100.166388"/>
     <use style="fill:#add8e6;stroke:#1f77b4;" x="273.751864" xlink:href="#m74c860624e" y="97.707577"/>
     <use style="fill:#add8e6;stroke:#1f77b4;" x="275.515656" xlink:href="#m74c860624e" y="96.315885"/>
     <use style="fill:#add8e6;stroke:#1f77b4;" x="277.172483" xlink:href="#m74c860624e" y="95.289659"/>
     <use style="fill:#add8e6;stroke:#1f77b4;" x="278.734581" xlink:href="#m74c860624e" y="95.240473"/>
     <use style="fill:#add8e6;stroke:#1f77b4;" x="280.2122" xlink:href="#m74c860624e" y="94.39063"/>
     <use style="fill:#add8e6;stroke:#1f77b4;" x="281.614008" xlink:href="#m74c860624e" y="94.753914"/>
    </g>
   </g>
   <g id="patch_8">
    <path d="M 195.649241 134.145951 
L 195.649241 84.052804 
" style="fill:none;stroke:#000000;stroke-linecap:square;stroke-linejoin:miter;stroke-width:0.8;"/>
   </g>
   <g id="patch_9">
    <path d="M 285.707569 134.145951 
L 285.707569 84.052804 
" style="fill:none;stroke:#000000;stroke-linecap:square;stroke-linejoin:miter;stroke-width:0.8;"/>
   </g>
   <g id="patch_10">
    <path d="M 195.649241 134.145951 
L 285.707569 134.145951 
" style="fill:none;stroke:#000000;stroke-linecap:square;stroke-linejoin:miter;stroke-width:0.8;"/>
   </g>
   <g id="patch_11">
    <path d="M 195.649241 84.052804 
L 285.707569 84.052804 
" style="fill:none;stroke:#000000;stroke-linecap:square;stroke-linejoin:miter;stroke-width:0.8;"/>
   </g>
   <g id="line2d_22">
    <path clip-path="url(#pddc250c5e6)" d="M 248.710298 119.584165 
L 281.614008 92.142437 
L 281.614008 92.142437 
" style="fill:none;stroke:#ff7f0e;stroke-linecap:square;stroke-width:1.5;"/>
   </g>
  </g>
 </g>
 <defs>
  <clipPath id="p9739413e2a">
   <rect height="155.639203" width="258.500754" x="29.208111" y="9.840733"/>
  </clipPath>
  <clipPath id="pddc250c5e6">
   <rect height="50.093148" width="90.058327" x="195.649241" y="84.052804"/>
  </clipPath>
 </defs>
</svg>
