<?xml version="1.0" encoding="utf-8" standalone="no"?>
<!DOCTYPE svg PUBLIC "-//W3C//DTD SVG 1.1//EN"
  "http://www.w3.org/Graphics/SVG/1.1/DTD/svg11.dtd">
<!-- Created with matplotlib (https://matplotlib.org/) -->
<svg height="192.321655pt" version="1.1" viewBox="0 0 306.488103 192.321655" width="306.488103pt" xmlns="http://www.w3.org/2000/svg" xmlns:xlink="http://www.w3.org/1999/xlink">
 <metadata>
  <rdf:RDF xmlns:cc="http://creativecommons.org/ns#" xmlns:dc="http://purl.org/dc/elements/1.1/" xmlns:rdf="http://www.w3.org/1999/02/22-rdf-syntax-ns#">
   <cc:Work>
    <dc:type rdf:resource="http://purl.org/dc/dcmitype/StillImage"/>
    <dc:date>2022-07-10T21:24:47.088841</dc:date>
    <dc:format>image/svg+xml</dc:format>
    <dc:creator>
     <cc:Agent>
      <dc:title>Matplotlib v3.3.2, https://matplotlib.org/</dc:title>
     </cc:Agent>
    </dc:creator>
   </cc:Work>
  </rdf:RDF>
 </metadata>
 <defs>
  <style type="text/css">*{stroke-linecap:butt;stroke-linejoin:round;}</style>
 </defs>
 <g id="figure_1">
  <g id="patch_1">
   <path d="M -0 192.321655 
L 306.488103 192.321655 
L 306.488103 0 
L -0 0 
z
" style="fill:none;"/>
  </g>
  <g id="axes_1">
   <g id="patch_2">
    <path d="M 44.387349 159.239203 
L 302.888103 159.239203 
L 302.888103 3.6 
L 44.387349 3.6 
z
" style="fill:none;"/>
   </g>
   <g id="line2d_1">
    <path clip-path="url(#pdddb9816e9)" style="fill:none;stroke:#888888;stroke-linecap:square;stroke-width:1.5;"/>
   </g>
   <g id="line2d_2">
    <path clip-path="url(#pdddb9816e9)" style="fill:none;stroke:#888888;stroke-linecap:square;stroke-width:1.5;"/>
   </g>
   <g id="line2d_3">
    <path clip-path="url(#pdddb9816e9)" style="fill:none;stroke:#888888;stroke-linecap:square;stroke-width:1.5;"/>
   </g>
   <g id="line2d_4">
    <path clip-path="url(#pdddb9816e9)" d="M 110.8087 62.027476 
L 220.777824 137.413429 
L 220.777824 137.413429 
" style="fill:none;stroke:#ffa0a0;stroke-linecap:square;stroke-width:1.5;"/>
   </g>
   <g id="line2d_5">
    <path clip-path="url(#pdddb9816e9)" d="M 147.465074 86.839134 
L 294.090573 137.394619 
L 294.090573 137.394619 
" style="fill:none;stroke:#1e90ff;stroke-linecap:square;stroke-width:1.5;"/>
   </g>
   <g id="line2d_6">
    <path clip-path="url(#pdddb9816e9)" d="M 147.465074 78.547576 
L 294.090573 110.311801 
L 294.090573 110.311801 
" style="fill:none;stroke:#3cb371;stroke-linecap:square;stroke-width:1.5;"/>
   </g>
   <g id="LineCollection_1">
    <path clip-path="url(#pdddb9816e9)" d="M 44.827225 10.681997 
L 44.827225 10.674509 
" style="fill:none;stroke:#ffa0a0;stroke-width:1.5;"/>
    <path clip-path="url(#pdddb9816e9)" d="M 52.1585 16.483783 
L 52.1585 16.473856 
" style="fill:none;stroke:#ffa0a0;stroke-width:1.5;"/>
    <path clip-path="url(#pdddb9816e9)" d="M 59.489775 22.52427 
L 59.489775 22.498897 
" style="fill:none;stroke:#ffa0a0;stroke-width:1.5;"/>
    <path clip-path="url(#pdddb9816e9)" d="M 66.82105 28.624444 
L 66.82105 28.568813 
" style="fill:none;stroke:#ffa0a0;stroke-width:1.5;"/>
    <path clip-path="url(#pdddb9816e9)" d="M 74.152325 34.58329 
L 74.152325 34.55139 
" style="fill:none;stroke:#ffa0a0;stroke-width:1.5;"/>
    <path clip-path="url(#pdddb9816e9)" d="M 85.149238 43.27324 
L 85.149238 43.204667 
" style="fill:none;stroke:#ffa0a0;stroke-width:1.5;"/>
    <path clip-path="url(#pdddb9816e9)" d="M 96.14615 51.642218 
L 96.14615 51.550885 
" style="fill:none;stroke:#ffa0a0;stroke-width:1.5;"/>
    <path clip-path="url(#pdddb9816e9)" d="M 110.8087 62.144681 
L 110.8087 61.9635 
" style="fill:none;stroke:#ffa0a0;stroke-width:1.5;"/>
    <path clip-path="url(#pdddb9816e9)" d="M 129.136887 74.541695 
L 129.136887 74.142703 
" style="fill:none;stroke:#ffa0a0;stroke-width:1.5;"/>
    <path clip-path="url(#pdddb9816e9)" d="M 147.465074 88.183667 
L 147.465074 87.273624 
" style="fill:none;stroke:#ffa0a0;stroke-width:1.5;"/>
    <path clip-path="url(#pdddb9816e9)" d="M 184.121449 114.571149 
L 184.121449 110.134305 
" style="fill:none;stroke:#ffa0a0;stroke-width:1.5;"/>
    <path clip-path="url(#pdddb9816e9)" d="M 220.777824 193.321655 
L 220.777824 136.057322 
" style="fill:none;stroke:#ffa0a0;stroke-width:1.5;"/>
    <path clip-path="url(#pdddb9816e9)" d="M 257.434198 193.321655 
L 257.434198 134.288018 
" style="fill:none;stroke:#ffa0a0;stroke-width:1.5;"/>
    <path clip-path="url(#pdddb9816e9)" d="M 294.090573 193.321655 
L 294.090573 134.717745 
" style="fill:none;stroke:#ffa0a0;stroke-width:1.5;"/>
   </g>
   <g id="line2d_7">
    <defs>
     <path d="M 5 0 
L -5 -0 
" id="mf4b2751623" style="stroke:#ffa0a0;"/>
    </defs>
    <g clip-path="url(#pdddb9816e9)">
     <use style="fill:#ffa0a0;stroke:#ffa0a0;" x="44.827225" xlink:href="#mf4b2751623" y="10.681997"/>
     <use style="fill:#ffa0a0;stroke:#ffa0a0;" x="52.1585" xlink:href="#mf4b2751623" y="16.483783"/>
     <use style="fill:#ffa0a0;stroke:#ffa0a0;" x="59.489775" xlink:href="#mf4b2751623" y="22.52427"/>
     <use style="fill:#ffa0a0;stroke:#ffa0a0;" x="66.82105" xlink:href="#mf4b2751623" y="28.624444"/>
     <use style="fill:#ffa0a0;stroke:#ffa0a0;" x="74.152325" xlink:href="#mf4b2751623" y="34.58329"/>
     <use style="fill:#ffa0a0;stroke:#ffa0a0;" x="85.149238" xlink:href="#mf4b2751623" y="43.27324"/>
     <use style="fill:#ffa0a0;stroke:#ffa0a0;" x="96.14615" xlink:href="#mf4b2751623" y="51.642218"/>
     <use style="fill:#ffa0a0;stroke:#ffa0a0;" x="110.8087" xlink:href="#mf4b2751623" y="62.144681"/>
     <use style="fill:#ffa0a0;stroke:#ffa0a0;" x="129.136887" xlink:href="#mf4b2751623" y="74.541695"/>
     <use style="fill:#ffa0a0;stroke:#ffa0a0;" x="147.465074" xlink:href="#mf4b2751623" y="88.183667"/>
     <use style="fill:#ffa0a0;stroke:#ffa0a0;" x="184.121449" xlink:href="#mf4b2751623" y="114.571149"/>
     <use style="fill:#ffa0a0;stroke:#ffa0a0;" x="197.220276" xlink:href="#mf4b2751623" y="13848.159194"/>
    </g>
   </g>
   <g id="line2d_8">
    <g clip-path="url(#pdddb9816e9)">
     <use style="fill:#ffa0a0;stroke:#ffa0a0;" x="44.827225" xlink:href="#mf4b2751623" y="10.674509"/>
     <use style="fill:#ffa0a0;stroke:#ffa0a0;" x="52.1585" xlink:href="#mf4b2751623" y="16.473856"/>
     <use style="fill:#ffa0a0;stroke:#ffa0a0;" x="59.489775" xlink:href="#mf4b2751623" y="22.498897"/>
     <use style="fill:#ffa0a0;stroke:#ffa0a0;" x="66.82105" xlink:href="#mf4b2751623" y="28.568813"/>
     <use style="fill:#ffa0a0;stroke:#ffa0a0;" x="74.152325" xlink:href="#mf4b2751623" y="34.55139"/>
     <use style="fill:#ffa0a0;stroke:#ffa0a0;" x="85.149238" xlink:href="#mf4b2751623" y="43.204667"/>
     <use style="fill:#ffa0a0;stroke:#ffa0a0;" x="96.14615" xlink:href="#mf4b2751623" y="51.550885"/>
     <use style="fill:#ffa0a0;stroke:#ffa0a0;" x="110.8087" xlink:href="#mf4b2751623" y="61.9635"/>
     <use style="fill:#ffa0a0;stroke:#ffa0a0;" x="129.136887" xlink:href="#mf4b2751623" y="74.142703"/>
     <use style="fill:#ffa0a0;stroke:#ffa0a0;" x="147.465074" xlink:href="#mf4b2751623" y="87.273624"/>
     <use style="fill:#ffa0a0;stroke:#ffa0a0;" x="184.121449" xlink:href="#mf4b2751623" y="110.134305"/>
     <use style="fill:#ffa0a0;stroke:#ffa0a0;" x="220.777824" xlink:href="#mf4b2751623" y="136.057322"/>
     <use style="fill:#ffa0a0;stroke:#ffa0a0;" x="257.434198" xlink:href="#mf4b2751623" y="134.288018"/>
     <use style="fill:#ffa0a0;stroke:#ffa0a0;" x="294.090573" xlink:href="#mf4b2751623" y="134.717745"/>
    </g>
   </g>
   <g id="line2d_9">
    <defs>
     <path d="M -3 3 
L 3 3 
L 3 -3 
L -3 -3 
z
" id="mdd8665f065" style="stroke:#ffa0a0;stroke-linejoin:miter;"/>
    </defs>
    <g clip-path="url(#pdddb9816e9)">
     <use style="fill:#ffeded;stroke:#ffa0a0;stroke-linejoin:miter;" x="44.827225" xlink:href="#mdd8665f065" y="10.678253"/>
     <use style="fill:#ffeded;stroke:#ffa0a0;stroke-linejoin:miter;" x="52.1585" xlink:href="#mdd8665f065" y="16.478819"/>
     <use style="fill:#ffeded;stroke:#ffa0a0;stroke-linejoin:miter;" x="59.489775" xlink:href="#mdd8665f065" y="22.511579"/>
     <use style="fill:#ffeded;stroke:#ffa0a0;stroke-linejoin:miter;" x="66.82105" xlink:href="#mdd8665f065" y="28.596605"/>
     <use style="fill:#ffeded;stroke:#ffa0a0;stroke-linejoin:miter;" x="74.152325" xlink:href="#mdd8665f065" y="34.567332"/>
     <use style="fill:#ffeded;stroke:#ffa0a0;stroke-linejoin:miter;" x="85.149238" xlink:href="#mdd8665f065" y="43.238919"/>
     <use style="fill:#ffeded;stroke:#ffa0a0;stroke-linejoin:miter;" x="96.14615" xlink:href="#mdd8665f065" y="51.596489"/>
     <use style="fill:#ffeded;stroke:#ffa0a0;stroke-linejoin:miter;" x="110.8087" xlink:href="#mdd8665f065" y="62.053845"/>
     <use style="fill:#ffeded;stroke:#ffa0a0;stroke-linejoin:miter;" x="129.136887" xlink:href="#mdd8665f065" y="74.341009"/>
     <use style="fill:#ffeded;stroke:#ffa0a0;stroke-linejoin:miter;" x="147.465074" xlink:href="#mdd8665f065" y="87.722459"/>
     <use style="fill:#ffeded;stroke:#ffa0a0;stroke-linejoin:miter;" x="184.121449" xlink:href="#mdd8665f065" y="112.206074"/>
     <use style="fill:#ffeded;stroke:#ffa0a0;stroke-linejoin:miter;" x="220.777824" xlink:href="#mdd8665f065" y="152.164694"/>
     <use style="fill:#ffeded;stroke:#ffa0a0;stroke-linejoin:miter;" x="257.434198" xlink:href="#mdd8665f065" y="151.296724"/>
     <use style="fill:#ffeded;stroke:#ffa0a0;stroke-linejoin:miter;" x="294.090573" xlink:href="#mdd8665f065" y="151.4786"/>
    </g>
   </g>
   <g id="matplotlib.axis_1">
    <g id="xtick_1">
     <g id="line2d_10">
      <defs>
       <path d="M 0 0 
L 0 -6 
" id="mcea0f1474f" style="stroke:#000000;stroke-width:0.8;"/>
      </defs>
      <g>
       <use style="stroke:#000000;stroke-width:0.8;" x="74.152325" xlink:href="#mcea0f1474f" y="159.239203"/>
      </g>
     </g>
     <g id="text_1">
      <!-- $\mathdefault{1.0}$ -->
      <g transform="translate(67.787286 172.157702)scale(0.1 -0.1)">
       <defs>
        <path d="M 26.59375 63.796875 
C 26.59375 65.890625 26.5 66 25.09375 66 
C 21.203125 61.359375 15.296875 59.890625 9.703125 59.6875 
C 9.40625 59.6875 8.90625 59.6875 8.796875 59.5 
C 8.703125 59.296875 8.703125 59.09375 8.703125 57 
C 11.796875 57 17 57.59375 21 59.984375 
L 21 7.296875 
C 21 3.796875 20.796875 2.59375 12.203125 2.59375 
L 9.203125 2.59375 
L 9.203125 0 
C 14 0.09375 19 0.1875 23.796875 0.1875 
C 28.59375 0.1875 33.59375 0.09375 38.40625 0 
L 38.40625 2.59375 
L 35.40625 2.59375 
C 26.796875 2.59375 26.59375 3.6875 26.59375 7.296875 
z
" id="CMR17-49"/>
        <path d="M 18.40625 4.796875 
C 18.40625 7.6875 16 9.6875 13.59375 9.6875 
C 10.703125 9.6875 8.703125 7.296875 8.703125 4.890625 
C 8.703125 2 11.09375 0 13.5 0 
C 16.40625 0 18.40625 2.390625 18.40625 4.796875 
z
" id="CMMI12-58"/>
        <path d="M 42 31.84375 
C 42 37.96875 41.90625 48.421875 37.703125 56.453125 
C 34 63.484375 28.09375 66 22.90625 66 
C 18.09375 66 12 63.78125 8.203125 56.5625 
C 4.203125 49.015625 3.796875 39.671875 3.796875 31.84375 
C 3.796875 26.109375 3.90625 17.375 7 9.734375 
C 11.296875 -0.609375 19 -2 22.90625 -2 
C 27.5 -2 34.5 -0.109375 38.59375 9.4375 
C 41.59375 16.375 42 24.5 42 31.84375 
z
M 22.90625 -0.40625 
C 16.5 -0.40625 12.703125 5.125 11.296875 12.75 
C 10.203125 18.6875 10.203125 27.328125 10.203125 32.953125 
C 10.203125 40.6875 10.203125 47.109375 11.5 53.234375 
C 13.40625 61.78125 19 64.390625 22.90625 64.390625 
C 27 64.390625 32.296875 61.671875 34.203125 53.4375 
C 35.5 47.71875 35.59375 40.984375 35.59375 32.953125 
C 35.59375 26.421875 35.59375 18.375 34.40625 12.453125 
C 32.296875 1.5 26.40625 -0.40625 22.90625 -0.40625 
z
" id="CMR17-48"/>
       </defs>
       <use transform="scale(0.996264)" xlink:href="#CMR17-49"/>
       <use transform="translate(45.690477 0)scale(0.996264)" xlink:href="#CMMI12-58"/>
       <use transform="translate(72.787654 0)scale(0.996264)" xlink:href="#CMR17-48"/>
      </g>
     </g>
    </g>
    <g id="xtick_2">
     <g id="line2d_11">
      <g>
       <use style="stroke:#000000;stroke-width:0.8;" x="110.8087" xlink:href="#mcea0f1474f" y="159.239203"/>
      </g>
     </g>
     <g id="text_2">
      <!-- $\mathdefault{1.5}$ -->
      <g transform="translate(104.44366 172.157702)scale(0.1 -0.1)">
       <defs>
        <path d="M 11.40625 58.59375 
C 12.40625 58.1875 16.5 56.890625 20.703125 56.890625 
C 30 56.890625 35.09375 61.890625 38 64.6875 
C 38 65.484375 38 66 37.40625 66 
C 37.296875 66 37.09375 66 36.296875 65.59375 
C 32.796875 64.09375 28.703125 63 23.703125 63 
C 20.703125 63 16.203125 63.359375 11.296875 65.484375 
C 10.203125 66 10 66 9.90625 66 
C 9.40625 66 9.296875 65.890625 9.296875 63.90625 
L 9.296875 34.859375 
C 9.296875 33.015625 9.296875 32.5 10.296875 32.5 
C 10.796875 32.5 11 32.703125 11.5 33.421875 
C 14.703125 38.046875 19.09375 40 24.09375 40 
C 27.59375 40 35.09375 37.734375 35.09375 20.203125 
C 35.09375 16.984375 35.09375 11.1875 32.09375 6.59375 
C 29.59375 2.484375 25.703125 0.390625 21.40625 0.390625 
C 14.796875 0.390625 8.09375 4.984375 6.296875 12.6875 
C 6.703125 12.59375 7.5 12.390625 7.90625 12.390625 
C 9.203125 12.390625 11.703125 13.09375 11.703125 16.1875 
C 11.703125 18.890625 9.796875 20 7.90625 20 
C 5.59375 20 4.09375 18.59375 4.09375 15.796875 
C 4.09375 7.09375 11 -2 21.59375 -2 
C 31.90625 -2 41.703125 6.890625 41.703125 19.796875 
C 41.703125 32.09375 33.90625 41.59375 24.203125 41.59375 
C 19.09375 41.59375 14.796875 39.6875 11.40625 36 
z
" id="CMR17-53"/>
       </defs>
       <use transform="scale(0.996264)" xlink:href="#CMR17-49"/>
       <use transform="translate(45.690477 0)scale(0.996264)" xlink:href="#CMMI12-58"/>
       <use transform="translate(72.787654 0)scale(0.996264)" xlink:href="#CMR17-53"/>
      </g>
     </g>
    </g>
    <g id="xtick_3">
     <g id="line2d_12">
      <g>
       <use style="stroke:#000000;stroke-width:0.8;" x="147.465074" xlink:href="#mcea0f1474f" y="159.239203"/>
      </g>
     </g>
     <g id="text_3">
      <!-- $\mathdefault{2.0}$ -->
      <g transform="translate(141.100035 172.157702)scale(0.1 -0.1)">
       <defs>
        <path d="M 41.703125 15.46875 
L 39.90625 15.46875 
C 38.90625 8.390625 38.09375 7.1875 37.703125 6.59375 
C 37.203125 5.796875 30 5.796875 28.59375 5.796875 
L 9.40625 5.796875 
C 13 9.6875 20 16.765625 28.5 24.9375 
C 34.59375 30.71875 41.703125 37.5 41.703125 47.390625 
C 41.703125 59.1875 32.296875 66 21.796875 66 
C 10.796875 66 4.09375 56.296875 4.09375 47.296875 
C 4.09375 43.390625 7 42.890625 8.203125 42.890625 
C 9.203125 42.890625 12.203125 43.484375 12.203125 46.984375 
C 12.203125 50.09375 9.59375 51 8.203125 51 
C 7.59375 51 7 50.890625 6.59375 50.6875 
C 8.5 59.1875 14.296875 63.390625 20.40625 63.390625 
C 29.09375 63.390625 34.796875 56.5 34.796875 47.390625 
C 34.796875 38.703125 29.703125 31.21875 24 24.734375 
L 4.09375 2.296875 
L 4.09375 0 
L 39.296875 0 
z
" id="CMR17-50"/>
       </defs>
       <use transform="scale(0.996264)" xlink:href="#CMR17-50"/>
       <use transform="translate(45.690477 0)scale(0.996264)" xlink:href="#CMMI12-58"/>
       <use transform="translate(72.787654 0)scale(0.996264)" xlink:href="#CMR17-48"/>
      </g>
     </g>
    </g>
    <g id="xtick_4">
     <g id="line2d_13">
      <g>
       <use style="stroke:#000000;stroke-width:0.8;" x="184.121449" xlink:href="#mcea0f1474f" y="159.239203"/>
      </g>
     </g>
     <g id="text_4">
      <!-- $\mathdefault{2.5}$ -->
      <g transform="translate(177.75641 172.157702)scale(0.1 -0.1)">
       <use transform="scale(0.996264)" xlink:href="#CMR17-50"/>
       <use transform="translate(45.690477 0)scale(0.996264)" xlink:href="#CMMI12-58"/>
       <use transform="translate(72.787654 0)scale(0.996264)" xlink:href="#CMR17-53"/>
      </g>
     </g>
    </g>
    <g id="xtick_5">
     <g id="line2d_14">
      <g>
       <use style="stroke:#000000;stroke-width:0.8;" x="220.777824" xlink:href="#mcea0f1474f" y="159.239203"/>
      </g>
     </g>
     <g id="text_5">
      <!-- $\mathdefault{3.0}$ -->
      <g transform="translate(214.412784 172.157702)scale(0.1 -0.1)">
       <defs>
        <path d="M 22.09375 34 
C 31 34 34.90625 26.140625 34.90625 17.09375 
C 34.90625 5.03125 28.5 0.390625 22.703125 0.390625 
C 17.40625 0.390625 8.796875 3.015625 6.09375 10.796875 
C 6.59375 10.59375 7.09375 10.59375 7.59375 10.59375 
C 10 10.59375 11.796875 12.1875 11.796875 14.796875 
C 11.796875 17.6875 9.59375 19 7.59375 19 
C 5.90625 19 3.296875 18.1875 3.296875 14.484375 
C 3.296875 5.234375 12.296875 -2 22.90625 -2 
C 34 -2 42.5 6.75 42.5 16.984375 
C 42.5 26.84375 34.5 34 25 35.09375 
C 32.59375 36.671875 39.90625 43.375 39.90625 52.390625 
C 39.90625 60.25 32 66 23 66 
C 13.90625 66 5.90625 60.34375 5.90625 52.296875 
C 5.90625 48.796875 8.5 48.1875 9.796875 48.1875 
C 11.90625 48.1875 13.703125 49.484375 13.703125 52.09375 
C 13.703125 54.6875 11.90625 56 9.796875 56 
C 9.40625 56 8.90625 56 8.5 55.796875 
C 11.40625 62.484375 19.296875 63.6875 22.796875 63.6875 
C 26.296875 63.6875 32.90625 61.96875 32.90625 52.296875 
C 32.90625 49.484375 32.5 44.546875 29.09375 40.21875 
C 26.09375 36.390625 22.703125 36.1875 19.40625 35.890625 
C 18.90625 35.890625 16.59375 35.6875 16.203125 35.6875 
C 15.5 35.59375 15.09375 35.5 15.09375 34.796875 
C 15.09375 34.09375 15.203125 34 17.203125 34 
z
" id="CMR17-51"/>
       </defs>
       <use transform="scale(0.996264)" xlink:href="#CMR17-51"/>
       <use transform="translate(45.690477 0)scale(0.996264)" xlink:href="#CMMI12-58"/>
       <use transform="translate(72.787654 0)scale(0.996264)" xlink:href="#CMR17-48"/>
      </g>
     </g>
    </g>
    <g id="xtick_6">
     <g id="line2d_15">
      <g>
       <use style="stroke:#000000;stroke-width:0.8;" x="257.434198" xlink:href="#mcea0f1474f" y="159.239203"/>
      </g>
     </g>
     <g id="text_6">
      <!-- $\mathdefault{3.5}$ -->
      <g transform="translate(251.069159 172.157702)scale(0.1 -0.1)">
       <use transform="scale(0.996264)" xlink:href="#CMR17-51"/>
       <use transform="translate(45.690477 0)scale(0.996264)" xlink:href="#CMMI12-58"/>
       <use transform="translate(72.787654 0)scale(0.996264)" xlink:href="#CMR17-53"/>
      </g>
     </g>
    </g>
    <g id="xtick_7">
     <g id="line2d_16">
      <g>
       <use style="stroke:#000000;stroke-width:0.8;" x="294.090573" xlink:href="#mcea0f1474f" y="159.239203"/>
      </g>
     </g>
     <g id="text_7">
      <!-- $\mathdefault{4.0}$ -->
      <g transform="translate(287.725534 172.157702)scale(0.1 -0.1)">
       <defs>
        <path d="M 33.59375 64.796875 
C 33.59375 66.890625 33.5 67 31.703125 67 
L 2 19.59375 
L 2 17 
L 27.796875 17 
L 27.796875 7.1875 
C 27.796875 3.59375 27.59375 2.59375 20.59375 2.59375 
L 18.703125 2.59375 
L 18.703125 0 
C 21.90625 0.1875 27.296875 0.1875 30.703125 0.1875 
C 34.09375 0.1875 39.5 0.1875 42.703125 0 
L 42.703125 2.59375 
L 40.796875 2.59375 
C 33.796875 2.59375 33.59375 3.59375 33.59375 7.1875 
L 33.59375 17 
L 43.796875 17 
L 43.796875 19.59375 
L 33.59375 19.59375 
z
M 28.09375 58.171875 
L 28.09375 19.59375 
L 4 19.59375 
z
" id="CMR17-52"/>
       </defs>
       <use transform="scale(0.996264)" xlink:href="#CMR17-52"/>
       <use transform="translate(45.690477 0)scale(0.996264)" xlink:href="#CMMI12-58"/>
       <use transform="translate(72.787654 0)scale(0.996264)" xlink:href="#CMR17-48"/>
      </g>
     </g>
    </g>
    <g id="text_8">
     <!-- $\beta$ -->
     <g transform="translate(170.333482 186.39706)scale(0.12 -0.12)">
      <defs>
       <path d="M 56.59375 58.421875 
C 56.59375 64.546875 51.5 71 42.40625 71 
C 29.5 71 21.296875 54.84375 18.703125 44.21875 
L 2.90625 -18 
C 2.703125 -18.8125 3.296875 -19 3.796875 -19 
C 4.5 -19 5 -18.90625 5.09375 -18.40625 
L 12.09375 9.25 
C 13.09375 3.609375 18.59375 -1 24.5 -1 
C 38.796875 -1 52.296875 10.265625 52.296875 25.28125 
C 52.296875 29.109375 51.40625 32.9375 49.296875 36.15625 
C 48.09375 38.078125 46.59375 39.484375 45 40.609375 
C 52.203125 44.109375 56.59375 50.34375 56.59375 58.421875 
z
M 39.203125 40.703125 
C 37.59375 40.171875 36 40 34.09375 40 
C 32.703125 40 31.40625 39.890625 29.59375 40.4375 
C 30.59375 41.046875 32.09375 41.234375 34.203125 41.234375 
C 36 41.234375 37.796875 41.046875 39.203125 40.703125 
z
M 51.40625 59.34375 
C 51.40625 53.71875 48.703125 45.546875 42.203125 41.9375 
C 40.296875 42.546875 37.703125 43 35.5 43 
C 33.40625 43 27.40625 43.203125 27.40625 40.34375 
C 27.40625 37.671875 32.90625 37.96875 34.59375 37.96875 
C 37.203125 37.96875 39.5 38.578125 41.90625 39.28125 
C 45.09375 36.671875 46.5 33.234375 46.5 28.203125 
C 46.5 22.359375 44.90625 17.625 43 13.28125 
C 39.703125 5.828125 31.90625 1 25 1 
C 17.703125 1 13.90625 6.84375 13.90625 13.6875 
C 13.90625 14.59375 13.90625 15.90625 14.296875 17.421875 
L 20.796875 43.5 
C 24.09375 56.890625 32.5 68.953125 42.203125 68.953125 
C 49.40625 68.953125 51.40625 63.84375 51.40625 59.34375 
z
" id="CMMI12-12"/>
      </defs>
      <use transform="scale(0.996264)" xlink:href="#CMMI12-12"/>
     </g>
    </g>
   </g>
   <g id="matplotlib.axis_2">
    <g id="ytick_1">
     <g id="line2d_17">
      <defs>
       <path d="M 0 0 
L 6 0 
" id="m450d554ed6" style="stroke:#000000;stroke-width:0.8;"/>
      </defs>
      <g>
       <use style="stroke:#000000;stroke-width:0.8;" x="44.387349" xlink:href="#m450d554ed6" y="140.304601"/>
      </g>
     </g>
     <g id="text_9">
      <!-- $\mathdefault{10^{-3}}$ -->
      <g transform="translate(18.226776 143.76385)scale(0.1 -0.1)">
       <defs>
        <path d="M 65.90625 23 
C 67.59375 23 69.40625 23 69.40625 25 
C 69.40625 27 67.59375 27 65.90625 27 
L 11.796875 27 
C 10.09375 27 8.296875 27 8.296875 25 
C 8.296875 23 10.09375 23 11.796875 23 
z
" id="CMSY10-0"/>
       </defs>
       <use transform="scale(0.996264)" xlink:href="#CMR17-49"/>
       <use transform="translate(45.690477 0)scale(0.996264)" xlink:href="#CMR17-48"/>
       <use transform="translate(91.380954 36.153639)scale(0.697382)" xlink:href="#CMSY10-0"/>
       <use transform="translate(145.621947 36.153639)scale(0.697382)" xlink:href="#CMR17-51"/>
      </g>
     </g>
    </g>
    <g id="ytick_2">
     <g id="line2d_18">
      <g>
       <use style="stroke:#000000;stroke-width:0.8;" x="44.387349" xlink:href="#m450d554ed6" y="101.782046"/>
      </g>
     </g>
     <g id="text_10">
      <!-- $\mathdefault{10^{-2}}$ -->
      <g transform="translate(18.226776 105.241295)scale(0.1 -0.1)">
       <use transform="scale(0.996264)" xlink:href="#CMR17-49"/>
       <use transform="translate(45.690477 0)scale(0.996264)" xlink:href="#CMR17-48"/>
       <use transform="translate(91.380954 36.153639)scale(0.697382)" xlink:href="#CMSY10-0"/>
       <use transform="translate(145.621947 36.153639)scale(0.697382)" xlink:href="#CMR17-50"/>
      </g>
     </g>
    </g>
    <g id="ytick_3">
     <g id="line2d_19">
      <g>
       <use style="stroke:#000000;stroke-width:0.8;" x="44.387349" xlink:href="#m450d554ed6" y="63.259491"/>
      </g>
     </g>
     <g id="text_11">
      <!-- $\mathdefault{10^{-1}}$ -->
      <g transform="translate(18.226776 66.71874)scale(0.1 -0.1)">
       <use transform="scale(0.996264)" xlink:href="#CMR17-49"/>
       <use transform="translate(45.690477 0)scale(0.996264)" xlink:href="#CMR17-48"/>
       <use transform="translate(91.380954 36.153639)scale(0.697382)" xlink:href="#CMSY10-0"/>
       <use transform="translate(145.621947 36.153639)scale(0.697382)" xlink:href="#CMR17-49"/>
      </g>
     </g>
    </g>
    <g id="ytick_4">
     <g id="line2d_20">
      <g>
       <use style="stroke:#000000;stroke-width:0.8;" x="44.387349" xlink:href="#m450d554ed6" y="24.736936"/>
      </g>
     </g>
     <g id="text_12">
      <!-- $\mathdefault{10^{0}}$ -->
      <g transform="translate(24.453441 28.196185)scale(0.1 -0.1)">
       <use transform="scale(0.996264)" xlink:href="#CMR17-49"/>
       <use transform="translate(45.690477 0)scale(0.996264)" xlink:href="#CMR17-48"/>
       <use transform="translate(91.380954 36.153639)scale(0.697382)" xlink:href="#CMR17-48"/>
      </g>
     </g>
    </g>
    <g id="ytick_5">
     <g id="line2d_21">
      <defs>
       <path d="M 0 0 
L 4 0 
" id="meef25e8998" style="stroke:#000000;stroke-width:0.6;"/>
      </defs>
      <g>
       <use style="stroke:#000000;stroke-width:0.6;" x="44.387349" xlink:href="#meef25e8998" y="155.634267"/>
      </g>
     </g>
    </g>
    <g id="ytick_6">
     <g id="line2d_22">
      <g>
       <use style="stroke:#000000;stroke-width:0.6;" x="44.387349" xlink:href="#meef25e8998" y="151.901046"/>
      </g>
     </g>
    </g>
    <g id="ytick_7">
     <g id="line2d_23">
      <g>
       <use style="stroke:#000000;stroke-width:0.6;" x="44.387349" xlink:href="#meef25e8998" y="148.850782"/>
      </g>
     </g>
    </g>
    <g id="ytick_8">
     <g id="line2d_24">
      <g>
       <use style="stroke:#000000;stroke-width:0.6;" x="44.387349" xlink:href="#meef25e8998" y="146.271821"/>
      </g>
     </g>
    </g>
    <g id="ytick_9">
     <g id="line2d_25">
      <g>
       <use style="stroke:#000000;stroke-width:0.6;" x="44.387349" xlink:href="#meef25e8998" y="144.037823"/>
      </g>
     </g>
    </g>
    <g id="ytick_10">
     <g id="line2d_26">
      <g>
       <use style="stroke:#000000;stroke-width:0.6;" x="44.387349" xlink:href="#meef25e8998" y="142.067297"/>
      </g>
     </g>
    </g>
    <g id="ytick_11">
     <g id="line2d_27">
      <g>
       <use style="stroke:#000000;stroke-width:0.6;" x="44.387349" xlink:href="#meef25e8998" y="128.708157"/>
      </g>
     </g>
    </g>
    <g id="ytick_12">
     <g id="line2d_28">
      <g>
       <use style="stroke:#000000;stroke-width:0.6;" x="44.387349" xlink:href="#meef25e8998" y="121.924671"/>
      </g>
     </g>
    </g>
    <g id="ytick_13">
     <g id="line2d_29">
      <g>
       <use style="stroke:#000000;stroke-width:0.6;" x="44.387349" xlink:href="#meef25e8998" y="117.111712"/>
      </g>
     </g>
    </g>
    <g id="ytick_14">
     <g id="line2d_30">
      <g>
       <use style="stroke:#000000;stroke-width:0.6;" x="44.387349" xlink:href="#meef25e8998" y="113.378491"/>
      </g>
     </g>
    </g>
    <g id="ytick_15">
     <g id="line2d_31">
      <g>
       <use style="stroke:#000000;stroke-width:0.6;" x="44.387349" xlink:href="#meef25e8998" y="110.328227"/>
      </g>
     </g>
    </g>
    <g id="ytick_16">
     <g id="line2d_32">
      <g>
       <use style="stroke:#000000;stroke-width:0.6;" x="44.387349" xlink:href="#meef25e8998" y="107.749265"/>
      </g>
     </g>
    </g>
    <g id="ytick_17">
     <g id="line2d_33">
      <g>
       <use style="stroke:#000000;stroke-width:0.6;" x="44.387349" xlink:href="#meef25e8998" y="105.515267"/>
      </g>
     </g>
    </g>
    <g id="ytick_18">
     <g id="line2d_34">
      <g>
       <use style="stroke:#000000;stroke-width:0.6;" x="44.387349" xlink:href="#meef25e8998" y="103.544742"/>
      </g>
     </g>
    </g>
    <g id="ytick_19">
     <g id="line2d_35">
      <g>
       <use style="stroke:#000000;stroke-width:0.6;" x="44.387349" xlink:href="#meef25e8998" y="90.185601"/>
      </g>
     </g>
    </g>
    <g id="ytick_20">
     <g id="line2d_36">
      <g>
       <use style="stroke:#000000;stroke-width:0.6;" x="44.387349" xlink:href="#meef25e8998" y="83.402116"/>
      </g>
     </g>
    </g>
    <g id="ytick_21">
     <g id="line2d_37">
      <g>
       <use style="stroke:#000000;stroke-width:0.6;" x="44.387349" xlink:href="#meef25e8998" y="78.589157"/>
      </g>
     </g>
    </g>
    <g id="ytick_22">
     <g id="line2d_38">
      <g>
       <use style="stroke:#000000;stroke-width:0.6;" x="44.387349" xlink:href="#meef25e8998" y="74.855935"/>
      </g>
     </g>
    </g>
    <g id="ytick_23">
     <g id="line2d_39">
      <g>
       <use style="stroke:#000000;stroke-width:0.6;" x="44.387349" xlink:href="#meef25e8998" y="71.805672"/>
      </g>
     </g>
    </g>
    <g id="ytick_24">
     <g id="line2d_40">
      <g>
       <use style="stroke:#000000;stroke-width:0.6;" x="44.387349" xlink:href="#meef25e8998" y="69.22671"/>
      </g>
     </g>
    </g>
    <g id="ytick_25">
     <g id="line2d_41">
      <g>
       <use style="stroke:#000000;stroke-width:0.6;" x="44.387349" xlink:href="#meef25e8998" y="66.992712"/>
      </g>
     </g>
    </g>
    <g id="ytick_26">
     <g id="line2d_42">
      <g>
       <use style="stroke:#000000;stroke-width:0.6;" x="44.387349" xlink:href="#meef25e8998" y="65.022186"/>
      </g>
     </g>
    </g>
    <g id="ytick_27">
     <g id="line2d_43">
      <g>
       <use style="stroke:#000000;stroke-width:0.6;" x="44.387349" xlink:href="#meef25e8998" y="51.663046"/>
      </g>
     </g>
    </g>
    <g id="ytick_28">
     <g id="line2d_44">
      <g>
       <use style="stroke:#000000;stroke-width:0.6;" x="44.387349" xlink:href="#meef25e8998" y="44.879561"/>
      </g>
     </g>
    </g>
    <g id="ytick_29">
     <g id="line2d_45">
      <g>
       <use style="stroke:#000000;stroke-width:0.6;" x="44.387349" xlink:href="#meef25e8998" y="40.066602"/>
      </g>
     </g>
    </g>
    <g id="ytick_30">
     <g id="line2d_46">
      <g>
       <use style="stroke:#000000;stroke-width:0.6;" x="44.387349" xlink:href="#meef25e8998" y="36.33338"/>
      </g>
     </g>
    </g>
    <g id="ytick_31">
     <g id="line2d_47">
      <g>
       <use style="stroke:#000000;stroke-width:0.6;" x="44.387349" xlink:href="#meef25e8998" y="33.283116"/>
      </g>
     </g>
    </g>
    <g id="ytick_32">
     <g id="line2d_48">
      <g>
       <use style="stroke:#000000;stroke-width:0.6;" x="44.387349" xlink:href="#meef25e8998" y="30.704155"/>
      </g>
     </g>
    </g>
    <g id="ytick_33">
     <g id="line2d_49">
      <g>
       <use style="stroke:#000000;stroke-width:0.6;" x="44.387349" xlink:href="#meef25e8998" y="28.470157"/>
      </g>
     </g>
    </g>
    <g id="ytick_34">
     <g id="line2d_50">
      <g>
       <use style="stroke:#000000;stroke-width:0.6;" x="44.387349" xlink:href="#meef25e8998" y="26.499631"/>
      </g>
     </g>
    </g>
    <g id="ytick_35">
     <g id="line2d_51">
      <g>
       <use style="stroke:#000000;stroke-width:0.6;" x="44.387349" xlink:href="#meef25e8998" y="13.140491"/>
      </g>
     </g>
    </g>
    <g id="ytick_36">
     <g id="line2d_52">
      <g>
       <use style="stroke:#000000;stroke-width:0.6;" x="44.387349" xlink:href="#meef25e8998" y="6.357006"/>
      </g>
     </g>
    </g>
    <g id="text_13">
     <!-- $\rm{Relative} \; \rm{Error} \;  S_2 $ -->
     <g transform="translate(11.90218 124.737309)rotate(-90)scale(0.12 -0.12)">
      <defs>
       <path d="M 39.203125 33.6875 
C 48.703125 35.59375 56.703125 42.015625 56.703125 50.046875 
C 56.703125 59.46875 46.09375 68 32.09375 68 
L 5.203125 68 
L 5.203125 65.390625 
C 12.09375 65.390625 13.203125 65.390625 13.203125 60.875 
L 13.203125 6.6875 
C 13.203125 2.1875 12.09375 2.1875 5.203125 2.1875 
L 5.203125 -0.40625 
C 8.09375 -0.203125 13.296875 -0.203125 16.40625 -0.203125 
C 19.5 -0.203125 24.703125 -0.203125 27.59375 -0.40625 
L 27.59375 2.1875 
C 20.703125 2.1875 19.59375 2.1875 19.59375 6.6875 
L 19.59375 33 
L 31.296875 33 
C 37 33 40.203125 30.6875 41.59375 29.390625 
C 45.59375 25.5 45.59375 22.796875 45.59375 16 
C 45.59375 9.296875 45.59375 5.890625 48.59375 2.5 
C 52.40625 -1.609375 57.5 -2 59.703125 -2 
C 67.09375 -2 68.203125 6.296875 68.203125 8 
C 68.203125 8.59375 68.203125 9.296875 67.296875 9.296875 
C 66.5 9.296875 66.40625 8.6875 66.40625 8.296875 
C 65.90625 1.796875 63 -0.40625 59.90625 -0.40625 
C 54.40625 -0.40625 53.796875 5.890625 53.203125 12 
C 52.90625 14.09375 52.703125 15.59375 52.5 17.796875 
C 51.90625 22.796875 51.09375 30.09375 39.203125 33.6875 
z
M 31 34.59375 
L 19.59375 34.59375 
L 19.59375 61.484375 
C 19.59375 64.890625 19.796875 65.390625 23.796875 65.390625 
L 31.09375 65.390625 
C 39.40625 65.390625 49.09375 62.484375 49.09375 50.046875 
C 49.09375 37.09375 38.5 34.59375 31 34.59375 
z
" id="CMR17-82"/>
       <path d="M 38.09375 23.484375 
C 38.5 23.890625 38.5 24.09375 38.5 25.09375 
C 38.5 35.171875 33.09375 44 21.703125 44 
C 11.09375 44 2.703125 33.984375 2.703125 21.78125 
C 2.703125 8.65625 12.203125 -1 22.796875 -1 
C 34 -1 38.40625 9.671875 38.40625 11.796875 
C 38.40625 12.5 37.796875 12.5 37.59375 12.5 
C 36.90625 12.5 36.796875 12.296875 36.40625 11.078125 
C 34.203125 4.21875 28.703125 0.796875 23.5 0.796875 
C 19.203125 0.796875 14.90625 3.21875 12.203125 7.65625 
C 9.09375 12.796875 9.09375 18.75 9.09375 23.484375 
z
M 9.203125 25 
C 9.90625 39.234375 17.59375 42.390625 21.59375 42.390625 
C 28.40625 42.390625 33 36.0625 33.09375 25 
z
" id="CMR17-101"/>
       <path d="M 15.296875 69 
L 3.40625 67.890625 
L 3.40625 65.296875 
C 9.296875 65.296875 10.203125 64.703125 10.203125 59.921875 
L 10.203125 6.859375 
C 10.203125 3.09375 9.796875 2.59375 3.40625 2.59375 
L 3.40625 0 
C 5.796875 0.1875 10.203125 0.1875 12.703125 0.1875 
C 15.296875 0.1875 19.703125 0.1875 22.09375 0 
L 22.09375 2.59375 
C 15.703125 2.59375 15.296875 2.984375 15.296875 6.859375 
z
" id="CMR17-108"/>
       <path d="M 36 25.875 
C 36 32 36 35.546875 31.796875 39.59375 
C 28.09375 42.984375 23.796875 44 20.40625 44 
C 12.5 44 6.796875 37.625 6.796875 30.890625 
C 6.796875 27.1875 9.796875 27 10.40625 27 
C 11.703125 27 14 27.796875 14 30.59375 
C 14 33.09375 12.09375 34.1875 10.40625 34.1875 
C 10 34.1875 9.5 34.09375 9.203125 34 
C 11.296875 40.53125 16.703125 42.390625 20.203125 42.390625 
C 25.203125 42.390625 30.703125 37.828125 30.703125 29.296875 
L 30.703125 25.5 
C 24.796875 25.296875 17.703125 24.5 12.09375 21.453125 
C 5.796875 17.921875 4 12.84375 4 9 
C 4 1.203125 13 -1 18.296875 -1 
C 23.796875 -1 28.90625 2.109375 31.09375 7.890625 
C 31.296875 3.421875 34.09375 -0.609375 38.5 -0.609375 
C 40.59375 -0.609375 45.90625 0.796875 45.90625 8.796875 
L 45.90625 14.46875 
L 44.09375 14.46875 
L 44.09375 8.703125 
C 44.09375 2.515625 41.40625 1.703125 40.09375 1.703125 
C 36 1.703125 36 6.96875 36 11.4375 
z
M 30.703125 13.859375 
C 30.703125 5.046875 24.5 0.59375 19 0.59375 
C 14 0.59375 10.09375 4.34375 10.09375 9 
C 10.09375 12.046875 11.40625 17.40625 17.203125 20.65625 
C 22 23.390625 27.5 23.796875 30.703125 24 
z
" id="CMR17-97"/>
       <path d="M 15.09375 40.390625 
L 29.09375 40.390625 
L 29.09375 43 
L 15.09375 43 
L 15.09375 62 
L 13.296875 62 
C 13.09375 51.4375 9.59375 42.1875 1.09375 41.984375 
L 1.09375 40.390625 
L 9.796875 40.390625 
L 9.796875 12.15625 
C 9.796875 10.234375 9.796875 -1 21.40625 -1 
C 27.296875 -1 30.703125 4.8125 30.703125 12.25 
L 30.703125 17.984375 
L 28.90625 17.984375 
L 28.90625 12.34375 
C 28.90625 5.421875 26.203125 0.796875 22 0.796875 
C 19.09375 0.796875 15.09375 2.796875 15.09375 11.953125 
z
" id="CMR17-116"/>
       <path d="M 15.5 61.890625 
C 15.5 64.09375 13.703125 66 11.40625 66 
C 9.203125 66 7.296875 64.1875 7.296875 61.890625 
C 7.296875 59.6875 9.09375 57.796875 11.40625 57.796875 
C 13.59375 57.796875 15.5 59.59375 15.5 61.890625 
z
M 3.796875 42.890625 
L 3.796875 40.296875 
C 9.40625 40.296875 10.203125 39.6875 10.203125 34.859375 
L 10.203125 6.921875 
C 10.203125 3.09375 9.796875 2.59375 3.40625 2.59375 
L 3.40625 0 
C 5.796875 0.1875 10.09375 0.1875 12.59375 0.1875 
C 15 0.1875 19.09375 0.1875 21.40625 0 
L 21.40625 2.59375 
C 15.5 2.59375 15.296875 3.203125 15.296875 6.8125 
L 15.296875 44 
z
" id="CMR17-105"/>
       <path d="M 39.09375 33.953125 
C 40 36.171875 41.59375 40.1875 47.40625 40.390625 
L 47.40625 43 
C 45.5 42.890625 43 42.796875 41.09375 42.796875 
C 39 42.796875 35.703125 42.796875 33.703125 43 
L 33.703125 40.390625 
C 36.203125 40.1875 37.59375 38.984375 37.59375 36.375 
C 37.59375 35.46875 37.59375 35.265625 37 33.859375 
L 26 5.921875 
L 14.09375 36.0625 
C 13.5 37.375 13.5 37.578125 13.5 37.984375 
C 13.5 40.390625 16.796875 40.390625 18.296875 40.390625 
L 18.296875 43 
C 15.90625 42.796875 11.5 42.796875 9 42.796875 
C 6.296875 42.796875 3.203125 42.796875 1 43 
L 1 40.390625 
C 4.796875 40.390625 6.90625 40.390625 8.09375 37.28125 
L 22.59375 0.6875 
C 23.203125 -0.8125 23.296875 -1 24.203125 -1 
C 25.09375 -1 25.203125 -0.8125 25.796875 0.6875 
z
" id="CMR17-118"/>
       <path d="M 60.703125 25.21875 
L 58.90625 25.21875 
C 56.703125 10.5625 55.40625 2.59375 37.796875 2.59375 
L 23.90625 2.59375 
C 19.90625 2.59375 19.703125 3.09375 19.703125 6.484375 
L 19.703125 34 
L 29.09375 34 
C 38.5 34 39.40625 30.609375 39.40625 22.328125 
L 41.203125 22.328125 
L 41.203125 48.21875 
L 39.40625 48.21875 
C 39.40625 39.96875 38.5 36.59375 29.09375 36.59375 
L 19.703125 36.59375 
L 19.703125 61.3125 
C 19.703125 64.703125 19.90625 65.1875 23.90625 65.1875 
L 37.59375 65.1875 
C 53.09375 65.1875 54.90625 59.03125 56.296875 45.828125 
L 58.09375 45.828125 
L 55.703125 67.796875 
L 5.09375 67.796875 
L 5.09375 65.1875 
C 12 65.1875 13.09375 65.1875 13.09375 60.71875 
L 13.09375 7.078125 
C 13.09375 2.59375 12 2.59375 5.09375 2.59375 
L 5.09375 0 
L 57.09375 0 
z
" id="CMR17-69"/>
       <path d="M 15 23.703125 
C 15 33.34375 19.09375 42.390625 26.59375 42.390625 
C 27.296875 42.390625 28 42.296875 28.703125 41.984375 
C 28.703125 41.984375 26.5 41.28125 26.5 38.671875 
C 26.5 36.265625 28.40625 35.265625 29.90625 35.265625 
C 31.09375 35.265625 33.296875 35.96875 33.296875 38.78125 
C 33.296875 41.984375 30.09375 44 26.703125 44 
C 19.09375 44 15.796875 36.5625 14.796875 33.046875 
L 14.703125 33.046875 
L 14.703125 44 
L 3.09375 42.890625 
L 3.09375 40.28125 
C 9 40.28125 9.90625 39.6875 9.90625 34.859375 
L 9.90625 6.921875 
C 9.90625 3.09375 9.5 2.59375 3.09375 2.59375 
L 3.09375 0 
C 5.5 0.1875 10.09375 0.1875 12.703125 0.1875 
C 15.59375 0.1875 20.703125 0.1875 23.40625 0 
L 23.40625 2.59375 
C 16.203125 2.59375 15 2.59375 15 7.109375 
z
" id="CMR17-114"/>
       <path d="M 43.09375 21.1875 
C 43.09375 34 33.796875 44 22.90625 44 
C 12 44 2.703125 34 2.703125 21.1875 
C 2.703125 8.59375 12 -1 22.90625 -1 
C 33.796875 -1 43.09375 8.59375 43.09375 21.1875 
z
M 22.90625 0.796875 
C 18.203125 0.796875 14.203125 3.59375 11.90625 7.5 
C 9.40625 12 9.09375 17.59375 9.09375 22 
C 9.09375 26.1875 9.296875 31.390625 11.90625 35.890625 
C 13.90625 39.1875 17.796875 42.390625 22.90625 42.390625 
C 27.40625 42.390625 31.203125 39.890625 33.59375 36.390625 
C 36.703125 31.6875 36.703125 25.09375 36.703125 22 
C 36.703125 18.09375 36.5 12.09375 33.796875 7.296875 
C 31 2.6875 26.703125 0.796875 22.90625 0.796875 
z
" id="CMR17-111"/>
       <path d="M 43.796875 67.984375 
C 43.796875 69.796875 43.703125 69.890625 43.09375 69.890625 
C 42.5 69.890625 42.296875 69.484375 41.90625 68.59375 
L 38.90625 61.953125 
C 35.09375 67.5 29.296875 70 23 70 
C 12.796875 70 4.59375 61.84375 4.59375 51.578125 
C 4.59375 48.453125 5.296875 44.015625 8.703125 39.78125 
C 12.40625 35.15625 15.90625 34.34375 23.90625 32.234375 
C 26.90625 31.421875 31.90625 30.109375 32.90625 29.703125 
C 38.59375 27.296875 41.59375 21.25 41.59375 15.609375 
C 41.59375 8.34375 36.5 0.59375 27.796875 0.59375 
C 17.09375 0.59375 7.09375 6.640625 6.40625 20.75 
C 6.296875 22.359375 6.203125 22.453125 5.5 22.453125 
C 4.703125 22.453125 4.59375 22.359375 4.59375 20.34375 
L 4.59375 0 
C 4.59375 -1.8125 4.703125 -1.90625 5.296875 -1.90625 
C 6 -1.90625 6.203125 -1.40625 7.59375 1.703125 
C 7.703125 2 7.703125 2.203125 9.59375 6.03125 
C 14.59375 -0.609375 23 -2 27.796875 -2 
C 38.703125 -2 46.40625 7.140625 46.40625 17.828125 
C 46.40625 23.0625 44.5 27.09375 43.40625 28.90625 
C 39.203125 35.359375 34.703125 36.5625 29.90625 37.765625 
C 29.203125 38.078125 29 38.078125 23.40625 39.484375 
C 18 40.890625 15.703125 41.59375 13.203125 44.3125 
C 10.40625 47.4375 9.40625 50.671875 9.40625 53.890625 
C 9.40625 60.4375 14.59375 67.59375 23.09375 67.59375 
C 33.703125 67.59375 40.296875 60.03125 41.796875 47.4375 
C 42.09375 45.625 42.203125 45.53125 42.90625 45.53125 
C 43.796875 45.53125 43.796875 45.828125 43.796875 47.546875 
z
" id="CMR17-83"/>
      </defs>
      <use transform="scale(0.996264)" xlink:href="#CMR17-82"/>
      <use transform="translate(67.791102 0)scale(0.996264)" xlink:href="#CMR17-101"/>
      <use transform="translate(108.276762 0)scale(0.996264)" xlink:href="#CMR17-108"/>
      <use transform="translate(133.147821 0)scale(0.996264)" xlink:href="#CMR17-97"/>
      <use transform="translate(178.838298 0)scale(0.996264)" xlink:href="#CMR17-116"/>
      <use transform="translate(214.119066 0)scale(0.996264)" xlink:href="#CMR17-105"/>
      <use transform="translate(238.990124 0)scale(0.996264)" xlink:href="#CMR17-118"/>
      <use transform="translate(284.680586 0)scale(0.996264)" xlink:href="#CMR17-101"/>
      <use transform="translate(352.840255 0)scale(0.996264)" xlink:href="#CMR17-69"/>
      <use transform="translate(415.426556 0)scale(0.996264)" xlink:href="#CMR17-114"/>
      <use transform="translate(450.707324 0)scale(0.996264)" xlink:href="#CMR17-114"/>
      <use transform="translate(485.988092 0)scale(0.996264)" xlink:href="#CMR17-111"/>
      <use transform="translate(531.678569 0)scale(0.996264)" xlink:href="#CMR17-114"/>
      <use transform="translate(594.633345 0)scale(0.996264)" xlink:href="#CMR17-83"/>
      <use transform="translate(645.528715 -14.943915)scale(0.697382)" xlink:href="#CMR17-50"/>
     </g>
    </g>
   </g>
   <g id="LineCollection_2">
    <path clip-path="url(#pdddb9816e9)" d="M 44.827225 49.830645 
L 44.827225 49.813718 
" style="fill:none;stroke:#1e90ff;stroke-width:1.5;"/>
    <path clip-path="url(#pdddb9816e9)" d="M 52.1585 52.853307 
L 52.1585 52.833269 
" style="fill:none;stroke:#1e90ff;stroke-width:1.5;"/>
    <path clip-path="url(#pdddb9816e9)" d="M 59.489775 55.680265 
L 59.489775 55.65844 
" style="fill:none;stroke:#1e90ff;stroke-width:1.5;"/>
    <path clip-path="url(#pdddb9816e9)" d="M 66.82105 58.47038 
L 66.82105 58.446116 
" style="fill:none;stroke:#1e90ff;stroke-width:1.5;"/>
    <path clip-path="url(#pdddb9816e9)" d="M 74.152325 61.251804 
L 74.152325 61.21954 
" style="fill:none;stroke:#1e90ff;stroke-width:1.5;"/>
    <path clip-path="url(#pdddb9816e9)" d="M 85.149238 65.227642 
L 85.149238 65.187718 
" style="fill:none;stroke:#1e90ff;stroke-width:1.5;"/>
    <path clip-path="url(#pdddb9816e9)" d="M 96.14615 69.206527 
L 96.14615 69.152209 
" style="fill:none;stroke:#1e90ff;stroke-width:1.5;"/>
    <path clip-path="url(#pdddb9816e9)" d="M 110.8087 74.256117 
L 110.8087 74.174528 
" style="fill:none;stroke:#1e90ff;stroke-width:1.5;"/>
    <path clip-path="url(#pdddb9816e9)" d="M 129.136887 80.744615 
L 129.136887 80.624912 
" style="fill:none;stroke:#1e90ff;stroke-width:1.5;"/>
    <path clip-path="url(#pdddb9816e9)" d="M 147.465074 86.961786 
L 147.465074 86.770115 
" style="fill:none;stroke:#1e90ff;stroke-width:1.5;"/>
    <path clip-path="url(#pdddb9816e9)" d="M 184.121449 99.531184 
L 184.121449 99.363537 
" style="fill:none;stroke:#1e90ff;stroke-width:1.5;"/>
    <path clip-path="url(#pdddb9816e9)" d="M 220.777824 123.554907 
L 220.777824 111.684894 
" style="fill:none;stroke:#1e90ff;stroke-width:1.5;"/>
    <path clip-path="url(#pdddb9816e9)" d="M 257.434198 125.16955 
L 257.434198 124.558162 
" style="fill:none;stroke:#1e90ff;stroke-width:1.5;"/>
    <path clip-path="url(#pdddb9816e9)" d="M 294.090573 138.108789 
L 294.090573 136.819474 
" style="fill:none;stroke:#1e90ff;stroke-width:1.5;"/>
   </g>
   <g id="line2d_53">
    <defs>
     <path d="M 5 0 
L -5 -0 
" id="m127948bb3d" style="stroke:#1e90ff;"/>
    </defs>
    <g clip-path="url(#pdddb9816e9)">
     <use style="fill:#1e90ff;stroke:#1e90ff;" x="44.827225" xlink:href="#m127948bb3d" y="49.830645"/>
     <use style="fill:#1e90ff;stroke:#1e90ff;" x="52.1585" xlink:href="#m127948bb3d" y="52.853307"/>
     <use style="fill:#1e90ff;stroke:#1e90ff;" x="59.489775" xlink:href="#m127948bb3d" y="55.680265"/>
     <use style="fill:#1e90ff;stroke:#1e90ff;" x="66.82105" xlink:href="#m127948bb3d" y="58.47038"/>
     <use style="fill:#1e90ff;stroke:#1e90ff;" x="74.152325" xlink:href="#m127948bb3d" y="61.251804"/>
     <use style="fill:#1e90ff;stroke:#1e90ff;" x="85.149238" xlink:href="#m127948bb3d" y="65.227642"/>
     <use style="fill:#1e90ff;stroke:#1e90ff;" x="96.14615" xlink:href="#m127948bb3d" y="69.206527"/>
     <use style="fill:#1e90ff;stroke:#1e90ff;" x="110.8087" xlink:href="#m127948bb3d" y="74.256117"/>
     <use style="fill:#1e90ff;stroke:#1e90ff;" x="129.136887" xlink:href="#m127948bb3d" y="80.744615"/>
     <use style="fill:#1e90ff;stroke:#1e90ff;" x="147.465074" xlink:href="#m127948bb3d" y="86.961786"/>
     <use style="fill:#1e90ff;stroke:#1e90ff;" x="184.121449" xlink:href="#m127948bb3d" y="99.531184"/>
     <use style="fill:#1e90ff;stroke:#1e90ff;" x="220.777824" xlink:href="#m127948bb3d" y="123.554907"/>
     <use style="fill:#1e90ff;stroke:#1e90ff;" x="257.434198" xlink:href="#m127948bb3d" y="125.16955"/>
     <use style="fill:#1e90ff;stroke:#1e90ff;" x="294.090573" xlink:href="#m127948bb3d" y="138.108789"/>
    </g>
   </g>
   <g id="line2d_54">
    <g clip-path="url(#pdddb9816e9)">
     <use style="fill:#1e90ff;stroke:#1e90ff;" x="44.827225" xlink:href="#m127948bb3d" y="49.813718"/>
     <use style="fill:#1e90ff;stroke:#1e90ff;" x="52.1585" xlink:href="#m127948bb3d" y="52.833269"/>
     <use style="fill:#1e90ff;stroke:#1e90ff;" x="59.489775" xlink:href="#m127948bb3d" y="55.65844"/>
     <use style="fill:#1e90ff;stroke:#1e90ff;" x="66.82105" xlink:href="#m127948bb3d" y="58.446116"/>
     <use style="fill:#1e90ff;stroke:#1e90ff;" x="74.152325" xlink:href="#m127948bb3d" y="61.21954"/>
     <use style="fill:#1e90ff;stroke:#1e90ff;" x="85.149238" xlink:href="#m127948bb3d" y="65.187718"/>
     <use style="fill:#1e90ff;stroke:#1e90ff;" x="96.14615" xlink:href="#m127948bb3d" y="69.152209"/>
     <use style="fill:#1e90ff;stroke:#1e90ff;" x="110.8087" xlink:href="#m127948bb3d" y="74.174528"/>
     <use style="fill:#1e90ff;stroke:#1e90ff;" x="129.136887" xlink:href="#m127948bb3d" y="80.624912"/>
     <use style="fill:#1e90ff;stroke:#1e90ff;" x="147.465074" xlink:href="#m127948bb3d" y="86.770115"/>
     <use style="fill:#1e90ff;stroke:#1e90ff;" x="184.121449" xlink:href="#m127948bb3d" y="99.363537"/>
     <use style="fill:#1e90ff;stroke:#1e90ff;" x="220.777824" xlink:href="#m127948bb3d" y="111.684894"/>
     <use style="fill:#1e90ff;stroke:#1e90ff;" x="257.434198" xlink:href="#m127948bb3d" y="124.558162"/>
     <use style="fill:#1e90ff;stroke:#1e90ff;" x="294.090573" xlink:href="#m127948bb3d" y="136.819474"/>
    </g>
   </g>
   <g id="line2d_55">
    <defs>
     <path d="M 0 3 
C 0.795609 3 1.55874 2.683901 2.12132 2.12132 
C 2.683901 1.55874 3 0.795609 3 0 
C 3 -0.795609 2.683901 -1.55874 2.12132 -2.12132 
C 1.55874 -2.683901 0.795609 -3 0 -3 
C -0.795609 -3 -1.55874 -2.683901 -2.12132 -2.12132 
C -2.683901 -1.55874 -3 -0.795609 -3 0 
C -3 0.795609 -2.683901 1.55874 -2.12132 2.12132 
C -1.55874 2.683901 -0.795609 3 0 3 
z
" id="m7de2298686" style="stroke:#1e90ff;"/>
    </defs>
    <g clip-path="url(#pdddb9816e9)">
     <use style="fill:#6bddff;stroke:#1e90ff;" x="44.827225" xlink:href="#m7de2298686" y="49.822179"/>
     <use style="fill:#6bddff;stroke:#1e90ff;" x="52.1585" xlink:href="#m7de2298686" y="52.843285"/>
     <use style="fill:#6bddff;stroke:#1e90ff;" x="59.489775" xlink:href="#m7de2298686" y="55.669349"/>
     <use style="fill:#6bddff;stroke:#1e90ff;" x="66.82105" xlink:href="#m7de2298686" y="58.458244"/>
     <use style="fill:#6bddff;stroke:#1e90ff;" x="74.152325" xlink:href="#m7de2298686" y="61.235665"/>
     <use style="fill:#6bddff;stroke:#1e90ff;" x="85.149238" xlink:href="#m7de2298686" y="65.207668"/>
     <use style="fill:#6bddff;stroke:#1e90ff;" x="96.14615" xlink:href="#m7de2298686" y="69.179346"/>
     <use style="fill:#6bddff;stroke:#1e90ff;" x="110.8087" xlink:href="#m7de2298686" y="74.215273"/>
     <use style="fill:#6bddff;stroke:#1e90ff;" x="129.136887" xlink:href="#m7de2298686" y="80.684657"/>
     <use style="fill:#6bddff;stroke:#1e90ff;" x="147.465074" xlink:href="#m7de2298686" y="86.865676"/>
     <use style="fill:#6bddff;stroke:#1e90ff;" x="184.121449" xlink:href="#m7de2298686" y="99.447151"/>
     <use style="fill:#6bddff;stroke:#1e90ff;" x="220.777824" xlink:href="#m7de2298686" y="116.588546"/>
     <use style="fill:#6bddff;stroke:#1e90ff;" x="257.434198" xlink:href="#m7de2298686" y="124.861063"/>
     <use style="fill:#6bddff;stroke:#1e90ff;" x="294.090573" xlink:href="#m7de2298686" y="137.451714"/>
    </g>
   </g>
   <g id="patch_3">
    <path d="M 44.387349 159.239203 
L 44.387349 3.6 
" style="fill:none;stroke:#000000;stroke-linecap:square;stroke-linejoin:miter;stroke-width:0.8;"/>
   </g>
   <g id="patch_4">
    <path d="M 302.888103 159.239203 
L 302.888103 3.6 
" style="fill:none;stroke:#000000;stroke-linecap:square;stroke-linejoin:miter;stroke-width:0.8;"/>
   </g>
   <g id="patch_5">
    <path d="M 44.387349 159.239203 
L 302.888103 159.239203 
" style="fill:none;stroke:#000000;stroke-linecap:square;stroke-linejoin:miter;stroke-width:0.8;"/>
   </g>
   <g id="patch_6">
    <path d="M 44.387349 3.6 
L 302.888103 3.6 
" style="fill:none;stroke:#000000;stroke-linecap:square;stroke-linejoin:miter;stroke-width:0.8;"/>
   </g>
   <g id="LineCollection_3">
    <path clip-path="url(#pdddb9816e9)" d="M 44.827225 54.489346 
L 44.827225 54.474986 
" style="fill:none;stroke:#3cb371;stroke-width:1.5;"/>
    <path clip-path="url(#pdddb9816e9)" d="M 52.1585 56.318423 
L 52.1585 56.303798 
" style="fill:none;stroke:#3cb371;stroke-width:1.5;"/>
    <path clip-path="url(#pdddb9816e9)" d="M 59.489775 58.06913 
L 59.489775 58.042134 
" style="fill:none;stroke:#3cb371;stroke-width:1.5;"/>
    <path clip-path="url(#pdddb9816e9)" d="M 66.82105 59.80643 
L 66.82105 59.757983 
" style="fill:none;stroke:#3cb371;stroke-width:1.5;"/>
    <path clip-path="url(#pdddb9816e9)" d="M 74.152325 61.585772 
L 74.152325 61.566754 
" style="fill:none;stroke:#3cb371;stroke-width:1.5;"/>
    <path clip-path="url(#pdddb9816e9)" d="M 85.149238 64.195589 
L 85.149238 64.163734 
" style="fill:none;stroke:#3cb371;stroke-width:1.5;"/>
    <path clip-path="url(#pdddb9816e9)" d="M 96.14615 66.787944 
L 96.14615 66.759391 
" style="fill:none;stroke:#3cb371;stroke-width:1.5;"/>
    <path clip-path="url(#pdddb9816e9)" d="M 110.8087 70.1814 
L 110.8087 70.142492 
" style="fill:none;stroke:#3cb371;stroke-width:1.5;"/>
    <path clip-path="url(#pdddb9816e9)" d="M 129.136887 74.355564 
L 129.136887 74.304755 
" style="fill:none;stroke:#3cb371;stroke-width:1.5;"/>
    <path clip-path="url(#pdddb9816e9)" d="M 147.465074 78.565616 
L 147.465074 78.497506 
" style="fill:none;stroke:#3cb371;stroke-width:1.5;"/>
    <path clip-path="url(#pdddb9816e9)" d="M 184.121449 86.601868 
L 184.121449 86.492579 
" style="fill:none;stroke:#3cb371;stroke-width:1.5;"/>
    <path clip-path="url(#pdddb9816e9)" d="M 220.777824 94.505512 
L 220.777824 94.346239 
" style="fill:none;stroke:#3cb371;stroke-width:1.5;"/>
    <path clip-path="url(#pdddb9816e9)" d="M 257.434198 102.460387 
L 257.434198 102.185678 
" style="fill:none;stroke:#3cb371;stroke-width:1.5;"/>
    <path clip-path="url(#pdddb9816e9)" d="M 294.090573 110.398161 
L 294.090573 109.93302 
" style="fill:none;stroke:#3cb371;stroke-width:1.5;"/>
   </g>
   <g id="line2d_56">
    <defs>
     <path d="M 5 0 
L -5 -0 
" id="m01e875aa8f" style="stroke:#3cb371;"/>
    </defs>
    <g clip-path="url(#pdddb9816e9)">
     <use style="fill:#3cb371;stroke:#3cb371;" x="44.827225" xlink:href="#m01e875aa8f" y="54.489346"/>
     <use style="fill:#3cb371;stroke:#3cb371;" x="52.1585" xlink:href="#m01e875aa8f" y="56.318423"/>
     <use style="fill:#3cb371;stroke:#3cb371;" x="59.489775" xlink:href="#m01e875aa8f" y="58.06913"/>
     <use style="fill:#3cb371;stroke:#3cb371;" x="66.82105" xlink:href="#m01e875aa8f" y="59.80643"/>
     <use style="fill:#3cb371;stroke:#3cb371;" x="74.152325" xlink:href="#m01e875aa8f" y="61.585772"/>
     <use style="fill:#3cb371;stroke:#3cb371;" x="85.149238" xlink:href="#m01e875aa8f" y="64.195589"/>
     <use style="fill:#3cb371;stroke:#3cb371;" x="96.14615" xlink:href="#m01e875aa8f" y="66.787944"/>
     <use style="fill:#3cb371;stroke:#3cb371;" x="110.8087" xlink:href="#m01e875aa8f" y="70.1814"/>
     <use style="fill:#3cb371;stroke:#3cb371;" x="129.136887" xlink:href="#m01e875aa8f" y="74.355564"/>
     <use style="fill:#3cb371;stroke:#3cb371;" x="147.465074" xlink:href="#m01e875aa8f" y="78.565616"/>
     <use style="fill:#3cb371;stroke:#3cb371;" x="184.121449" xlink:href="#m01e875aa8f" y="86.601868"/>
     <use style="fill:#3cb371;stroke:#3cb371;" x="220.777824" xlink:href="#m01e875aa8f" y="94.505512"/>
     <use style="fill:#3cb371;stroke:#3cb371;" x="257.434198" xlink:href="#m01e875aa8f" y="102.460387"/>
     <use style="fill:#3cb371;stroke:#3cb371;" x="294.090573" xlink:href="#m01e875aa8f" y="110.398161"/>
    </g>
   </g>
   <g id="line2d_57">
    <g clip-path="url(#pdddb9816e9)">
     <use style="fill:#3cb371;stroke:#3cb371;" x="44.827225" xlink:href="#m01e875aa8f" y="54.474986"/>
     <use style="fill:#3cb371;stroke:#3cb371;" x="52.1585" xlink:href="#m01e875aa8f" y="56.303798"/>
     <use style="fill:#3cb371;stroke:#3cb371;" x="59.489775" xlink:href="#m01e875aa8f" y="58.042134"/>
     <use style="fill:#3cb371;stroke:#3cb371;" x="66.82105" xlink:href="#m01e875aa8f" y="59.757983"/>
     <use style="fill:#3cb371;stroke:#3cb371;" x="74.152325" xlink:href="#m01e875aa8f" y="61.566754"/>
     <use style="fill:#3cb371;stroke:#3cb371;" x="85.149238" xlink:href="#m01e875aa8f" y="64.163734"/>
     <use style="fill:#3cb371;stroke:#3cb371;" x="96.14615" xlink:href="#m01e875aa8f" y="66.759391"/>
     <use style="fill:#3cb371;stroke:#3cb371;" x="110.8087" xlink:href="#m01e875aa8f" y="70.142492"/>
     <use style="fill:#3cb371;stroke:#3cb371;" x="129.136887" xlink:href="#m01e875aa8f" y="74.304755"/>
     <use style="fill:#3cb371;stroke:#3cb371;" x="147.465074" xlink:href="#m01e875aa8f" y="78.497506"/>
     <use style="fill:#3cb371;stroke:#3cb371;" x="184.121449" xlink:href="#m01e875aa8f" y="86.492579"/>
     <use style="fill:#3cb371;stroke:#3cb371;" x="220.777824" xlink:href="#m01e875aa8f" y="94.346239"/>
     <use style="fill:#3cb371;stroke:#3cb371;" x="257.434198" xlink:href="#m01e875aa8f" y="102.185678"/>
     <use style="fill:#3cb371;stroke:#3cb371;" x="294.090573" xlink:href="#m01e875aa8f" y="109.93302"/>
    </g>
   </g>
   <g id="text_14">
    <!-- $M=8$ -->
    <g transform="translate(67.427383 86.544745)scale(0.12 -0.12)">
     <defs>
      <path d="M 90.796875 60.71875 
C 91.703125 64.09375 91.90625 65.09375 99 65.09375 
C 100.90625 65.09375 101.796875 65.09375 101.796875 66.984375 
C 101.796875 68 101.09375 68 99.203125 68 
L 87.203125 68 
C 84.703125 68 84.59375 67.890625 83.5 66.296875 
L 47 8.859375 
L 39.5 65.796875 
C 39.203125 68 39.09375 68 36.5 68 
L 24.09375 68 
C 22.203125 68 21.296875 68 21.296875 66.09375 
C 21.296875 65.09375 22.203125 65.09375 23.703125 65.09375 
C 29.796875 65.09375 29.796875 64.296875 29.796875 63.203125 
C 29.796875 63 29.796875 62.40625 29.40625 60.90625 
L 16.59375 10.15625 
C 15.40625 5.375 13.09375 3.1875 6.40625 2.890625 
C 6.09375 2.890625 4.90625 2.796875 4.90625 1.09375 
C 4.90625 0 5.796875 0 6.203125 0 
C 8.203125 0 13.296875 0.1875 15.296875 0.1875 
L 20.09375 0.1875 
C 21.5 0.1875 23.203125 0 24.59375 0 
C 25.296875 0 26.40625 0 26.40625 1.890625 
C 26.40625 2.796875 25.40625 2.890625 25 2.890625 
C 21.703125 2.984375 18.5 3.59375 18.5 7.171875 
C 18.5 8.171875 18.5 8.265625 18.90625 9.65625 
L 32.703125 64.5 
L 32.796875 64.5 
L 41.09375 2.6875 
C 41.40625 0.296875 41.5 0 42.40625 0 
C 43.5 0 44 0.796875 44.5 1.6875 
L 84.703125 64.984375 
L 84.796875 64.984375 
L 70.296875 7.375 
C 69.40625 3.890625 69.203125 2.890625 62.203125 2.890625 
C 60.296875 2.890625 59.296875 2.890625 59.296875 1.09375 
C 59.296875 0 60.203125 0 60.796875 0 
C 62.5 0 64.5 0.1875 66.203125 0.1875 
L 78 0.1875 
C 79.703125 0.1875 81.796875 0 83.5 0 
C 84.296875 0 85.40625 0 85.40625 1.890625 
C 85.40625 2.890625 84.5 2.890625 83 2.890625 
C 76.90625 2.890625 76.90625 3.6875 76.90625 4.6875 
C 76.90625 4.78125 76.90625 5.484375 77.09375 6.28125 
z
" id="CMMI12-77"/>
      <path d="M 64.296875 32 
C 65.796875 32 67.296875 32 67.296875 33.6875 
C 67.296875 35.5 65.59375 35.5 63.90625 35.5 
L 8 35.5 
C 6.296875 35.5 4.59375 35.5 4.59375 33.6875 
C 4.59375 32 6.09375 32 7.59375 32 
z
M 63.90625 14.484375 
C 65.59375 14.484375 67.296875 14.484375 67.296875 16.296875 
C 67.296875 18 65.796875 18 64.296875 18 
L 7.59375 18 
C 6.09375 18 4.59375 18 4.59375 16.296875 
C 4.59375 14.484375 6.296875 14.484375 8 14.484375 
z
" id="CMR17-61"/>
      <path d="M 27.203125 35.765625 
C 33.5 38.96875 39.90625 43.796875 39.90625 51.53125 
C 39.90625 60.6875 31.09375 66 23 66 
C 13.90625 66 5.90625 59.375 5.90625 50.234375 
C 5.90625 47.71875 6.5 43.390625 10.40625 39.578125 
C 11.40625 38.578125 15.59375 35.5625 18.296875 33.65625 
C 13.796875 31.34375 3.296875 25.8125 3.296875 14.765625 
C 3.296875 4.40625 13.09375 -2 22.796875 -2 
C 33.5 -2 42.5 5.71875 42.5 15.96875 
C 42.5 25.109375 36.40625 29.328125 32.40625 32.046875 
z
M 14.09375 44.609375 
C 13.296875 45.109375 9.296875 48.21875 9.296875 52.9375 
C 9.296875 59.078125 15.59375 63.6875 22.796875 63.6875 
C 30.703125 63.6875 36.5 58.0625 36.5 51.53125 
C 36.5 42.1875 26.09375 36.859375 25.59375 36.859375 
C 25.5 36.859375 25.40625 36.859375 24.59375 37.46875 
z
M 32.5 24 
C 34 22.90625 38.796875 19.578125 38.796875 13.453125 
C 38.796875 6.015625 31.40625 0.390625 23 0.390625 
C 13.90625 0.390625 7 6.921875 7 14.859375 
C 7 22.796875 13.09375 29.4375 20 32.546875 
z
" id="CMR17-56"/>
     </defs>
     <use transform="scale(0.996264)" xlink:href="#CMMI12-77"/>
     <use transform="translate(132.454088 0)scale(0.996264)" xlink:href="#CMR17-61"/>
     <use transform="translate(231.842885 0)scale(0.996264)" xlink:href="#CMR17-56"/>
    </g>
   </g>
   <g id="text_15">
    <!-- $N=8$ -->
    <g transform="translate(67.427383 105.776911)scale(0.12 -0.12)">
     <defs>
      <path d="M 74 57.53125 
C 75.09375 61.8125 76.703125 64.796875 84.296875 65.09375 
C 84.59375 65.09375 85.796875 65.1875 85.796875 66.890625 
C 85.796875 68 84.90625 68 84.5 68 
C 82.5 68 77.40625 67.796875 75.40625 67.796875 
L 70.59375 67.796875 
C 69.203125 67.796875 67.40625 68 66 68 
C 65.40625 68 64.203125 68 64.203125 66.09375 
C 64.203125 65.09375 65 65.09375 65.703125 65.09375 
C 71.703125 64.890625 72.09375 62.609375 72.09375 60.8125 
C 72.09375 59.921875 72 59.625 71.703125 58.21875 
L 60.40625 13.34375 
L 39 66.296875 
C 38.296875 67.890625 38.203125 68 36 68 
L 23.796875 68 
C 21.796875 68 20.90625 68 20.90625 66.09375 
C 20.90625 65.09375 21.59375 65.09375 23.5 65.09375 
C 24 65.09375 29.90625 65.09375 29.90625 64.203125 
C 29.90625 64 29.703125 63.203125 29.59375 62.90625 
L 16.296875 10.15625 
C 15.09375 5.28125 12.703125 3.1875 6.09375 2.890625 
C 5.59375 2.890625 4.59375 2.796875 4.59375 1 
C 4.59375 0 5.59375 0 5.90625 0 
C 7.90625 0 13 0.1875 15 0.1875 
L 19.796875 0.1875 
C 21.203125 0.1875 22.90625 0 24.296875 0 
C 25 0 26.09375 0 26.09375 1.890625 
C 26.09375 2.796875 25.09375 2.890625 24.703125 2.890625 
C 21.40625 2.984375 18.203125 3.59375 18.203125 7.171875 
C 18.203125 7.96875 18.40625 8.859375 18.59375 9.65625 
L 32.09375 62.90625 
C 32.703125 61.90625 32.703125 61.703125 33.09375 60.8125 
L 56.90625 1.796875 
C 57.40625 0.59375 57.59375 0 58.5 0 
C 59.5 0 59.59375 0.296875 60 2 
z
" id="CMMI12-78"/>
     </defs>
     <use transform="scale(0.996264)" xlink:href="#CMMI12-78"/>
     <use transform="translate(116.195781 0)scale(0.996264)" xlink:href="#CMR17-61"/>
     <use transform="translate(215.584578 0)scale(0.996264)" xlink:href="#CMR17-56"/>
    </g>
   </g>
   <g id="text_16">
    <!-- $\ell=4$ -->
    <g transform="translate(67.427383 125.009076)scale(0.12 -0.12)">
     <defs>
      <path d="M 9.203125 17.046875 
C 2.90625 10.90625 1.296875 9.421875 1.296875 9.015625 
C 1.296875 8.625 1.703125 7.9375 2.40625 7.9375 
C 2.90625 7.9375 8.59375 13.375 9.40625 14.265625 
C 10 7.625 12.5 -1 20.296875 -1 
C 24.296875 -1 27.90625 1.484375 29.5 2.671875 
C 30.796875 3.671875 35.59375 7.734375 35.59375 8.625 
C 35.59375 9.125 35.09375 9.71875 34.59375 9.71875 
C 34.203125 9.71875 32.703125 8.234375 32.296875 7.828125 
C 28.796875 4.46875 24.40625 1 20.40625 1 
C 15 1 14.296875 8.71875 14.296875 14.078125 
C 14.296875 15.0625 14.296875 19.234375 15 20.015625 
C 20.90625 26.0625 39.40625 45 39.40625 62.53125 
C 39.40625 66.5 37.90625 70 33.59375 70 
C 24.296875 70 16.203125 49.546875 14.796875 45.78125 
C 14.40625 44.796875 8.59375 29.53125 9.203125 17.046875 
z
M 15.203125 23.1875 
C 15.296875 23.78125 19.796875 49.75 28.203125 63.625 
C 29.90625 66.296875 31.59375 67.984375 33.59375 67.984375 
C 37 67.984375 37.203125 64.8125 37.203125 62.640625 
C 37.203125 59.171875 36.203125 50.25 27.5 37.765625 
C 24.90625 34.09375 20.90625 29.140625 15.203125 23.1875 
z
" id="CMMI12-96"/>
     </defs>
     <use transform="scale(0.996264)" xlink:href="#CMMI12-96"/>
     <use transform="translate(68.608228 0)scale(0.996264)" xlink:href="#CMR17-61"/>
     <use transform="translate(167.997025 0)scale(0.996264)" xlink:href="#CMR17-52"/>
    </g>
   </g>
   <g id="text_17">
    <!-- $D=1$ -->
    <g transform="translate(67.427383 144.241242)scale(0.12 -0.12)">
     <defs>
      <path d="M 15.703125 7.375 
C 14.796875 3.890625 14.59375 2.890625 7.59375 2.890625 
C 5.703125 2.890625 4.703125 2.890625 4.703125 1.09375 
C 4.703125 0 5.296875 0 7.296875 0 
L 39 0 
C 59.203125 0 78.90625 20.8125 78.90625 43 
C 78.90625 57.328125 70.296875 68 56 68 
L 23.90625 68 
C 22 68 21.09375 68 21.09375 66.09375 
C 21.09375 65.09375 22 65.09375 23.5 65.09375 
C 29.59375 65.09375 29.59375 64.296875 29.59375 63.203125 
C 29.59375 63 29.59375 62.40625 29.203125 60.90625 
z
M 36.796875 61.203125 
C 37.703125 64.890625 38.09375 65.09375 42 65.09375 
L 53 65.09375 
C 62.40625 65.09375 71 60.015625 71 46.28125 
C 71 41.3125 69 23.984375 59.296875 13.046875 
C 56.5 9.765625 48.90625 2.890625 37.40625 2.890625 
L 26 2.890625 
C 24.59375 2.890625 24.40625 2.890625 23.796875 2.984375 
C 22.703125 3.09375 22.59375 3.296875 22.59375 4.09375 
C 22.59375 4.78125 22.796875 5.375 23 6.28125 
z
" id="CMMI12-68"/>
     </defs>
     <use transform="scale(0.996264)" xlink:href="#CMMI12-68"/>
     <use transform="translate(111.377956 0)scale(0.996264)" xlink:href="#CMR17-61"/>
     <use transform="translate(210.766754 0)scale(0.996264)" xlink:href="#CMR17-49"/>
    </g>
   </g>
   <g id="line2d_58">
    <defs>
     <path d="M 0 -3 
L -3 3 
L 3 3 
z
" id="m6d3b218d4a" style="stroke:#3cb371;stroke-linejoin:miter;"/>
    </defs>
    <g clip-path="url(#pdddb9816e9)">
     <use style="fill:#89ffbe;stroke:#3cb371;stroke-linejoin:miter;" x="44.827225" xlink:href="#m6d3b218d4a" y="54.482165"/>
     <use style="fill:#89ffbe;stroke:#3cb371;stroke-linejoin:miter;" x="52.1585" xlink:href="#m6d3b218d4a" y="56.311109"/>
     <use style="fill:#89ffbe;stroke:#3cb371;stroke-linejoin:miter;" x="59.489775" xlink:href="#m6d3b218d4a" y="58.055627"/>
     <use style="fill:#89ffbe;stroke:#3cb371;stroke-linejoin:miter;" x="66.82105" xlink:href="#m6d3b218d4a" y="59.782189"/>
     <use style="fill:#89ffbe;stroke:#3cb371;stroke-linejoin:miter;" x="74.152325" xlink:href="#m6d3b218d4a" y="61.57626"/>
     <use style="fill:#89ffbe;stroke:#3cb371;stroke-linejoin:miter;" x="85.149238" xlink:href="#m6d3b218d4a" y="64.179654"/>
     <use style="fill:#89ffbe;stroke:#3cb371;stroke-linejoin:miter;" x="96.14615" xlink:href="#m6d3b218d4a" y="66.773661"/>
     <use style="fill:#89ffbe;stroke:#3cb371;stroke-linejoin:miter;" x="110.8087" xlink:href="#m6d3b218d4a" y="70.161935"/>
     <use style="fill:#89ffbe;stroke:#3cb371;stroke-linejoin:miter;" x="129.136887" xlink:href="#m6d3b218d4a" y="74.33014"/>
     <use style="fill:#89ffbe;stroke:#3cb371;stroke-linejoin:miter;" x="147.465074" xlink:href="#m6d3b218d4a" y="78.531527"/>
     <use style="fill:#89ffbe;stroke:#3cb371;stroke-linejoin:miter;" x="184.121449" xlink:href="#m6d3b218d4a" y="86.547135"/>
     <use style="fill:#89ffbe;stroke:#3cb371;stroke-linejoin:miter;" x="220.777824" xlink:href="#m6d3b218d4a" y="94.425686"/>
     <use style="fill:#89ffbe;stroke:#3cb371;stroke-linejoin:miter;" x="257.434198" xlink:href="#m6d3b218d4a" y="102.322469"/>
     <use style="fill:#89ffbe;stroke:#3cb371;stroke-linejoin:miter;" x="294.090573" xlink:href="#m6d3b218d4a" y="110.163974"/>
    </g>
   </g>
   <g id="legend_1">
    <g id="LineCollection_4">
     <path d="M 215.302304 25.318125 
L 215.302304 13.318125 
" style="fill:none;stroke:#ffa0a0;stroke-width:1.5;"/>
    </g>
    <g id="line2d_59">
     <g>
      <use style="fill:#ffa0a0;stroke:#ffa0a0;" x="215.302304" xlink:href="#mf4b2751623" y="25.318125"/>
     </g>
    </g>
    <g id="line2d_60">
     <g>
      <use style="fill:#ffa0a0;stroke:#ffa0a0;" x="215.302304" xlink:href="#mf4b2751623" y="13.318125"/>
     </g>
    </g>
    <g id="line2d_61"/>
    <g id="line2d_62">
     <g>
      <use style="fill:#ffeded;stroke:#ffa0a0;stroke-linejoin:miter;" x="215.302304" xlink:href="#mdd8665f065" y="19.318125"/>
     </g>
    </g>
    <g id="text_18">
     <!-- $U/t=10.0$ -->
     <g transform="translate(236.902304 23.518125)scale(0.12 -0.12)">
      <defs>
       <path d="M 50.59375 22.953125 
C 47.09375 9.046875 35.5 0.890625 26.09375 0.890625 
C 18.90625 0.890625 14 5.65625 14 13.90625 
C 14 14.3125 14 17.296875 15.09375 21.65625 
L 24.90625 60.71875 
C 25.796875 64.09375 26 65.09375 33.09375 65.09375 
C 34.90625 65.09375 35.90625 65.09375 35.90625 66.890625 
C 35.90625 68 35 68 34.40625 68 
C 32.59375 68 30.5 67.796875 28.59375 67.796875 
L 16.796875 67.796875 
C 14.90625 67.796875 12.796875 68 10.90625 68 
C 10.203125 68 9 68 9 66.09375 
C 9 65.09375 9.703125 65.09375 11.59375 65.09375 
C 17.59375 65.09375 17.59375 64.296875 17.59375 63.203125 
C 17.59375 62.609375 16.90625 59.71875 16.40625 58.03125 
L 7.703125 23.25 
C 7.40625 22.15625 6.796875 19.46875 6.796875 16.796875 
C 6.796875 5.859375 14.703125 -2 25.59375 -2 
C 35.703125 -2 46.90625 5.953125 52 18.578125 
C 52.703125 20.265625 53.59375 23.75 54.203125 26.4375 
C 55.203125 30.015625 57.296875 38.75 58 41.34375 
L 61.796875 56.25 
C 63.09375 61.421875 63.90625 64.6875 72.703125 65.09375 
C 73.5 65.1875 73.90625 65.984375 73.90625 66.890625 
C 73.90625 68 73 68 72.59375 68 
C 71.203125 68 69.40625 67.796875 68 67.796875 
L 63.296875 67.796875 
C 57.09375 67.796875 53.90625 68 53.796875 68 
C 53.203125 68 52 68 52 66.09375 
C 52 65.09375 52.796875 65.09375 53.5 65.09375 
C 59.5 64.890625 59.90625 62.609375 59.90625 60.8125 
C 59.90625 59.921875 59.90625 59.625 59.5 58.234375 
z
" id="CMMI12-85"/>
       <path d="M 42.90625 71.296875 
C 42.90625 71.390625 43.5 72.890625 43.5 73.09375 
C 43.5 74.296875 42.5 75 41.703125 75 
C 41.203125 75 40.296875 75 39.5 72.796875 
L 6 -21.3125 
C 6 -21.40625 5.40625 -22.90625 5.40625 -23.109375 
C 5.40625 -24.3125 6.40625 -25 7.203125 -25 
C 7.796875 -25 8.703125 -24.90625 9.40625 -22.8125 
z
" id="CMMI12-61"/>
       <path d="M 20.09375 40.09375 
L 29.296875 40.09375 
C 31.203125 40.09375 32.203125 40.09375 32.203125 41.890625 
C 32.203125 43 31.59375 43 29.59375 43 
L 20.796875 43 
L 24.5 57.25 
C 24.90625 58.625 24.90625 58.8125 24.90625 59.5 
C 24.90625 61.09375 23.59375 62 22.296875 62 
C 21.5 62 19.203125 61.6875 18.40625 58.53125 
L 14.5 43 
L 5.09375 43 
C 3.09375 43 2.203125 43 2.203125 41.09375 
C 2.203125 40.09375 2.90625 40.09375 4.796875 40.09375 
L 13.703125 40.09375 
L 7.09375 13.765625 
C 6.296875 10.265625 6 9.265625 6 7.96875 
C 6 3.28125 9.296875 -1 14.90625 -1 
C 25 -1 30.40625 13.5625 30.40625 14.265625 
C 30.40625 14.859375 30 15.15625 29.40625 15.15625 
C 29.203125 15.15625 28.796875 15.15625 28.59375 14.75 
C 28.5 14.65625 28.40625 14.5625 27.703125 12.96875 
C 25.59375 7.96875 21 1 15.203125 1 
C 12.203125 1 12 3.484375 12 5.6875 
C 12 5.78125 12 7.671875 12.296875 8.875 
z
" id="CMMI12-116"/>
      </defs>
      <use transform="scale(0.996264)" xlink:href="#CMMI12-85"/>
      <use transform="translate(71.239337 0)scale(0.996264)" xlink:href="#CMMI12-61"/>
      <use transform="translate(120.014256 0)scale(0.996264)" xlink:href="#CMMI12-116"/>
      <use transform="translate(182.914595 0)scale(0.996264)" xlink:href="#CMR17-61"/>
      <use transform="translate(282.303392 0)scale(0.996264)" xlink:href="#CMR17-49"/>
      <use transform="translate(327.993869 0)scale(0.996264)" xlink:href="#CMR17-48"/>
      <use transform="translate(373.684347 0)scale(0.996264)" xlink:href="#CMMI12-58"/>
      <use transform="translate(400.781524 0)scale(0.996264)" xlink:href="#CMR17-48"/>
     </g>
    </g>
    <g id="LineCollection_5">
     <path d="M 215.302304 43.425042 
L 215.302304 31.425042 
" style="fill:none;stroke:#1e90ff;stroke-width:1.5;"/>
    </g>
    <g id="line2d_63">
     <g>
      <use style="fill:#1e90ff;stroke:#1e90ff;" x="215.302304" xlink:href="#m127948bb3d" y="43.425042"/>
     </g>
    </g>
    <g id="line2d_64">
     <g>
      <use style="fill:#1e90ff;stroke:#1e90ff;" x="215.302304" xlink:href="#m127948bb3d" y="31.425042"/>
     </g>
    </g>
    <g id="line2d_65"/>
    <g id="line2d_66">
     <g>
      <use style="fill:#6bddff;stroke:#1e90ff;" x="215.302304" xlink:href="#m7de2298686" y="37.425042"/>
     </g>
    </g>
    <g id="text_19">
     <!-- $U/t=3.3$ -->
     <g transform="translate(236.902304 41.625042)scale(0.12 -0.12)">
      <use transform="scale(0.996264)" xlink:href="#CMMI12-85"/>
      <use transform="translate(71.239337 0)scale(0.996264)" xlink:href="#CMMI12-61"/>
      <use transform="translate(120.014256 0)scale(0.996264)" xlink:href="#CMMI12-116"/>
      <use transform="translate(182.914595 0)scale(0.996264)" xlink:href="#CMR17-61"/>
      <use transform="translate(282.303392 0)scale(0.996264)" xlink:href="#CMR17-51"/>
      <use transform="translate(327.993869 0)scale(0.996264)" xlink:href="#CMMI12-58"/>
      <use transform="translate(355.091047 0)scale(0.996264)" xlink:href="#CMR17-51"/>
     </g>
    </g>
    <g id="LineCollection_6">
     <path d="M 215.302304 61.531959 
L 215.302304 49.531959 
" style="fill:none;stroke:#3cb371;stroke-width:1.5;"/>
    </g>
    <g id="line2d_67">
     <g>
      <use style="fill:#3cb371;stroke:#3cb371;" x="215.302304" xlink:href="#m01e875aa8f" y="61.531959"/>
     </g>
    </g>
    <g id="line2d_68">
     <g>
      <use style="fill:#3cb371;stroke:#3cb371;" x="215.302304" xlink:href="#m01e875aa8f" y="49.531959"/>
     </g>
    </g>
    <g id="line2d_69"/>
    <g id="line2d_70">
     <g>
      <use style="fill:#89ffbe;stroke:#3cb371;stroke-linejoin:miter;" x="215.302304" xlink:href="#m6d3b218d4a" y="55.531959"/>
     </g>
    </g>
    <g id="text_20">
     <!-- $U/t=0.5$ -->
     <g transform="translate(236.902304 59.731959)scale(0.12 -0.12)">
      <use transform="scale(0.996264)" xlink:href="#CMMI12-85"/>
      <use transform="translate(71.239337 0)scale(0.996264)" xlink:href="#CMMI12-61"/>
      <use transform="translate(120.014256 0)scale(0.996264)" xlink:href="#CMMI12-116"/>
      <use transform="translate(182.914595 0)scale(0.996264)" xlink:href="#CMR17-61"/>
      <use transform="translate(282.303392 0)scale(0.996264)" xlink:href="#CMR17-48"/>
      <use transform="translate(327.993869 0)scale(0.996264)" xlink:href="#CMMI12-58"/>
      <use transform="translate(355.091047 0)scale(0.996264)" xlink:href="#CMR17-53"/>
     </g>
    </g>
   </g>
  </g>
 </g>
 <defs>
  <clipPath id="pdddb9816e9">
   <rect height="155.639203" width="258.500754" x="44.387349" y="3.6"/>
  </clipPath>
 </defs>
</svg>
