<?xml version="1.0" encoding="utf-8" standalone="no"?>
<!DOCTYPE svg PUBLIC "-//W3C//DTD SVG 1.1//EN"
  "http://www.w3.org/Graphics/SVG/1.1/DTD/svg11.dtd">
<!-- Created with matplotlib (https://matplotlib.org/) -->
<svg height="347.960859pt" version="1.1" viewBox="0 0 317.211401 347.960859" width="317.211401pt" xmlns="http://www.w3.org/2000/svg" xmlns:xlink="http://www.w3.org/1999/xlink">
 <metadata>
  <rdf:RDF xmlns:cc="http://creativecommons.org/ns#" xmlns:dc="http://purl.org/dc/elements/1.1/" xmlns:rdf="http://www.w3.org/1999/02/22-rdf-syntax-ns#">
   <cc:Work>
    <dc:type rdf:resource="http://purl.org/dc/dcmitype/StillImage"/>
    <dc:date>2022-07-04T14:55:36.041093</dc:date>
    <dc:format>image/svg+xml</dc:format>
    <dc:creator>
     <cc:Agent>
      <dc:title>Matplotlib v3.3.2, https://matplotlib.org/</dc:title>
     </cc:Agent>
    </dc:creator>
   </cc:Work>
  </rdf:RDF>
 </metadata>
 <defs>
  <style type="text/css">*{stroke-linecap:butt;stroke-linejoin:round;}</style>
 </defs>
 <g id="figure_1">
  <g id="patch_1">
   <path d="M 0 347.960859 
L 317.211401 347.960859 
L 317.211401 0 
L 0 0 
z
" style="fill:none;"/>
  </g>
  <g id="axes_1">
   <g id="patch_2">
    <path d="M 48.247918 105.792517 
L 306.748672 105.792517 
L 306.748672 3.6 
L 48.247918 3.6 
z
" style="fill:none;"/>
   </g>
   <g id="matplotlib.axis_1">
    <g id="xtick_1">
     <g id="line2d_1">
      <defs>
       <path d="M 0 0 
L 0 -6 
" id="m83cf11f364" style="stroke:#000000;stroke-width:0.8;"/>
      </defs>
      <g>
       <use style="stroke:#000000;stroke-width:0.8;" x="104.457541" xlink:href="#m83cf11f364" y="105.792517"/>
      </g>
     </g>
    </g>
    <g id="xtick_2">
     <g id="line2d_2">
      <g>
       <use style="stroke:#000000;stroke-width:0.8;" x="167.97124" xlink:href="#m83cf11f364" y="105.792517"/>
      </g>
     </g>
    </g>
    <g id="xtick_3">
     <g id="line2d_3">
      <g>
       <use style="stroke:#000000;stroke-width:0.8;" x="231.484939" xlink:href="#m83cf11f364" y="105.792517"/>
      </g>
     </g>
    </g>
    <g id="xtick_4">
     <g id="line2d_4">
      <g>
       <use style="stroke:#000000;stroke-width:0.8;" x="294.998637" xlink:href="#m83cf11f364" y="105.792517"/>
      </g>
     </g>
    </g>
   </g>
   <g id="matplotlib.axis_2">
    <g id="ytick_1">
     <g id="line2d_5">
      <defs>
       <path d="M 0 0 
L 6 0 
" id="mab8f013606" style="stroke:#000000;stroke-width:0.8;"/>
      </defs>
      <g>
       <use style="stroke:#000000;stroke-width:0.8;" x="48.247918" xlink:href="#mab8f013606" y="100.469084"/>
      </g>
     </g>
     <g id="text_1">
      <!-- $\mathdefault{0.02}$ -->
      <g transform="translate(24.536503 103.928333)scale(0.1 -0.1)">
       <defs>
        <path d="M 42 31.84375 
C 42 37.96875 41.90625 48.421875 37.703125 56.453125 
C 34 63.484375 28.09375 66 22.90625 66 
C 18.09375 66 12 63.78125 8.203125 56.5625 
C 4.203125 49.015625 3.796875 39.671875 3.796875 31.84375 
C 3.796875 26.109375 3.90625 17.375 7 9.734375 
C 11.296875 -0.609375 19 -2 22.90625 -2 
C 27.5 -2 34.5 -0.109375 38.59375 9.4375 
C 41.59375 16.375 42 24.5 42 31.84375 
z
M 22.90625 -0.40625 
C 16.5 -0.40625 12.703125 5.125 11.296875 12.75 
C 10.203125 18.6875 10.203125 27.328125 10.203125 32.953125 
C 10.203125 40.6875 10.203125 47.109375 11.5 53.234375 
C 13.40625 61.78125 19 64.390625 22.90625 64.390625 
C 27 64.390625 32.296875 61.671875 34.203125 53.4375 
C 35.5 47.71875 35.59375 40.984375 35.59375 32.953125 
C 35.59375 26.421875 35.59375 18.375 34.40625 12.453125 
C 32.296875 1.5 26.40625 -0.40625 22.90625 -0.40625 
z
" id="CMR17-48"/>
        <path d="M 18.40625 4.796875 
C 18.40625 7.6875 16 9.6875 13.59375 9.6875 
C 10.703125 9.6875 8.703125 7.296875 8.703125 4.890625 
C 8.703125 2 11.09375 0 13.5 0 
C 16.40625 0 18.40625 2.390625 18.40625 4.796875 
z
" id="CMMI12-58"/>
        <path d="M 41.703125 15.46875 
L 39.90625 15.46875 
C 38.90625 8.390625 38.09375 7.1875 37.703125 6.59375 
C 37.203125 5.796875 30 5.796875 28.59375 5.796875 
L 9.40625 5.796875 
C 13 9.6875 20 16.765625 28.5 24.9375 
C 34.59375 30.71875 41.703125 37.5 41.703125 47.390625 
C 41.703125 59.1875 32.296875 66 21.796875 66 
C 10.796875 66 4.09375 56.296875 4.09375 47.296875 
C 4.09375 43.390625 7 42.890625 8.203125 42.890625 
C 9.203125 42.890625 12.203125 43.484375 12.203125 46.984375 
C 12.203125 50.09375 9.59375 51 8.203125 51 
C 7.59375 51 7 50.890625 6.59375 50.6875 
C 8.5 59.1875 14.296875 63.390625 20.40625 63.390625 
C 29.09375 63.390625 34.796875 56.5 34.796875 47.390625 
C 34.796875 38.703125 29.703125 31.21875 24 24.734375 
L 4.09375 2.296875 
L 4.09375 0 
L 39.296875 0 
z
" id="CMR17-50"/>
       </defs>
       <use transform="scale(0.996264)" xlink:href="#CMR17-48"/>
       <use transform="translate(45.690477 0)scale(0.996264)" xlink:href="#CMMI12-58"/>
       <use transform="translate(72.787654 0)scale(0.996264)" xlink:href="#CMR17-48"/>
       <use transform="translate(118.478131 0)scale(0.996264)" xlink:href="#CMR17-50"/>
      </g>
     </g>
    </g>
    <g id="ytick_2">
     <g id="line2d_6">
      <g>
       <use style="stroke:#000000;stroke-width:0.8;" x="48.247918" xlink:href="#mab8f013606" y="66.252744"/>
      </g>
     </g>
     <g id="text_2">
      <!-- $\mathdefault{0.03}$ -->
      <g transform="translate(24.536503 69.711994)scale(0.1 -0.1)">
       <defs>
        <path d="M 22.09375 34 
C 31 34 34.90625 26.140625 34.90625 17.09375 
C 34.90625 5.03125 28.5 0.390625 22.703125 0.390625 
C 17.40625 0.390625 8.796875 3.015625 6.09375 10.796875 
C 6.59375 10.59375 7.09375 10.59375 7.59375 10.59375 
C 10 10.59375 11.796875 12.1875 11.796875 14.796875 
C 11.796875 17.6875 9.59375 19 7.59375 19 
C 5.90625 19 3.296875 18.1875 3.296875 14.484375 
C 3.296875 5.234375 12.296875 -2 22.90625 -2 
C 34 -2 42.5 6.75 42.5 16.984375 
C 42.5 26.84375 34.5 34 25 35.09375 
C 32.59375 36.671875 39.90625 43.375 39.90625 52.390625 
C 39.90625 60.25 32 66 23 66 
C 13.90625 66 5.90625 60.34375 5.90625 52.296875 
C 5.90625 48.796875 8.5 48.1875 9.796875 48.1875 
C 11.90625 48.1875 13.703125 49.484375 13.703125 52.09375 
C 13.703125 54.6875 11.90625 56 9.796875 56 
C 9.40625 56 8.90625 56 8.5 55.796875 
C 11.40625 62.484375 19.296875 63.6875 22.796875 63.6875 
C 26.296875 63.6875 32.90625 61.96875 32.90625 52.296875 
C 32.90625 49.484375 32.5 44.546875 29.09375 40.21875 
C 26.09375 36.390625 22.703125 36.1875 19.40625 35.890625 
C 18.90625 35.890625 16.59375 35.6875 16.203125 35.6875 
C 15.5 35.59375 15.09375 35.5 15.09375 34.796875 
C 15.09375 34.09375 15.203125 34 17.203125 34 
z
" id="CMR17-51"/>
       </defs>
       <use transform="scale(0.996264)" xlink:href="#CMR17-48"/>
       <use transform="translate(45.690477 0)scale(0.996264)" xlink:href="#CMMI12-58"/>
       <use transform="translate(72.787654 0)scale(0.996264)" xlink:href="#CMR17-48"/>
       <use transform="translate(118.478131 0)scale(0.996264)" xlink:href="#CMR17-51"/>
      </g>
     </g>
    </g>
    <g id="ytick_3">
     <g id="line2d_7">
      <g>
       <use style="stroke:#000000;stroke-width:0.8;" x="48.247918" xlink:href="#mab8f013606" y="32.036405"/>
      </g>
     </g>
     <g id="text_3">
      <!-- $\mathdefault{0.04}$ -->
      <g transform="translate(24.536503 35.495654)scale(0.1 -0.1)">
       <defs>
        <path d="M 33.59375 64.796875 
C 33.59375 66.890625 33.5 67 31.703125 67 
L 2 19.59375 
L 2 17 
L 27.796875 17 
L 27.796875 7.1875 
C 27.796875 3.59375 27.59375 2.59375 20.59375 2.59375 
L 18.703125 2.59375 
L 18.703125 0 
C 21.90625 0.1875 27.296875 0.1875 30.703125 0.1875 
C 34.09375 0.1875 39.5 0.1875 42.703125 0 
L 42.703125 2.59375 
L 40.796875 2.59375 
C 33.796875 2.59375 33.59375 3.59375 33.59375 7.1875 
L 33.59375 17 
L 43.796875 17 
L 43.796875 19.59375 
L 33.59375 19.59375 
z
M 28.09375 58.171875 
L 28.09375 19.59375 
L 4 19.59375 
z
" id="CMR17-52"/>
       </defs>
       <use transform="scale(0.996264)" xlink:href="#CMR17-48"/>
       <use transform="translate(45.690477 0)scale(0.996264)" xlink:href="#CMMI12-58"/>
       <use transform="translate(72.787654 0)scale(0.996264)" xlink:href="#CMR17-48"/>
       <use transform="translate(118.478131 0)scale(0.996264)" xlink:href="#CMR17-52"/>
      </g>
     </g>
    </g>
    <g id="text_4">
     <!-- $\langle S_2^{\rm{acc}} \rangle$ -->
     <g transform="translate(17.547711 69.423031)rotate(-90)scale(0.12 -0.12)">
      <defs>
       <path d="M 32.796875 71.203125 
C 33.296875 72.296875 33.296875 72.5 33.296875 73 
C 33.296875 74.09375 32.40625 75 31.296875 75 
C 30.40625 75 29.703125 74.5 29 72.703125 
L 11.5 26.796875 
C 11.296875 26.203125 11 25.59375 11 25 
C 11 24.6875 11 24.5 11.5 23.296875 
L 29 -22.609375 
C 29.40625 -23.703125 29.90625 -25 31.296875 -25 
C 32.40625 -25 33.296875 -24.109375 33.296875 -23 
C 33.296875 -22.703125 33.296875 -22.5 32.796875 -21.40625 
L 15.09375 25 
z
" id="CMSY10-104"/>
       <path d="M 63.5 69.09375 
C 63.5 70 62.796875 70 62.59375 70 
C 62.203125 70 62.09375 69.890625 60.90625 68.390625 
C 60.296875 67.6875 56.203125 62.53125 56.09375 62.4375 
C 52.796875 68.890625 46.203125 70 42 70 
C 29.296875 70 17.796875 58.46875 17.796875 47.25 
C 17.796875 39.796875 22.296875 35.4375 27.203125 33.75 
C 28.296875 33.34375 34.203125 31.765625 37.203125 31.0625 
C 42.296875 29.671875 43.59375 29.28125 45.703125 27.09375 
C 46.09375 26.59375 48.09375 24.3125 48.09375 19.65625 
C 48.09375 10.421875 39.5 0.890625 29.5 0.890625 
C 21.296875 0.890625 12.203125 4.359375 12.203125 15.484375 
C 12.203125 17.375 12.59375 19.75 12.90625 20.75 
C 12.90625 21.046875 13 21.53125 13 21.734375 
C 13 22.140625 12.796875 22.625 12 22.625 
C 11.09375 22.625 11 22.4375 10.59375 20.75 
L 5.5 0.390625 
C 5.5 0.296875 5.09375 -1 5.09375 -1.109375 
C 5.09375 -2 5.90625 -2 6.09375 -2 
C 6.5 -2 6.59375 -1.90625 7.796875 -0.40625 
L 12.40625 5.5625 
C 14.796875 1.984375 20 -2 29.296875 -2 
C 42.203125 -2 54 10.421875 54 22.828125 
C 54 27 53 30.671875 49.203125 34.34375 
C 47.09375 36.421875 45.296875 36.921875 36.09375 39.3125 
C 29.40625 41.09375 28.5 41.390625 26.703125 42.984375 
C 25 44.671875 23.703125 47.046875 23.703125 50.421875 
C 23.703125 58.765625 32.203125 67.296875 41.703125 67.296875 
C 51.5 67.296875 56.09375 61.34375 56.09375 51.90625 
C 56.09375 49.328125 55.59375 46.65625 55.59375 46.25 
C 55.59375 45.359375 56.40625 45.359375 56.703125 45.359375 
C 57.59375 45.359375 57.703125 45.65625 58.09375 47.25 
z
" id="CMMI12-83"/>
       <path d="M 36 25.875 
C 36 32 36 35.546875 31.796875 39.59375 
C 28.09375 42.984375 23.796875 44 20.40625 44 
C 12.5 44 6.796875 37.625 6.796875 30.890625 
C 6.796875 27.1875 9.796875 27 10.40625 27 
C 11.703125 27 14 27.796875 14 30.59375 
C 14 33.09375 12.09375 34.1875 10.40625 34.1875 
C 10 34.1875 9.5 34.09375 9.203125 34 
C 11.296875 40.53125 16.703125 42.390625 20.203125 42.390625 
C 25.203125 42.390625 30.703125 37.828125 30.703125 29.296875 
L 30.703125 25.5 
C 24.796875 25.296875 17.703125 24.5 12.09375 21.453125 
C 5.796875 17.921875 4 12.84375 4 9 
C 4 1.203125 13 -1 18.296875 -1 
C 23.796875 -1 28.90625 2.109375 31.09375 7.890625 
C 31.296875 3.421875 34.09375 -0.609375 38.5 -0.609375 
C 40.59375 -0.609375 45.90625 0.796875 45.90625 8.796875 
L 45.90625 14.46875 
L 44.09375 14.46875 
L 44.09375 8.703125 
C 44.09375 2.515625 41.40625 1.703125 40.09375 1.703125 
C 36 1.703125 36 6.96875 36 11.4375 
z
M 30.703125 13.859375 
C 30.703125 5.046875 24.5 0.59375 19 0.59375 
C 14 0.59375 10.09375 4.34375 10.09375 9 
C 10.09375 12.046875 11.40625 17.40625 17.203125 20.65625 
C 22 23.390625 27.5 23.796875 30.703125 24 
z
" id="CMR17-97"/>
       <path d="M 34.90625 35 
C 33 35 30.203125 35 30.203125 31.484375 
C 30.203125 28.6875 32.5 27.890625 33.796875 27.890625 
C 34.5 27.890625 37.40625 28.1875 37.40625 31.6875 
C 37.40625 38.6875 30.59375 44 22.90625 44 
C 12.296875 44 3.296875 34.390625 3.296875 21.546875 
C 3.296875 8.140625 12.703125 -1 22.90625 -1 
C 35.296875 -1 38.40625 10.5625 38.40625 11.671875 
C 38.40625 12.078125 38.296875 12.375 37.59375 12.375 
C 36.90625 12.375 36.796875 12.28125 36.40625 10.96875 
C 33.796875 2.8125 28.09375 0.796875 23.796875 0.796875 
C 17.40625 0.796875 9.703125 6.734375 9.703125 21.640625 
C 9.703125 36.84375 17.09375 42.1875 23 42.1875 
C 26.90625 42.1875 32.703125 40.34375 34.90625 35 
z
" id="CMR17-99"/>
       <path d="M 27.296875 23.296875 
C 27.796875 24.5 27.796875 24.6875 27.796875 25 
C 27.796875 25.296875 27.796875 25.5 27.296875 26.703125 
L 9.796875 72.703125 
C 9.203125 74.390625 8.59375 75 7.5 75 
C 6.40625 75 5.5 74.09375 5.5 73 
C 5.5 72.703125 5.5 72.5 6 71.390625 
L 23.703125 25 
L 6 -21.203125 
C 5.5 -22.3125 5.5 -22.5 5.5 -23 
C 5.5 -24.109375 6.40625 -25 7.5 -25 
C 8.796875 -25 9.203125 -24 9.59375 -23 
z
" id="CMSY10-105"/>
      </defs>
      <use transform="scale(0.996264)" xlink:href="#CMSY10-104"/>
      <use transform="translate(38.743734 0)scale(0.996264)" xlink:href="#CMMI12-83"/>
      <use transform="translate(104.538173 36.153639)scale(0.697382)" xlink:href="#CMR17-97"/>
      <use transform="translate(136.521355 36.153639)scale(0.697382)" xlink:href="#CMR17-99"/>
      <use transform="translate(164.861186 36.153639)scale(0.697382)" xlink:href="#CMR17-99"/>
      <use transform="translate(98.738222 -24.740171)scale(0.697382)" xlink:href="#CMR17-50"/>
      <use transform="translate(193.69915 0)scale(0.996264)" xlink:href="#CMSY10-105"/>
     </g>
    </g>
   </g>
   <g id="LineCollection_1">
    <path clip-path="url(#pcc72503f05)" d="M 59.997952 101.147402 
L 59.997952 99.741557 
" style="fill:none;stroke:#ffa0a0;stroke-width:1.5;"/>
    <path clip-path="url(#pcc72503f05)" d="M 63.173637 82.284673 
L 63.173637 80.752255 
" style="fill:none;stroke:#ffa0a0;stroke-width:1.5;"/>
    <path clip-path="url(#pcc72503f05)" d="M 66.349322 62.62322 
L 66.349322 60.05737 
" style="fill:none;stroke:#ffa0a0;stroke-width:1.5;"/>
    <path clip-path="url(#pcc72503f05)" d="M 69.525007 47.451521 
L 69.525007 43.691103 
" style="fill:none;stroke:#ffa0a0;stroke-width:1.5;"/>
    <path clip-path="url(#pcc72503f05)" d="M 72.700692 33.652993 
L 72.700692 32.072707 
" style="fill:none;stroke:#ffa0a0;stroke-width:1.5;"/>
    <path clip-path="url(#pcc72503f05)" d="M 77.464219 23.176482 
L 77.464219 21.206177 
" style="fill:none;stroke:#ffa0a0;stroke-width:1.5;"/>
    <path clip-path="url(#pcc72503f05)" d="M 82.227746 17.578601 
L 82.227746 15.956282 
" style="fill:none;stroke:#ffa0a0;stroke-width:1.5;"/>
    <path clip-path="url(#pcc72503f05)" d="M 88.579116 13.679594 
L 88.579116 11.904299 
" style="fill:none;stroke:#ffa0a0;stroke-width:1.5;"/>
    <path clip-path="url(#pcc72503f05)" d="M 96.518329 12.308955 
L 96.518329 10.392797 
" style="fill:none;stroke:#ffa0a0;stroke-width:1.5;"/>
    <path clip-path="url(#pcc72503f05)" d="M 104.457541 12.548807 
L 104.457541 10.469476 
" style="fill:none;stroke:#ffa0a0;stroke-width:1.5;"/>
    <path clip-path="url(#pcc72503f05)" d="M 120.335966 13.432223 
L 120.335966 11.389354 
" style="fill:none;stroke:#ffa0a0;stroke-width:1.5;"/>
    <path clip-path="url(#pcc72503f05)" d="M 136.21439 11.28918 
L 136.21439 8.894071 
" style="fill:none;stroke:#ffa0a0;stroke-width:1.5;"/>
    <path clip-path="url(#pcc72503f05)" d="M 152.092815 13.605194 
L 152.092815 10.580478 
" style="fill:none;stroke:#ffa0a0;stroke-width:1.5;"/>
    <path clip-path="url(#pcc72503f05)" d="M 167.97124 10.919649 
L 167.97124 8.245114 
" style="fill:none;stroke:#ffa0a0;stroke-width:1.5;"/>
    <path clip-path="url(#pcc72503f05)" d="M 199.728089 12.594565 
L 199.728089 9.690248 
" style="fill:none;stroke:#ffa0a0;stroke-width:1.5;"/>
    <path clip-path="url(#pcc72503f05)" d="M 231.484939 14.286838 
L 231.484939 10.759874 
" style="fill:none;stroke:#ffa0a0;stroke-width:1.5;"/>
    <path clip-path="url(#pcc72503f05)" d="M 294.998637 12.380807 
L 294.998637 8.566753 
" style="fill:none;stroke:#ffa0a0;stroke-width:1.5;"/>
   </g>
   <g id="line2d_8">
    <defs>
     <path d="M 5 0 
L -5 -0 
" id="m8f4196c92b" style="stroke:#ffa0a0;"/>
    </defs>
    <g clip-path="url(#pcc72503f05)">
     <use style="fill:#ffa0a0;stroke:#ffa0a0;" x="59.997952" xlink:href="#m8f4196c92b" y="101.147402"/>
     <use style="fill:#ffa0a0;stroke:#ffa0a0;" x="63.173637" xlink:href="#m8f4196c92b" y="82.284673"/>
     <use style="fill:#ffa0a0;stroke:#ffa0a0;" x="66.349322" xlink:href="#m8f4196c92b" y="62.62322"/>
     <use style="fill:#ffa0a0;stroke:#ffa0a0;" x="69.525007" xlink:href="#m8f4196c92b" y="47.451521"/>
     <use style="fill:#ffa0a0;stroke:#ffa0a0;" x="72.700692" xlink:href="#m8f4196c92b" y="33.652993"/>
     <use style="fill:#ffa0a0;stroke:#ffa0a0;" x="77.464219" xlink:href="#m8f4196c92b" y="23.176482"/>
     <use style="fill:#ffa0a0;stroke:#ffa0a0;" x="82.227746" xlink:href="#m8f4196c92b" y="17.578601"/>
     <use style="fill:#ffa0a0;stroke:#ffa0a0;" x="88.579116" xlink:href="#m8f4196c92b" y="13.679594"/>
     <use style="fill:#ffa0a0;stroke:#ffa0a0;" x="96.518329" xlink:href="#m8f4196c92b" y="12.308955"/>
     <use style="fill:#ffa0a0;stroke:#ffa0a0;" x="104.457541" xlink:href="#m8f4196c92b" y="12.548807"/>
     <use style="fill:#ffa0a0;stroke:#ffa0a0;" x="120.335966" xlink:href="#m8f4196c92b" y="13.432223"/>
     <use style="fill:#ffa0a0;stroke:#ffa0a0;" x="136.21439" xlink:href="#m8f4196c92b" y="11.28918"/>
     <use style="fill:#ffa0a0;stroke:#ffa0a0;" x="152.092815" xlink:href="#m8f4196c92b" y="13.605194"/>
     <use style="fill:#ffa0a0;stroke:#ffa0a0;" x="167.97124" xlink:href="#m8f4196c92b" y="10.919649"/>
     <use style="fill:#ffa0a0;stroke:#ffa0a0;" x="199.728089" xlink:href="#m8f4196c92b" y="12.594565"/>
     <use style="fill:#ffa0a0;stroke:#ffa0a0;" x="231.484939" xlink:href="#m8f4196c92b" y="14.286838"/>
     <use style="fill:#ffa0a0;stroke:#ffa0a0;" x="294.998637" xlink:href="#m8f4196c92b" y="12.380807"/>
    </g>
   </g>
   <g id="line2d_9">
    <g clip-path="url(#pcc72503f05)">
     <use style="fill:#ffa0a0;stroke:#ffa0a0;" x="59.997952" xlink:href="#m8f4196c92b" y="99.741557"/>
     <use style="fill:#ffa0a0;stroke:#ffa0a0;" x="63.173637" xlink:href="#m8f4196c92b" y="80.752255"/>
     <use style="fill:#ffa0a0;stroke:#ffa0a0;" x="66.349322" xlink:href="#m8f4196c92b" y="60.05737"/>
     <use style="fill:#ffa0a0;stroke:#ffa0a0;" x="69.525007" xlink:href="#m8f4196c92b" y="43.691103"/>
     <use style="fill:#ffa0a0;stroke:#ffa0a0;" x="72.700692" xlink:href="#m8f4196c92b" y="32.072707"/>
     <use style="fill:#ffa0a0;stroke:#ffa0a0;" x="77.464219" xlink:href="#m8f4196c92b" y="21.206177"/>
     <use style="fill:#ffa0a0;stroke:#ffa0a0;" x="82.227746" xlink:href="#m8f4196c92b" y="15.956282"/>
     <use style="fill:#ffa0a0;stroke:#ffa0a0;" x="88.579116" xlink:href="#m8f4196c92b" y="11.904299"/>
     <use style="fill:#ffa0a0;stroke:#ffa0a0;" x="96.518329" xlink:href="#m8f4196c92b" y="10.392797"/>
     <use style="fill:#ffa0a0;stroke:#ffa0a0;" x="104.457541" xlink:href="#m8f4196c92b" y="10.469476"/>
     <use style="fill:#ffa0a0;stroke:#ffa0a0;" x="120.335966" xlink:href="#m8f4196c92b" y="11.389354"/>
     <use style="fill:#ffa0a0;stroke:#ffa0a0;" x="136.21439" xlink:href="#m8f4196c92b" y="8.894071"/>
     <use style="fill:#ffa0a0;stroke:#ffa0a0;" x="152.092815" xlink:href="#m8f4196c92b" y="10.580478"/>
     <use style="fill:#ffa0a0;stroke:#ffa0a0;" x="167.97124" xlink:href="#m8f4196c92b" y="8.245114"/>
     <use style="fill:#ffa0a0;stroke:#ffa0a0;" x="199.728089" xlink:href="#m8f4196c92b" y="9.690248"/>
     <use style="fill:#ffa0a0;stroke:#ffa0a0;" x="231.484939" xlink:href="#m8f4196c92b" y="10.759874"/>
     <use style="fill:#ffa0a0;stroke:#ffa0a0;" x="294.998637" xlink:href="#m8f4196c92b" y="8.566753"/>
    </g>
   </g>
   <g id="line2d_10">
    <path clip-path="url(#pcc72503f05)" d="M 48.247918 11.353148 
L 306.748672 11.353148 
" style="fill:none;stroke:#ffa0a0;stroke-linecap:square;stroke-width:1.5;"/>
   </g>
   <g id="line2d_11">
    <defs>
     <path d="M -3 3 
L 3 3 
L 3 -3 
L -3 -3 
z
" id="me22e44bf5e" style="stroke:#ffa0a0;stroke-linejoin:miter;"/>
    </defs>
    <g clip-path="url(#pcc72503f05)">
     <use style="fill:#ffeded;stroke:#ffa0a0;stroke-linejoin:miter;" x="59.997952" xlink:href="#me22e44bf5e" y="100.44448"/>
     <use style="fill:#ffeded;stroke:#ffa0a0;stroke-linejoin:miter;" x="63.173637" xlink:href="#me22e44bf5e" y="81.518464"/>
     <use style="fill:#ffeded;stroke:#ffa0a0;stroke-linejoin:miter;" x="66.349322" xlink:href="#me22e44bf5e" y="61.340295"/>
     <use style="fill:#ffeded;stroke:#ffa0a0;stroke-linejoin:miter;" x="69.525007" xlink:href="#me22e44bf5e" y="45.571312"/>
     <use style="fill:#ffeded;stroke:#ffa0a0;stroke-linejoin:miter;" x="72.700692" xlink:href="#me22e44bf5e" y="32.86285"/>
     <use style="fill:#ffeded;stroke:#ffa0a0;stroke-linejoin:miter;" x="77.464219" xlink:href="#me22e44bf5e" y="22.19133"/>
     <use style="fill:#ffeded;stroke:#ffa0a0;stroke-linejoin:miter;" x="82.227746" xlink:href="#me22e44bf5e" y="16.767442"/>
     <use style="fill:#ffeded;stroke:#ffa0a0;stroke-linejoin:miter;" x="88.579116" xlink:href="#me22e44bf5e" y="12.791947"/>
     <use style="fill:#ffeded;stroke:#ffa0a0;stroke-linejoin:miter;" x="96.518329" xlink:href="#me22e44bf5e" y="11.350876"/>
     <use style="fill:#ffeded;stroke:#ffa0a0;stroke-linejoin:miter;" x="104.457541" xlink:href="#me22e44bf5e" y="11.509142"/>
     <use style="fill:#ffeded;stroke:#ffa0a0;stroke-linejoin:miter;" x="120.335966" xlink:href="#me22e44bf5e" y="12.410788"/>
     <use style="fill:#ffeded;stroke:#ffa0a0;stroke-linejoin:miter;" x="136.21439" xlink:href="#me22e44bf5e" y="10.091626"/>
     <use style="fill:#ffeded;stroke:#ffa0a0;stroke-linejoin:miter;" x="152.092815" xlink:href="#me22e44bf5e" y="12.092836"/>
     <use style="fill:#ffeded;stroke:#ffa0a0;stroke-linejoin:miter;" x="167.97124" xlink:href="#me22e44bf5e" y="9.582381"/>
     <use style="fill:#ffeded;stroke:#ffa0a0;stroke-linejoin:miter;" x="199.728089" xlink:href="#me22e44bf5e" y="11.142406"/>
     <use style="fill:#ffeded;stroke:#ffa0a0;stroke-linejoin:miter;" x="231.484939" xlink:href="#me22e44bf5e" y="12.523356"/>
     <use style="fill:#ffeded;stroke:#ffa0a0;stroke-linejoin:miter;" x="294.998637" xlink:href="#me22e44bf5e" y="10.47378"/>
    </g>
   </g>
   <g id="patch_3">
    <path d="M 48.247918 105.792517 
L 48.247918 3.6 
" style="fill:none;stroke:#000000;stroke-linecap:square;stroke-linejoin:miter;stroke-width:0.8;"/>
   </g>
   <g id="patch_4">
    <path d="M 306.748672 105.792517 
L 306.748672 3.6 
" style="fill:none;stroke:#000000;stroke-linecap:square;stroke-linejoin:miter;stroke-width:0.8;"/>
   </g>
   <g id="patch_5">
    <path d="M 48.247918 105.792517 
L 306.748672 105.792517 
" style="fill:none;stroke:#000000;stroke-linecap:square;stroke-linejoin:miter;stroke-width:0.8;"/>
   </g>
   <g id="patch_6">
    <path d="M 48.247918 3.6 
L 306.748672 3.6 
" style="fill:none;stroke:#000000;stroke-linecap:square;stroke-linejoin:miter;stroke-width:0.8;"/>
   </g>
   <g id="text_5">
    <!-- $M=8,N=8,\ell=4,D=1$ -->
    <g transform="translate(158.605701 52.194129)scale(0.12 -0.12)">
     <defs>
      <path d="M 90.796875 60.71875 
C 91.703125 64.09375 91.90625 65.09375 99 65.09375 
C 100.90625 65.09375 101.796875 65.09375 101.796875 66.984375 
C 101.796875 68 101.09375 68 99.203125 68 
L 87.203125 68 
C 84.703125 68 84.59375 67.890625 83.5 66.296875 
L 47 8.859375 
L 39.5 65.796875 
C 39.203125 68 39.09375 68 36.5 68 
L 24.09375 68 
C 22.203125 68 21.296875 68 21.296875 66.09375 
C 21.296875 65.09375 22.203125 65.09375 23.703125 65.09375 
C 29.796875 65.09375 29.796875 64.296875 29.796875 63.203125 
C 29.796875 63 29.796875 62.40625 29.40625 60.90625 
L 16.59375 10.15625 
C 15.40625 5.375 13.09375 3.1875 6.40625 2.890625 
C 6.09375 2.890625 4.90625 2.796875 4.90625 1.09375 
C 4.90625 0 5.796875 0 6.203125 0 
C 8.203125 0 13.296875 0.1875 15.296875 0.1875 
L 20.09375 0.1875 
C 21.5 0.1875 23.203125 0 24.59375 0 
C 25.296875 0 26.40625 0 26.40625 1.890625 
C 26.40625 2.796875 25.40625 2.890625 25 2.890625 
C 21.703125 2.984375 18.5 3.59375 18.5 7.171875 
C 18.5 8.171875 18.5 8.265625 18.90625 9.65625 
L 32.703125 64.5 
L 32.796875 64.5 
L 41.09375 2.6875 
C 41.40625 0.296875 41.5 0 42.40625 0 
C 43.5 0 44 0.796875 44.5 1.6875 
L 84.703125 64.984375 
L 84.796875 64.984375 
L 70.296875 7.375 
C 69.40625 3.890625 69.203125 2.890625 62.203125 2.890625 
C 60.296875 2.890625 59.296875 2.890625 59.296875 1.09375 
C 59.296875 0 60.203125 0 60.796875 0 
C 62.5 0 64.5 0.1875 66.203125 0.1875 
L 78 0.1875 
C 79.703125 0.1875 81.796875 0 83.5 0 
C 84.296875 0 85.40625 0 85.40625 1.890625 
C 85.40625 2.890625 84.5 2.890625 83 2.890625 
C 76.90625 2.890625 76.90625 3.6875 76.90625 4.6875 
C 76.90625 4.78125 76.90625 5.484375 77.09375 6.28125 
z
" id="CMMI12-77"/>
      <path d="M 64.296875 32 
C 65.796875 32 67.296875 32 67.296875 33.6875 
C 67.296875 35.5 65.59375 35.5 63.90625 35.5 
L 8 35.5 
C 6.296875 35.5 4.59375 35.5 4.59375 33.6875 
C 4.59375 32 6.09375 32 7.59375 32 
z
M 63.90625 14.484375 
C 65.59375 14.484375 67.296875 14.484375 67.296875 16.296875 
C 67.296875 18 65.796875 18 64.296875 18 
L 7.59375 18 
C 6.09375 18 4.59375 18 4.59375 16.296875 
C 4.59375 14.484375 6.296875 14.484375 8 14.484375 
z
" id="CMR17-61"/>
      <path d="M 27.203125 35.765625 
C 33.5 38.96875 39.90625 43.796875 39.90625 51.53125 
C 39.90625 60.6875 31.09375 66 23 66 
C 13.90625 66 5.90625 59.375 5.90625 50.234375 
C 5.90625 47.71875 6.5 43.390625 10.40625 39.578125 
C 11.40625 38.578125 15.59375 35.5625 18.296875 33.65625 
C 13.796875 31.34375 3.296875 25.8125 3.296875 14.765625 
C 3.296875 4.40625 13.09375 -2 22.796875 -2 
C 33.5 -2 42.5 5.71875 42.5 15.96875 
C 42.5 25.109375 36.40625 29.328125 32.40625 32.046875 
z
M 14.09375 44.609375 
C 13.296875 45.109375 9.296875 48.21875 9.296875 52.9375 
C 9.296875 59.078125 15.59375 63.6875 22.796875 63.6875 
C 30.703125 63.6875 36.5 58.0625 36.5 51.53125 
C 36.5 42.1875 26.09375 36.859375 25.59375 36.859375 
C 25.5 36.859375 25.40625 36.859375 24.59375 37.46875 
z
M 32.5 24 
C 34 22.90625 38.796875 19.578125 38.796875 13.453125 
C 38.796875 6.015625 31.40625 0.390625 23 0.390625 
C 13.90625 0.390625 7 6.921875 7 14.859375 
C 7 22.796875 13.09375 29.4375 20 32.546875 
z
" id="CMR17-56"/>
      <path d="M 19.5 -0.40625 
C 19.5 5.390625 17.59375 9.6875 13.5 9.6875 
C 10.296875 9.6875 8.703125 7.09375 8.703125 4.890625 
C 8.703125 2.6875 10.203125 0 13.59375 0 
C 14.90625 0 16 0.390625 16.90625 1.296875 
C 17.09375 1.5 17.203125 1.5 17.296875 1.5 
C 17.5 1.5 17.5 0.09375 17.5 -0.40625 
C 17.5 -3.640625 16.90625 -10.03125 11.09375 -16.421875 
C 10 -17.609375 10 -17.8125 10 -18 
C 10 -18.5 10.5 -19 11 -19 
C 11.796875 -19 19.5 -11.703125 19.5 -0.40625 
z
" id="CMMI12-59"/>
      <path d="M 74 57.53125 
C 75.09375 61.8125 76.703125 64.796875 84.296875 65.09375 
C 84.59375 65.09375 85.796875 65.1875 85.796875 66.890625 
C 85.796875 68 84.90625 68 84.5 68 
C 82.5 68 77.40625 67.796875 75.40625 67.796875 
L 70.59375 67.796875 
C 69.203125 67.796875 67.40625 68 66 68 
C 65.40625 68 64.203125 68 64.203125 66.09375 
C 64.203125 65.09375 65 65.09375 65.703125 65.09375 
C 71.703125 64.890625 72.09375 62.609375 72.09375 60.8125 
C 72.09375 59.921875 72 59.625 71.703125 58.21875 
L 60.40625 13.34375 
L 39 66.296875 
C 38.296875 67.890625 38.203125 68 36 68 
L 23.796875 68 
C 21.796875 68 20.90625 68 20.90625 66.09375 
C 20.90625 65.09375 21.59375 65.09375 23.5 65.09375 
C 24 65.09375 29.90625 65.09375 29.90625 64.203125 
C 29.90625 64 29.703125 63.203125 29.59375 62.90625 
L 16.296875 10.15625 
C 15.09375 5.28125 12.703125 3.1875 6.09375 2.890625 
C 5.59375 2.890625 4.59375 2.796875 4.59375 1 
C 4.59375 0 5.59375 0 5.90625 0 
C 7.90625 0 13 0.1875 15 0.1875 
L 19.796875 0.1875 
C 21.203125 0.1875 22.90625 0 24.296875 0 
C 25 0 26.09375 0 26.09375 1.890625 
C 26.09375 2.796875 25.09375 2.890625 24.703125 2.890625 
C 21.40625 2.984375 18.203125 3.59375 18.203125 7.171875 
C 18.203125 7.96875 18.40625 8.859375 18.59375 9.65625 
L 32.09375 62.90625 
C 32.703125 61.90625 32.703125 61.703125 33.09375 60.8125 
L 56.90625 1.796875 
C 57.40625 0.59375 57.59375 0 58.5 0 
C 59.5 0 59.59375 0.296875 60 2 
z
" id="CMMI12-78"/>
      <path d="M 9.203125 17.046875 
C 2.90625 10.90625 1.296875 9.421875 1.296875 9.015625 
C 1.296875 8.625 1.703125 7.9375 2.40625 7.9375 
C 2.90625 7.9375 8.59375 13.375 9.40625 14.265625 
C 10 7.625 12.5 -1 20.296875 -1 
C 24.296875 -1 27.90625 1.484375 29.5 2.671875 
C 30.796875 3.671875 35.59375 7.734375 35.59375 8.625 
C 35.59375 9.125 35.09375 9.71875 34.59375 9.71875 
C 34.203125 9.71875 32.703125 8.234375 32.296875 7.828125 
C 28.796875 4.46875 24.40625 1 20.40625 1 
C 15 1 14.296875 8.71875 14.296875 14.078125 
C 14.296875 15.0625 14.296875 19.234375 15 20.015625 
C 20.90625 26.0625 39.40625 45 39.40625 62.53125 
C 39.40625 66.5 37.90625 70 33.59375 70 
C 24.296875 70 16.203125 49.546875 14.796875 45.78125 
C 14.40625 44.796875 8.59375 29.53125 9.203125 17.046875 
z
M 15.203125 23.1875 
C 15.296875 23.78125 19.796875 49.75 28.203125 63.625 
C 29.90625 66.296875 31.59375 67.984375 33.59375 67.984375 
C 37 67.984375 37.203125 64.8125 37.203125 62.640625 
C 37.203125 59.171875 36.203125 50.25 27.5 37.765625 
C 24.90625 34.09375 20.90625 29.140625 15.203125 23.1875 
z
" id="CMMI12-96"/>
      <path d="M 15.703125 7.375 
C 14.796875 3.890625 14.59375 2.890625 7.59375 2.890625 
C 5.703125 2.890625 4.703125 2.890625 4.703125 1.09375 
C 4.703125 0 5.296875 0 7.296875 0 
L 39 0 
C 59.203125 0 78.90625 20.8125 78.90625 43 
C 78.90625 57.328125 70.296875 68 56 68 
L 23.90625 68 
C 22 68 21.09375 68 21.09375 66.09375 
C 21.09375 65.09375 22 65.09375 23.5 65.09375 
C 29.59375 65.09375 29.59375 64.296875 29.59375 63.203125 
C 29.59375 63 29.59375 62.40625 29.203125 60.90625 
z
M 36.796875 61.203125 
C 37.703125 64.890625 38.09375 65.09375 42 65.09375 
L 53 65.09375 
C 62.40625 65.09375 71 60.015625 71 46.28125 
C 71 41.3125 69 23.984375 59.296875 13.046875 
C 56.5 9.765625 48.90625 2.890625 37.40625 2.890625 
L 26 2.890625 
C 24.59375 2.890625 24.40625 2.890625 23.796875 2.984375 
C 22.703125 3.09375 22.59375 3.296875 22.59375 4.09375 
C 22.59375 4.78125 22.796875 5.375 23 6.28125 
z
" id="CMMI12-68"/>
      <path d="M 26.59375 63.796875 
C 26.59375 65.890625 26.5 66 25.09375 66 
C 21.203125 61.359375 15.296875 59.890625 9.703125 59.6875 
C 9.40625 59.6875 8.90625 59.6875 8.796875 59.5 
C 8.703125 59.296875 8.703125 59.09375 8.703125 57 
C 11.796875 57 17 57.59375 21 59.984375 
L 21 7.296875 
C 21 3.796875 20.796875 2.59375 12.203125 2.59375 
L 9.203125 2.59375 
L 9.203125 0 
C 14 0.09375 19 0.1875 23.796875 0.1875 
C 28.59375 0.1875 33.59375 0.09375 38.40625 0 
L 38.40625 2.59375 
L 35.40625 2.59375 
C 26.796875 2.59375 26.59375 3.6875 26.59375 7.296875 
z
" id="CMR17-49"/>
     </defs>
     <use transform="scale(0.996264)" xlink:href="#CMMI12-77"/>
     <use transform="translate(132.454088 0)scale(0.996264)" xlink:href="#CMR17-61"/>
     <use transform="translate(231.842885 0)scale(0.996264)" xlink:href="#CMR17-56"/>
     <use transform="translate(277.533362 0)scale(0.996264)" xlink:href="#CMMI12-59"/>
     <use transform="translate(321.234944 0)scale(0.996264)" xlink:href="#CMMI12-78"/>
     <use transform="translate(437.430725 0)scale(0.996264)" xlink:href="#CMR17-61"/>
     <use transform="translate(536.819523 0)scale(0.996264)" xlink:href="#CMR17-56"/>
     <use transform="translate(582.51 0)scale(0.996264)" xlink:href="#CMMI12-59"/>
     <use transform="translate(626.211582 0)scale(0.996264)" xlink:href="#CMMI12-96"/>
     <use transform="translate(694.81981 0)scale(0.996264)" xlink:href="#CMR17-61"/>
     <use transform="translate(794.208607 0)scale(0.996264)" xlink:href="#CMR17-52"/>
     <use transform="translate(839.899084 0)scale(0.996264)" xlink:href="#CMMI12-59"/>
     <use transform="translate(883.600667 0)scale(0.996264)" xlink:href="#CMMI12-68"/>
     <use transform="translate(994.978623 0)scale(0.996264)" xlink:href="#CMR17-61"/>
     <use transform="translate(1094.36742 0)scale(0.996264)" xlink:href="#CMR17-49"/>
    </g>
   </g>
   <g id="legend_1">
    <g id="LineCollection_2">
     <path d="M 219.162872 93.803725 
L 219.162872 81.803725 
" style="fill:none;stroke:#ffa0a0;stroke-width:1.5;"/>
    </g>
    <g id="line2d_12">
     <g>
      <use style="fill:#ffa0a0;stroke:#ffa0a0;" x="219.162872" xlink:href="#m8f4196c92b" y="93.803725"/>
     </g>
    </g>
    <g id="line2d_13">
     <g>
      <use style="fill:#ffa0a0;stroke:#ffa0a0;" x="219.162872" xlink:href="#m8f4196c92b" y="81.803725"/>
     </g>
    </g>
    <g id="line2d_14"/>
    <g id="line2d_15">
     <g>
      <use style="fill:#ffeded;stroke:#ffa0a0;stroke-linejoin:miter;" x="219.162872" xlink:href="#me22e44bf5e" y="87.803725"/>
     </g>
    </g>
    <g id="text_6">
     <!-- $U/t=10.0$ -->
     <g transform="translate(240.762872 92.003725)scale(0.12 -0.12)">
      <defs>
       <path d="M 50.59375 22.953125 
C 47.09375 9.046875 35.5 0.890625 26.09375 0.890625 
C 18.90625 0.890625 14 5.65625 14 13.90625 
C 14 14.3125 14 17.296875 15.09375 21.65625 
L 24.90625 60.71875 
C 25.796875 64.09375 26 65.09375 33.09375 65.09375 
C 34.90625 65.09375 35.90625 65.09375 35.90625 66.890625 
C 35.90625 68 35 68 34.40625 68 
C 32.59375 68 30.5 67.796875 28.59375 67.796875 
L 16.796875 67.796875 
C 14.90625 67.796875 12.796875 68 10.90625 68 
C 10.203125 68 9 68 9 66.09375 
C 9 65.09375 9.703125 65.09375 11.59375 65.09375 
C 17.59375 65.09375 17.59375 64.296875 17.59375 63.203125 
C 17.59375 62.609375 16.90625 59.71875 16.40625 58.03125 
L 7.703125 23.25 
C 7.40625 22.15625 6.796875 19.46875 6.796875 16.796875 
C 6.796875 5.859375 14.703125 -2 25.59375 -2 
C 35.703125 -2 46.90625 5.953125 52 18.578125 
C 52.703125 20.265625 53.59375 23.75 54.203125 26.4375 
C 55.203125 30.015625 57.296875 38.75 58 41.34375 
L 61.796875 56.25 
C 63.09375 61.421875 63.90625 64.6875 72.703125 65.09375 
C 73.5 65.1875 73.90625 65.984375 73.90625 66.890625 
C 73.90625 68 73 68 72.59375 68 
C 71.203125 68 69.40625 67.796875 68 67.796875 
L 63.296875 67.796875 
C 57.09375 67.796875 53.90625 68 53.796875 68 
C 53.203125 68 52 68 52 66.09375 
C 52 65.09375 52.796875 65.09375 53.5 65.09375 
C 59.5 64.890625 59.90625 62.609375 59.90625 60.8125 
C 59.90625 59.921875 59.90625 59.625 59.5 58.234375 
z
" id="CMMI12-85"/>
       <path d="M 42.90625 71.296875 
C 42.90625 71.390625 43.5 72.890625 43.5 73.09375 
C 43.5 74.296875 42.5 75 41.703125 75 
C 41.203125 75 40.296875 75 39.5 72.796875 
L 6 -21.3125 
C 6 -21.40625 5.40625 -22.90625 5.40625 -23.109375 
C 5.40625 -24.3125 6.40625 -25 7.203125 -25 
C 7.796875 -25 8.703125 -24.90625 9.40625 -22.8125 
z
" id="CMMI12-61"/>
       <path d="M 20.09375 40.09375 
L 29.296875 40.09375 
C 31.203125 40.09375 32.203125 40.09375 32.203125 41.890625 
C 32.203125 43 31.59375 43 29.59375 43 
L 20.796875 43 
L 24.5 57.25 
C 24.90625 58.625 24.90625 58.8125 24.90625 59.5 
C 24.90625 61.09375 23.59375 62 22.296875 62 
C 21.5 62 19.203125 61.6875 18.40625 58.53125 
L 14.5 43 
L 5.09375 43 
C 3.09375 43 2.203125 43 2.203125 41.09375 
C 2.203125 40.09375 2.90625 40.09375 4.796875 40.09375 
L 13.703125 40.09375 
L 7.09375 13.765625 
C 6.296875 10.265625 6 9.265625 6 7.96875 
C 6 3.28125 9.296875 -1 14.90625 -1 
C 25 -1 30.40625 13.5625 30.40625 14.265625 
C 30.40625 14.859375 30 15.15625 29.40625 15.15625 
C 29.203125 15.15625 28.796875 15.15625 28.59375 14.75 
C 28.5 14.65625 28.40625 14.5625 27.703125 12.96875 
C 25.59375 7.96875 21 1 15.203125 1 
C 12.203125 1 12 3.484375 12 5.6875 
C 12 5.78125 12 7.671875 12.296875 8.875 
z
" id="CMMI12-116"/>
      </defs>
      <use transform="scale(0.996264)" xlink:href="#CMMI12-85"/>
      <use transform="translate(71.239337 0)scale(0.996264)" xlink:href="#CMMI12-61"/>
      <use transform="translate(120.014256 0)scale(0.996264)" xlink:href="#CMMI12-116"/>
      <use transform="translate(182.914595 0)scale(0.996264)" xlink:href="#CMR17-61"/>
      <use transform="translate(282.303392 0)scale(0.996264)" xlink:href="#CMR17-49"/>
      <use transform="translate(327.993869 0)scale(0.996264)" xlink:href="#CMR17-48"/>
      <use transform="translate(373.684347 0)scale(0.996264)" xlink:href="#CMMI12-58"/>
      <use transform="translate(400.781524 0)scale(0.996264)" xlink:href="#CMR17-48"/>
     </g>
    </g>
   </g>
  </g>
  <g id="axes_2">
   <g id="patch_7">
    <path d="M 48.247918 210.335462 
L 306.748672 210.335462 
L 306.748672 108.142945 
L 48.247918 108.142945 
z
" style="fill:none;"/>
   </g>
   <g id="matplotlib.axis_3">
    <g id="xtick_5">
     <g id="line2d_16">
      <g>
       <use style="stroke:#000000;stroke-width:0.8;" x="104.457541" xlink:href="#m83cf11f364" y="210.335462"/>
      </g>
     </g>
    </g>
    <g id="xtick_6">
     <g id="line2d_17">
      <g>
       <use style="stroke:#000000;stroke-width:0.8;" x="167.97124" xlink:href="#m83cf11f364" y="210.335462"/>
      </g>
     </g>
    </g>
    <g id="xtick_7">
     <g id="line2d_18">
      <g>
       <use style="stroke:#000000;stroke-width:0.8;" x="231.484939" xlink:href="#m83cf11f364" y="210.335462"/>
      </g>
     </g>
    </g>
    <g id="xtick_8">
     <g id="line2d_19">
      <g>
       <use style="stroke:#000000;stroke-width:0.8;" x="294.998637" xlink:href="#m83cf11f364" y="210.335462"/>
      </g>
     </g>
    </g>
   </g>
   <g id="matplotlib.axis_4">
    <g id="ytick_4">
     <g id="line2d_20">
      <g>
       <use style="stroke:#000000;stroke-width:0.8;" x="48.247918" xlink:href="#mab8f013606" y="193.031529"/>
      </g>
     </g>
     <g id="text_7">
      <!-- $\mathdefault{0.01}$ -->
      <g transform="translate(24.536503 196.490779)scale(0.1 -0.1)">
       <use transform="scale(0.996264)" xlink:href="#CMR17-48"/>
       <use transform="translate(45.690477 0)scale(0.996264)" xlink:href="#CMMI12-58"/>
       <use transform="translate(72.787654 0)scale(0.996264)" xlink:href="#CMR17-48"/>
       <use transform="translate(118.478131 0)scale(0.996264)" xlink:href="#CMR17-49"/>
      </g>
     </g>
    </g>
    <g id="ytick_5">
     <g id="line2d_21">
      <g>
       <use style="stroke:#000000;stroke-width:0.8;" x="48.247918" xlink:href="#mab8f013606" y="172.136593"/>
      </g>
     </g>
     <g id="text_8">
      <!-- $\mathdefault{0.02}$ -->
      <g transform="translate(24.536503 175.595842)scale(0.1 -0.1)">
       <use transform="scale(0.996264)" xlink:href="#CMR17-48"/>
       <use transform="translate(45.690477 0)scale(0.996264)" xlink:href="#CMMI12-58"/>
       <use transform="translate(72.787654 0)scale(0.996264)" xlink:href="#CMR17-48"/>
       <use transform="translate(118.478131 0)scale(0.996264)" xlink:href="#CMR17-50"/>
      </g>
     </g>
    </g>
    <g id="ytick_6">
     <g id="line2d_22">
      <g>
       <use style="stroke:#000000;stroke-width:0.8;" x="48.247918" xlink:href="#mab8f013606" y="151.241657"/>
      </g>
     </g>
     <g id="text_9">
      <!-- $\mathdefault{0.03}$ -->
      <g transform="translate(24.536503 154.700906)scale(0.1 -0.1)">
       <use transform="scale(0.996264)" xlink:href="#CMR17-48"/>
       <use transform="translate(45.690477 0)scale(0.996264)" xlink:href="#CMMI12-58"/>
       <use transform="translate(72.787654 0)scale(0.996264)" xlink:href="#CMR17-48"/>
       <use transform="translate(118.478131 0)scale(0.996264)" xlink:href="#CMR17-51"/>
      </g>
     </g>
    </g>
    <g id="ytick_7">
     <g id="line2d_23">
      <g>
       <use style="stroke:#000000;stroke-width:0.8;" x="48.247918" xlink:href="#mab8f013606" y="130.346721"/>
      </g>
     </g>
     <g id="text_10">
      <!-- $\mathdefault{0.04}$ -->
      <g transform="translate(24.536503 133.80597)scale(0.1 -0.1)">
       <use transform="scale(0.996264)" xlink:href="#CMR17-48"/>
       <use transform="translate(45.690477 0)scale(0.996264)" xlink:href="#CMMI12-58"/>
       <use transform="translate(72.787654 0)scale(0.996264)" xlink:href="#CMR17-48"/>
       <use transform="translate(118.478131 0)scale(0.996264)" xlink:href="#CMR17-52"/>
      </g>
     </g>
    </g>
    <g id="ytick_8">
     <g id="line2d_24">
      <g>
       <use style="stroke:#000000;stroke-width:0.8;" x="48.247918" xlink:href="#mab8f013606" y="109.451785"/>
      </g>
     </g>
     <g id="text_11">
      <!-- $\mathdefault{0.05}$ -->
      <g transform="translate(24.536503 112.911034)scale(0.1 -0.1)">
       <defs>
        <path d="M 11.40625 58.59375 
C 12.40625 58.1875 16.5 56.890625 20.703125 56.890625 
C 30 56.890625 35.09375 61.890625 38 64.6875 
C 38 65.484375 38 66 37.40625 66 
C 37.296875 66 37.09375 66 36.296875 65.59375 
C 32.796875 64.09375 28.703125 63 23.703125 63 
C 20.703125 63 16.203125 63.359375 11.296875 65.484375 
C 10.203125 66 10 66 9.90625 66 
C 9.40625 66 9.296875 65.890625 9.296875 63.90625 
L 9.296875 34.859375 
C 9.296875 33.015625 9.296875 32.5 10.296875 32.5 
C 10.796875 32.5 11 32.703125 11.5 33.421875 
C 14.703125 38.046875 19.09375 40 24.09375 40 
C 27.59375 40 35.09375 37.734375 35.09375 20.203125 
C 35.09375 16.984375 35.09375 11.1875 32.09375 6.59375 
C 29.59375 2.484375 25.703125 0.390625 21.40625 0.390625 
C 14.796875 0.390625 8.09375 4.984375 6.296875 12.6875 
C 6.703125 12.59375 7.5 12.390625 7.90625 12.390625 
C 9.203125 12.390625 11.703125 13.09375 11.703125 16.1875 
C 11.703125 18.890625 9.796875 20 7.90625 20 
C 5.59375 20 4.09375 18.59375 4.09375 15.796875 
C 4.09375 7.09375 11 -2 21.59375 -2 
C 31.90625 -2 41.703125 6.890625 41.703125 19.796875 
C 41.703125 32.09375 33.90625 41.59375 24.203125 41.59375 
C 19.09375 41.59375 14.796875 39.6875 11.40625 36 
z
" id="CMR17-53"/>
       </defs>
       <use transform="scale(0.996264)" xlink:href="#CMR17-48"/>
       <use transform="translate(45.690477 0)scale(0.996264)" xlink:href="#CMMI12-58"/>
       <use transform="translate(72.787654 0)scale(0.996264)" xlink:href="#CMR17-48"/>
       <use transform="translate(118.478131 0)scale(0.996264)" xlink:href="#CMR17-53"/>
      </g>
     </g>
    </g>
    <g id="text_12">
     <!-- $\langle S_2^{\rm{acc}} \rangle$ -->
     <g transform="translate(17.547711 173.965975)rotate(-90)scale(0.12 -0.12)">
      <use transform="scale(0.996264)" xlink:href="#CMSY10-104"/>
      <use transform="translate(38.743734 0)scale(0.996264)" xlink:href="#CMMI12-83"/>
      <use transform="translate(104.538173 36.153639)scale(0.697382)" xlink:href="#CMR17-97"/>
      <use transform="translate(136.521355 36.153639)scale(0.697382)" xlink:href="#CMR17-99"/>
      <use transform="translate(164.861186 36.153639)scale(0.697382)" xlink:href="#CMR17-99"/>
      <use transform="translate(98.738222 -24.740171)scale(0.697382)" xlink:href="#CMR17-50"/>
      <use transform="translate(193.69915 0)scale(0.996264)" xlink:href="#CMSY10-105"/>
     </g>
    </g>
   </g>
   <g id="LineCollection_3">
    <path clip-path="url(#p1f39c7a8c7)" d="M 59.997952 205.690347 
L 59.997952 204.618879 
" style="fill:none;stroke:#1e90ff;stroke-width:1.5;"/>
    <path clip-path="url(#p1f39c7a8c7)" d="M 63.173637 199.485447 
L 63.173637 198.403702 
" style="fill:none;stroke:#1e90ff;stroke-width:1.5;"/>
    <path clip-path="url(#p1f39c7a8c7)" d="M 66.349322 191.465163 
L 66.349322 190.533982 
" style="fill:none;stroke:#1e90ff;stroke-width:1.5;"/>
    <path clip-path="url(#p1f39c7a8c7)" d="M 69.525007 184.884169 
L 69.525007 183.926477 
" style="fill:none;stroke:#1e90ff;stroke-width:1.5;"/>
    <path clip-path="url(#p1f39c7a8c7)" d="M 72.700692 176.87769 
L 72.700692 175.965178 
" style="fill:none;stroke:#1e90ff;stroke-width:1.5;"/>
    <path clip-path="url(#p1f39c7a8c7)" d="M 77.464219 167.490893 
L 77.464219 166.515444 
" style="fill:none;stroke:#1e90ff;stroke-width:1.5;"/>
    <path clip-path="url(#p1f39c7a8c7)" d="M 82.227746 159.337633 
L 82.227746 158.326405 
" style="fill:none;stroke:#1e90ff;stroke-width:1.5;"/>
    <path clip-path="url(#p1f39c7a8c7)" d="M 88.579116 148.430563 
L 88.579116 147.354863 
" style="fill:none;stroke:#1e90ff;stroke-width:1.5;"/>
    <path clip-path="url(#p1f39c7a8c7)" d="M 96.518329 139.211749 
L 96.518329 138.037443 
" style="fill:none;stroke:#1e90ff;stroke-width:1.5;"/>
    <path clip-path="url(#p1f39c7a8c7)" d="M 104.457541 132.775549 
L 104.457541 131.527802 
" style="fill:none;stroke:#1e90ff;stroke-width:1.5;"/>
    <path clip-path="url(#p1f39c7a8c7)" d="M 120.335966 122.65521 
L 120.335966 121.236477 
" style="fill:none;stroke:#1e90ff;stroke-width:1.5;"/>
    <path clip-path="url(#p1f39c7a8c7)" d="M 136.21439 118.453081 
L 136.21439 116.972293 
" style="fill:none;stroke:#1e90ff;stroke-width:1.5;"/>
    <path clip-path="url(#p1f39c7a8c7)" d="M 152.092815 116.974266 
L 152.092815 115.296912 
" style="fill:none;stroke:#1e90ff;stroke-width:1.5;"/>
    <path clip-path="url(#p1f39c7a8c7)" d="M 167.97124 116.990167 
L 167.97124 115.029922 
" style="fill:none;stroke:#1e90ff;stroke-width:1.5;"/>
    <path clip-path="url(#p1f39c7a8c7)" d="M 199.728089 116.035406 
L 199.728089 114.073395 
" style="fill:none;stroke:#1e90ff;stroke-width:1.5;"/>
    <path clip-path="url(#p1f39c7a8c7)" d="M 231.484939 114.948984 
L 231.484939 112.788059 
" style="fill:none;stroke:#1e90ff;stroke-width:1.5;"/>
    <path clip-path="url(#p1f39c7a8c7)" d="M 294.998637 115.331175 
L 294.998637 113.019798 
" style="fill:none;stroke:#1e90ff;stroke-width:1.5;"/>
   </g>
   <g id="line2d_25">
    <defs>
     <path d="M 5 0 
L -5 -0 
" id="mf655af1d6e" style="stroke:#1e90ff;"/>
    </defs>
    <g clip-path="url(#p1f39c7a8c7)">
     <use style="fill:#1e90ff;stroke:#1e90ff;" x="59.997952" xlink:href="#mf655af1d6e" y="205.690347"/>
     <use style="fill:#1e90ff;stroke:#1e90ff;" x="63.173637" xlink:href="#mf655af1d6e" y="199.485447"/>
     <use style="fill:#1e90ff;stroke:#1e90ff;" x="66.349322" xlink:href="#mf655af1d6e" y="191.465163"/>
     <use style="fill:#1e90ff;stroke:#1e90ff;" x="69.525007" xlink:href="#mf655af1d6e" y="184.884169"/>
     <use style="fill:#1e90ff;stroke:#1e90ff;" x="72.700692" xlink:href="#mf655af1d6e" y="176.87769"/>
     <use style="fill:#1e90ff;stroke:#1e90ff;" x="77.464219" xlink:href="#mf655af1d6e" y="167.490893"/>
     <use style="fill:#1e90ff;stroke:#1e90ff;" x="82.227746" xlink:href="#mf655af1d6e" y="159.337633"/>
     <use style="fill:#1e90ff;stroke:#1e90ff;" x="88.579116" xlink:href="#mf655af1d6e" y="148.430563"/>
     <use style="fill:#1e90ff;stroke:#1e90ff;" x="96.518329" xlink:href="#mf655af1d6e" y="139.211749"/>
     <use style="fill:#1e90ff;stroke:#1e90ff;" x="104.457541" xlink:href="#mf655af1d6e" y="132.775549"/>
     <use style="fill:#1e90ff;stroke:#1e90ff;" x="120.335966" xlink:href="#mf655af1d6e" y="122.65521"/>
     <use style="fill:#1e90ff;stroke:#1e90ff;" x="136.21439" xlink:href="#mf655af1d6e" y="118.453081"/>
     <use style="fill:#1e90ff;stroke:#1e90ff;" x="152.092815" xlink:href="#mf655af1d6e" y="116.974266"/>
     <use style="fill:#1e90ff;stroke:#1e90ff;" x="167.97124" xlink:href="#mf655af1d6e" y="116.990167"/>
     <use style="fill:#1e90ff;stroke:#1e90ff;" x="199.728089" xlink:href="#mf655af1d6e" y="116.035406"/>
     <use style="fill:#1e90ff;stroke:#1e90ff;" x="231.484939" xlink:href="#mf655af1d6e" y="114.948984"/>
     <use style="fill:#1e90ff;stroke:#1e90ff;" x="294.998637" xlink:href="#mf655af1d6e" y="115.331175"/>
    </g>
   </g>
   <g id="line2d_26">
    <g clip-path="url(#p1f39c7a8c7)">
     <use style="fill:#1e90ff;stroke:#1e90ff;" x="59.997952" xlink:href="#mf655af1d6e" y="204.618879"/>
     <use style="fill:#1e90ff;stroke:#1e90ff;" x="63.173637" xlink:href="#mf655af1d6e" y="198.403702"/>
     <use style="fill:#1e90ff;stroke:#1e90ff;" x="66.349322" xlink:href="#mf655af1d6e" y="190.533982"/>
     <use style="fill:#1e90ff;stroke:#1e90ff;" x="69.525007" xlink:href="#mf655af1d6e" y="183.926477"/>
     <use style="fill:#1e90ff;stroke:#1e90ff;" x="72.700692" xlink:href="#mf655af1d6e" y="175.965178"/>
     <use style="fill:#1e90ff;stroke:#1e90ff;" x="77.464219" xlink:href="#mf655af1d6e" y="166.515444"/>
     <use style="fill:#1e90ff;stroke:#1e90ff;" x="82.227746" xlink:href="#mf655af1d6e" y="158.326405"/>
     <use style="fill:#1e90ff;stroke:#1e90ff;" x="88.579116" xlink:href="#mf655af1d6e" y="147.354863"/>
     <use style="fill:#1e90ff;stroke:#1e90ff;" x="96.518329" xlink:href="#mf655af1d6e" y="138.037443"/>
     <use style="fill:#1e90ff;stroke:#1e90ff;" x="104.457541" xlink:href="#mf655af1d6e" y="131.527802"/>
     <use style="fill:#1e90ff;stroke:#1e90ff;" x="120.335966" xlink:href="#mf655af1d6e" y="121.236477"/>
     <use style="fill:#1e90ff;stroke:#1e90ff;" x="136.21439" xlink:href="#mf655af1d6e" y="116.972293"/>
     <use style="fill:#1e90ff;stroke:#1e90ff;" x="152.092815" xlink:href="#mf655af1d6e" y="115.296912"/>
     <use style="fill:#1e90ff;stroke:#1e90ff;" x="167.97124" xlink:href="#mf655af1d6e" y="115.029922"/>
     <use style="fill:#1e90ff;stroke:#1e90ff;" x="199.728089" xlink:href="#mf655af1d6e" y="114.073395"/>
     <use style="fill:#1e90ff;stroke:#1e90ff;" x="231.484939" xlink:href="#mf655af1d6e" y="112.788059"/>
     <use style="fill:#1e90ff;stroke:#1e90ff;" x="294.998637" xlink:href="#mf655af1d6e" y="113.019798"/>
    </g>
   </g>
   <g id="line2d_27">
    <path clip-path="url(#p1f39c7a8c7)" d="M 48.247918 113.913621 
L 306.748672 113.913621 
" style="fill:none;stroke:#1e90ff;stroke-linecap:square;stroke-width:1.5;"/>
   </g>
   <g id="line2d_28">
    <defs>
     <path d="M 0 3 
C 0.795609 3 1.55874 2.683901 2.12132 2.12132 
C 2.683901 1.55874 3 0.795609 3 0 
C 3 -0.795609 2.683901 -1.55874 2.12132 -2.12132 
C 1.55874 -2.683901 0.795609 -3 0 -3 
C -0.795609 -3 -1.55874 -2.683901 -2.12132 -2.12132 
C -2.683901 -1.55874 -3 -0.795609 -3 0 
C -3 0.795609 -2.683901 1.55874 -2.12132 2.12132 
C -1.55874 2.683901 -0.795609 3 0 3 
z
" id="m2b9ed5f237" style="stroke:#1e90ff;"/>
    </defs>
    <g clip-path="url(#p1f39c7a8c7)">
     <use style="fill:#6bddff;stroke:#1e90ff;" x="59.997952" xlink:href="#m2b9ed5f237" y="205.154613"/>
     <use style="fill:#6bddff;stroke:#1e90ff;" x="63.173637" xlink:href="#m2b9ed5f237" y="198.944574"/>
     <use style="fill:#6bddff;stroke:#1e90ff;" x="66.349322" xlink:href="#m2b9ed5f237" y="190.999573"/>
     <use style="fill:#6bddff;stroke:#1e90ff;" x="69.525007" xlink:href="#m2b9ed5f237" y="184.405323"/>
     <use style="fill:#6bddff;stroke:#1e90ff;" x="72.700692" xlink:href="#m2b9ed5f237" y="176.421434"/>
     <use style="fill:#6bddff;stroke:#1e90ff;" x="77.464219" xlink:href="#m2b9ed5f237" y="167.003169"/>
     <use style="fill:#6bddff;stroke:#1e90ff;" x="82.227746" xlink:href="#m2b9ed5f237" y="158.832019"/>
     <use style="fill:#6bddff;stroke:#1e90ff;" x="88.579116" xlink:href="#m2b9ed5f237" y="147.892713"/>
     <use style="fill:#6bddff;stroke:#1e90ff;" x="96.518329" xlink:href="#m2b9ed5f237" y="138.624596"/>
     <use style="fill:#6bddff;stroke:#1e90ff;" x="104.457541" xlink:href="#m2b9ed5f237" y="132.151676"/>
     <use style="fill:#6bddff;stroke:#1e90ff;" x="120.335966" xlink:href="#m2b9ed5f237" y="121.945844"/>
     <use style="fill:#6bddff;stroke:#1e90ff;" x="136.21439" xlink:href="#m2b9ed5f237" y="117.712687"/>
     <use style="fill:#6bddff;stroke:#1e90ff;" x="152.092815" xlink:href="#m2b9ed5f237" y="116.135589"/>
     <use style="fill:#6bddff;stroke:#1e90ff;" x="167.97124" xlink:href="#m2b9ed5f237" y="116.010045"/>
     <use style="fill:#6bddff;stroke:#1e90ff;" x="199.728089" xlink:href="#m2b9ed5f237" y="115.054401"/>
     <use style="fill:#6bddff;stroke:#1e90ff;" x="231.484939" xlink:href="#m2b9ed5f237" y="113.868522"/>
     <use style="fill:#6bddff;stroke:#1e90ff;" x="294.998637" xlink:href="#m2b9ed5f237" y="114.175486"/>
    </g>
   </g>
   <g id="patch_8">
    <path d="M 48.247918 210.335462 
L 48.247918 108.142945 
" style="fill:none;stroke:#000000;stroke-linecap:square;stroke-linejoin:miter;stroke-width:0.8;"/>
   </g>
   <g id="patch_9">
    <path d="M 306.748672 210.335462 
L 306.748672 108.142945 
" style="fill:none;stroke:#000000;stroke-linecap:square;stroke-linejoin:miter;stroke-width:0.8;"/>
   </g>
   <g id="patch_10">
    <path d="M 48.247918 210.335462 
L 306.748672 210.335462 
" style="fill:none;stroke:#000000;stroke-linecap:square;stroke-linejoin:miter;stroke-width:0.8;"/>
   </g>
   <g id="patch_11">
    <path d="M 48.247918 108.142945 
L 306.748672 108.142945 
" style="fill:none;stroke:#000000;stroke-linecap:square;stroke-linejoin:miter;stroke-width:0.8;"/>
   </g>
   <g id="legend_2">
    <g id="LineCollection_4">
     <path d="M 225.015863 198.34667 
L 225.015863 186.34667 
" style="fill:none;stroke:#1e90ff;stroke-width:1.5;"/>
    </g>
    <g id="line2d_29">
     <g>
      <use style="fill:#1e90ff;stroke:#1e90ff;" x="225.015863" xlink:href="#mf655af1d6e" y="198.34667"/>
     </g>
    </g>
    <g id="line2d_30">
     <g>
      <use style="fill:#1e90ff;stroke:#1e90ff;" x="225.015863" xlink:href="#mf655af1d6e" y="186.34667"/>
     </g>
    </g>
    <g id="line2d_31"/>
    <g id="line2d_32">
     <g>
      <use style="fill:#6bddff;stroke:#1e90ff;" x="225.015863" xlink:href="#m2b9ed5f237" y="192.34667"/>
     </g>
    </g>
    <g id="text_13">
     <!-- $U/t=3.3$ -->
     <g transform="translate(246.615863 196.54667)scale(0.12 -0.12)">
      <use transform="scale(0.996264)" xlink:href="#CMMI12-85"/>
      <use transform="translate(71.239337 0)scale(0.996264)" xlink:href="#CMMI12-61"/>
      <use transform="translate(120.014256 0)scale(0.996264)" xlink:href="#CMMI12-116"/>
      <use transform="translate(182.914595 0)scale(0.996264)" xlink:href="#CMR17-61"/>
      <use transform="translate(282.303392 0)scale(0.996264)" xlink:href="#CMR17-51"/>
      <use transform="translate(327.993869 0)scale(0.996264)" xlink:href="#CMMI12-58"/>
      <use transform="translate(355.091047 0)scale(0.996264)" xlink:href="#CMR17-51"/>
     </g>
    </g>
   </g>
  </g>
  <g id="axes_3">
   <g id="patch_12">
    <path d="M 48.247918 314.878406 
L 306.748672 314.878406 
L 306.748672 212.68589 
L 48.247918 212.68589 
z
" style="fill:none;"/>
   </g>
   <g id="matplotlib.axis_5">
    <g id="xtick_9">
     <g id="line2d_33">
      <g>
       <use style="stroke:#000000;stroke-width:0.8;" x="104.457541" xlink:href="#m83cf11f364" y="314.878406"/>
      </g>
     </g>
     <g id="text_14">
      <!-- $\mathdefault{2}$ -->
      <g transform="translate(101.966873 327.796905)scale(0.1 -0.1)">
       <use transform="scale(0.996264)" xlink:href="#CMR17-50"/>
      </g>
     </g>
    </g>
    <g id="xtick_10">
     <g id="line2d_34">
      <g>
       <use style="stroke:#000000;stroke-width:0.8;" x="167.97124" xlink:href="#m83cf11f364" y="314.878406"/>
      </g>
     </g>
     <g id="text_15">
      <!-- $\mathdefault{4}$ -->
      <g transform="translate(165.480572 327.796905)scale(0.1 -0.1)">
       <use transform="scale(0.996264)" xlink:href="#CMR17-52"/>
      </g>
     </g>
    </g>
    <g id="xtick_11">
     <g id="line2d_35">
      <g>
       <use style="stroke:#000000;stroke-width:0.8;" x="231.484939" xlink:href="#m83cf11f364" y="314.878406"/>
      </g>
     </g>
     <g id="text_16">
      <!-- $\mathdefault{6}$ -->
      <g transform="translate(228.994271 327.796905)scale(0.1 -0.1)">
       <defs>
        <path d="M 10.59375 34.34375 
C 10.59375 58 21.796875 63.6875 28.296875 63.6875 
C 30.40625 63.6875 35.5 63.265625 37.5 59.09375 
C 35.90625 59.09375 32.90625 59.09375 32.90625 55.59375 
C 32.90625 52.890625 35.09375 52 36.5 52 
C 37.40625 52 40.09375 52.390625 40.09375 55.796875 
C 40.09375 62.296875 35.09375 66 28.203125 66 
C 16.296875 66 3.796875 53.296875 3.796875 31.421875 
C 3.796875 4.015625 15.09375 -2 23.09375 -2 
C 32.796875 -2 42 6.734375 42 20.234375 
C 42 32.828125 33.90625 42 23.703125 42 
C 17.59375 42 13.09375 37.96875 10.59375 30.921875 
z
M 23.09375 0.390625 
C 10.796875 0.390625 10.796875 18.9375 10.796875 22.65625 
C 10.796875 29.90625 14.203125 40.390625 23.5 40.390625 
C 25.203125 40.390625 30.09375 40.390625 33.40625 33.4375 
C 35.203125 29.515625 35.203125 25.375 35.203125 20.34375 
C 35.203125 14.90625 35.203125 10.875 33.09375 6.84375 
C 30.90625 2.703125 27.703125 0.390625 23.09375 0.390625 
z
" id="CMR17-54"/>
       </defs>
       <use transform="scale(0.996264)" xlink:href="#CMR17-54"/>
      </g>
     </g>
    </g>
    <g id="xtick_12">
     <g id="line2d_36">
      <g>
       <use style="stroke:#000000;stroke-width:0.8;" x="294.998637" xlink:href="#m83cf11f364" y="314.878406"/>
      </g>
     </g>
     <g id="text_17">
      <!-- $\mathdefault{8}$ -->
      <g transform="translate(292.50797 327.796905)scale(0.1 -0.1)">
       <use transform="scale(0.996264)" xlink:href="#CMR17-56"/>
      </g>
     </g>
    </g>
    <g id="text_18">
     <!-- $\beta$ -->
     <g transform="translate(174.19405 342.036263)scale(0.12 -0.12)">
      <defs>
       <path d="M 56.59375 58.421875 
C 56.59375 64.546875 51.5 71 42.40625 71 
C 29.5 71 21.296875 54.84375 18.703125 44.21875 
L 2.90625 -18 
C 2.703125 -18.8125 3.296875 -19 3.796875 -19 
C 4.5 -19 5 -18.90625 5.09375 -18.40625 
L 12.09375 9.25 
C 13.09375 3.609375 18.59375 -1 24.5 -1 
C 38.796875 -1 52.296875 10.265625 52.296875 25.28125 
C 52.296875 29.109375 51.40625 32.9375 49.296875 36.15625 
C 48.09375 38.078125 46.59375 39.484375 45 40.609375 
C 52.203125 44.109375 56.59375 50.34375 56.59375 58.421875 
z
M 39.203125 40.703125 
C 37.59375 40.171875 36 40 34.09375 40 
C 32.703125 40 31.40625 39.890625 29.59375 40.4375 
C 30.59375 41.046875 32.09375 41.234375 34.203125 41.234375 
C 36 41.234375 37.796875 41.046875 39.203125 40.703125 
z
M 51.40625 59.34375 
C 51.40625 53.71875 48.703125 45.546875 42.203125 41.9375 
C 40.296875 42.546875 37.703125 43 35.5 43 
C 33.40625 43 27.40625 43.203125 27.40625 40.34375 
C 27.40625 37.671875 32.90625 37.96875 34.59375 37.96875 
C 37.203125 37.96875 39.5 38.578125 41.90625 39.28125 
C 45.09375 36.671875 46.5 33.234375 46.5 28.203125 
C 46.5 22.359375 44.90625 17.625 43 13.28125 
C 39.703125 5.828125 31.90625 1 25 1 
C 17.703125 1 13.90625 6.84375 13.90625 13.6875 
C 13.90625 14.59375 13.90625 15.90625 14.296875 17.421875 
L 20.796875 43.5 
C 24.09375 56.890625 32.5 68.953125 42.203125 68.953125 
C 49.40625 68.953125 51.40625 63.84375 51.40625 59.34375 
z
" id="CMMI12-12"/>
      </defs>
      <use transform="scale(0.996264)" xlink:href="#CMMI12-12"/>
     </g>
    </g>
   </g>
   <g id="matplotlib.axis_6">
    <g id="ytick_9">
     <g id="line2d_37">
      <g>
       <use style="stroke:#000000;stroke-width:0.8;" x="48.247918" xlink:href="#mab8f013606" y="298.986729"/>
      </g>
     </g>
     <g id="text_19">
      <!-- $\mathdefault{0.000}$ -->
      <g transform="translate(19.555168 302.445978)scale(0.1 -0.1)">
       <use transform="scale(0.996264)" xlink:href="#CMR17-48"/>
       <use transform="translate(45.690477 0)scale(0.996264)" xlink:href="#CMMI12-58"/>
       <use transform="translate(72.787654 0)scale(0.996264)" xlink:href="#CMR17-48"/>
       <use transform="translate(118.478131 0)scale(0.996264)" xlink:href="#CMR17-48"/>
       <use transform="translate(164.168608 0)scale(0.996264)" xlink:href="#CMR17-48"/>
      </g>
     </g>
    </g>
    <g id="ytick_10">
     <g id="line2d_38">
      <g>
       <use style="stroke:#000000;stroke-width:0.8;" x="48.247918" xlink:href="#mab8f013606" y="267.007044"/>
      </g>
     </g>
     <g id="text_20">
      <!-- $\mathdefault{0.005}$ -->
      <g transform="translate(19.555168 270.466293)scale(0.1 -0.1)">
       <use transform="scale(0.996264)" xlink:href="#CMR17-48"/>
       <use transform="translate(45.690477 0)scale(0.996264)" xlink:href="#CMMI12-58"/>
       <use transform="translate(72.787654 0)scale(0.996264)" xlink:href="#CMR17-48"/>
       <use transform="translate(118.478131 0)scale(0.996264)" xlink:href="#CMR17-48"/>
       <use transform="translate(164.168608 0)scale(0.996264)" xlink:href="#CMR17-53"/>
      </g>
     </g>
    </g>
    <g id="ytick_11">
     <g id="line2d_39">
      <g>
       <use style="stroke:#000000;stroke-width:0.8;" x="48.247918" xlink:href="#mab8f013606" y="235.027359"/>
      </g>
     </g>
     <g id="text_21">
      <!-- $\mathdefault{0.010}$ -->
      <g transform="translate(19.555168 238.486608)scale(0.1 -0.1)">
       <use transform="scale(0.996264)" xlink:href="#CMR17-48"/>
       <use transform="translate(45.690477 0)scale(0.996264)" xlink:href="#CMMI12-58"/>
       <use transform="translate(72.787654 0)scale(0.996264)" xlink:href="#CMR17-48"/>
       <use transform="translate(118.478131 0)scale(0.996264)" xlink:href="#CMR17-49"/>
       <use transform="translate(164.168608 0)scale(0.996264)" xlink:href="#CMR17-48"/>
      </g>
     </g>
    </g>
    <g id="text_22">
     <!-- $\langle S_2^{\rm{acc}} \rangle$ -->
     <g transform="translate(12.566376 278.50892)rotate(-90)scale(0.12 -0.12)">
      <use transform="scale(0.996264)" xlink:href="#CMSY10-104"/>
      <use transform="translate(38.743734 0)scale(0.996264)" xlink:href="#CMMI12-83"/>
      <use transform="translate(104.538173 36.153639)scale(0.697382)" xlink:href="#CMR17-97"/>
      <use transform="translate(136.521355 36.153639)scale(0.697382)" xlink:href="#CMR17-99"/>
      <use transform="translate(164.861186 36.153639)scale(0.697382)" xlink:href="#CMR17-99"/>
      <use transform="translate(98.738222 -24.740171)scale(0.697382)" xlink:href="#CMR17-50"/>
      <use transform="translate(193.69915 0)scale(0.996264)" xlink:href="#CMSY10-105"/>
     </g>
    </g>
   </g>
   <g id="LineCollection_5">
    <path clip-path="url(#p6e828d741f)" d="M 59.997952 297.887764 
L 59.997952 294.73214 
" style="fill:none;stroke:#3cb371;stroke-width:1.5;"/>
    <path clip-path="url(#p6e828d741f)" d="M 63.173637 303.352047 
L 63.173637 300.248565 
" style="fill:none;stroke:#3cb371;stroke-width:1.5;"/>
    <path clip-path="url(#p6e828d741f)" d="M 66.349322 306.301055 
L 66.349322 301.236449 
" style="fill:none;stroke:#3cb371;stroke-width:1.5;"/>
    <path clip-path="url(#p6e828d741f)" d="M 69.525007 304.070033 
L 69.525007 295.174623 
" style="fill:none;stroke:#3cb371;stroke-width:1.5;"/>
    <path clip-path="url(#p6e828d741f)" d="M 72.700692 303.557337 
L 72.700692 300.338949 
" style="fill:none;stroke:#3cb371;stroke-width:1.5;"/>
    <path clip-path="url(#p6e828d741f)" d="M 77.464219 310.233292 
L 77.464219 305.714946 
" style="fill:none;stroke:#3cb371;stroke-width:1.5;"/>
    <path clip-path="url(#p6e828d741f)" d="M 82.227746 307.643351 
L 82.227746 304.054912 
" style="fill:none;stroke:#3cb371;stroke-width:1.5;"/>
    <path clip-path="url(#p6e828d741f)" d="M 88.579116 299.47047 
L 88.579116 295.900964 
" style="fill:none;stroke:#3cb371;stroke-width:1.5;"/>
    <path clip-path="url(#p6e828d741f)" d="M 96.518329 294.302191 
L 96.518329 290.088558 
" style="fill:none;stroke:#3cb371;stroke-width:1.5;"/>
    <path clip-path="url(#p6e828d741f)" d="M 104.457541 285.346944 
L 104.457541 281.002996 
" style="fill:none;stroke:#3cb371;stroke-width:1.5;"/>
    <path clip-path="url(#p6e828d741f)" d="M 120.335966 271.811834 
L 120.335966 267.145312 
" style="fill:none;stroke:#3cb371;stroke-width:1.5;"/>
    <path clip-path="url(#p6e828d741f)" d="M 136.21439 256.300151 
L 136.21439 250.869897 
" style="fill:none;stroke:#3cb371;stroke-width:1.5;"/>
    <path clip-path="url(#p6e828d741f)" d="M 152.092815 242.542925 
L 152.092815 237.533535 
" style="fill:none;stroke:#3cb371;stroke-width:1.5;"/>
    <path clip-path="url(#p6e828d741f)" d="M 167.97124 237.04349 
L 167.97124 230.872676 
" style="fill:none;stroke:#3cb371;stroke-width:1.5;"/>
    <path clip-path="url(#p6e828d741f)" d="M 199.728089 229.742796 
L 199.728089 222.748818 
" style="fill:none;stroke:#3cb371;stroke-width:1.5;"/>
    <path clip-path="url(#p6e828d741f)" d="M 231.484939 229.857418 
L 231.484939 222.639035 
" style="fill:none;stroke:#3cb371;stroke-width:1.5;"/>
    <path clip-path="url(#p6e828d741f)" d="M 294.998637 225.3485 
L 294.998637 217.331004 
" style="fill:none;stroke:#3cb371;stroke-width:1.5;"/>
   </g>
   <g id="line2d_40">
    <defs>
     <path d="M 5 0 
L -5 -0 
" id="md9368feb6c" style="stroke:#3cb371;"/>
    </defs>
    <g clip-path="url(#p6e828d741f)">
     <use style="fill:#3cb371;stroke:#3cb371;" x="59.997952" xlink:href="#md9368feb6c" y="297.887764"/>
     <use style="fill:#3cb371;stroke:#3cb371;" x="63.173637" xlink:href="#md9368feb6c" y="303.352047"/>
     <use style="fill:#3cb371;stroke:#3cb371;" x="66.349322" xlink:href="#md9368feb6c" y="306.301055"/>
     <use style="fill:#3cb371;stroke:#3cb371;" x="69.525007" xlink:href="#md9368feb6c" y="304.070033"/>
     <use style="fill:#3cb371;stroke:#3cb371;" x="72.700692" xlink:href="#md9368feb6c" y="303.557337"/>
     <use style="fill:#3cb371;stroke:#3cb371;" x="77.464219" xlink:href="#md9368feb6c" y="310.233292"/>
     <use style="fill:#3cb371;stroke:#3cb371;" x="82.227746" xlink:href="#md9368feb6c" y="307.643351"/>
     <use style="fill:#3cb371;stroke:#3cb371;" x="88.579116" xlink:href="#md9368feb6c" y="299.47047"/>
     <use style="fill:#3cb371;stroke:#3cb371;" x="96.518329" xlink:href="#md9368feb6c" y="294.302191"/>
     <use style="fill:#3cb371;stroke:#3cb371;" x="104.457541" xlink:href="#md9368feb6c" y="285.346944"/>
     <use style="fill:#3cb371;stroke:#3cb371;" x="120.335966" xlink:href="#md9368feb6c" y="271.811834"/>
     <use style="fill:#3cb371;stroke:#3cb371;" x="136.21439" xlink:href="#md9368feb6c" y="256.300151"/>
     <use style="fill:#3cb371;stroke:#3cb371;" x="152.092815" xlink:href="#md9368feb6c" y="242.542925"/>
     <use style="fill:#3cb371;stroke:#3cb371;" x="167.97124" xlink:href="#md9368feb6c" y="237.04349"/>
     <use style="fill:#3cb371;stroke:#3cb371;" x="199.728089" xlink:href="#md9368feb6c" y="229.742796"/>
     <use style="fill:#3cb371;stroke:#3cb371;" x="231.484939" xlink:href="#md9368feb6c" y="229.857418"/>
     <use style="fill:#3cb371;stroke:#3cb371;" x="294.998637" xlink:href="#md9368feb6c" y="225.3485"/>
    </g>
   </g>
   <g id="line2d_41">
    <g clip-path="url(#p6e828d741f)">
     <use style="fill:#3cb371;stroke:#3cb371;" x="59.997952" xlink:href="#md9368feb6c" y="294.73214"/>
     <use style="fill:#3cb371;stroke:#3cb371;" x="63.173637" xlink:href="#md9368feb6c" y="300.248565"/>
     <use style="fill:#3cb371;stroke:#3cb371;" x="66.349322" xlink:href="#md9368feb6c" y="301.236449"/>
     <use style="fill:#3cb371;stroke:#3cb371;" x="69.525007" xlink:href="#md9368feb6c" y="295.174623"/>
     <use style="fill:#3cb371;stroke:#3cb371;" x="72.700692" xlink:href="#md9368feb6c" y="300.338949"/>
     <use style="fill:#3cb371;stroke:#3cb371;" x="77.464219" xlink:href="#md9368feb6c" y="305.714946"/>
     <use style="fill:#3cb371;stroke:#3cb371;" x="82.227746" xlink:href="#md9368feb6c" y="304.054912"/>
     <use style="fill:#3cb371;stroke:#3cb371;" x="88.579116" xlink:href="#md9368feb6c" y="295.900964"/>
     <use style="fill:#3cb371;stroke:#3cb371;" x="96.518329" xlink:href="#md9368feb6c" y="290.088558"/>
     <use style="fill:#3cb371;stroke:#3cb371;" x="104.457541" xlink:href="#md9368feb6c" y="281.002996"/>
     <use style="fill:#3cb371;stroke:#3cb371;" x="120.335966" xlink:href="#md9368feb6c" y="267.145312"/>
     <use style="fill:#3cb371;stroke:#3cb371;" x="136.21439" xlink:href="#md9368feb6c" y="250.869897"/>
     <use style="fill:#3cb371;stroke:#3cb371;" x="152.092815" xlink:href="#md9368feb6c" y="237.533535"/>
     <use style="fill:#3cb371;stroke:#3cb371;" x="167.97124" xlink:href="#md9368feb6c" y="230.872676"/>
     <use style="fill:#3cb371;stroke:#3cb371;" x="199.728089" xlink:href="#md9368feb6c" y="222.748818"/>
     <use style="fill:#3cb371;stroke:#3cb371;" x="231.484939" xlink:href="#md9368feb6c" y="222.639035"/>
     <use style="fill:#3cb371;stroke:#3cb371;" x="294.998637" xlink:href="#md9368feb6c" y="217.331004"/>
    </g>
   </g>
   <g id="line2d_42">
    <path clip-path="url(#p6e828d741f)" d="M 48.247918 220.415167 
L 306.748672 220.415167 
" style="fill:none;stroke:#3cb371;stroke-linecap:square;stroke-width:1.5;"/>
   </g>
   <g id="line2d_43">
    <defs>
     <path d="M 0 -3 
L -3 3 
L 3 3 
z
" id="m7c2a220c0d" style="stroke:#3cb371;stroke-linejoin:miter;"/>
    </defs>
    <g clip-path="url(#p6e828d741f)">
     <use style="fill:#89ffbe;stroke:#3cb371;stroke-linejoin:miter;" x="59.997952" xlink:href="#m7c2a220c0d" y="296.309952"/>
     <use style="fill:#89ffbe;stroke:#3cb371;stroke-linejoin:miter;" x="63.173637" xlink:href="#m7c2a220c0d" y="301.800306"/>
     <use style="fill:#89ffbe;stroke:#3cb371;stroke-linejoin:miter;" x="66.349322" xlink:href="#m7c2a220c0d" y="303.768752"/>
     <use style="fill:#89ffbe;stroke:#3cb371;stroke-linejoin:miter;" x="69.525007" xlink:href="#m7c2a220c0d" y="299.622328"/>
     <use style="fill:#89ffbe;stroke:#3cb371;stroke-linejoin:miter;" x="72.700692" xlink:href="#m7c2a220c0d" y="301.948143"/>
     <use style="fill:#89ffbe;stroke:#3cb371;stroke-linejoin:miter;" x="77.464219" xlink:href="#m7c2a220c0d" y="307.974119"/>
     <use style="fill:#89ffbe;stroke:#3cb371;stroke-linejoin:miter;" x="82.227746" xlink:href="#m7c2a220c0d" y="305.849132"/>
     <use style="fill:#89ffbe;stroke:#3cb371;stroke-linejoin:miter;" x="88.579116" xlink:href="#m7c2a220c0d" y="297.685717"/>
     <use style="fill:#89ffbe;stroke:#3cb371;stroke-linejoin:miter;" x="96.518329" xlink:href="#m7c2a220c0d" y="292.195374"/>
     <use style="fill:#89ffbe;stroke:#3cb371;stroke-linejoin:miter;" x="104.457541" xlink:href="#m7c2a220c0d" y="283.17497"/>
     <use style="fill:#89ffbe;stroke:#3cb371;stroke-linejoin:miter;" x="120.335966" xlink:href="#m7c2a220c0d" y="269.478573"/>
     <use style="fill:#89ffbe;stroke:#3cb371;stroke-linejoin:miter;" x="136.21439" xlink:href="#m7c2a220c0d" y="253.585024"/>
     <use style="fill:#89ffbe;stroke:#3cb371;stroke-linejoin:miter;" x="152.092815" xlink:href="#m7c2a220c0d" y="240.03823"/>
     <use style="fill:#89ffbe;stroke:#3cb371;stroke-linejoin:miter;" x="167.97124" xlink:href="#m7c2a220c0d" y="233.958083"/>
     <use style="fill:#89ffbe;stroke:#3cb371;stroke-linejoin:miter;" x="199.728089" xlink:href="#m7c2a220c0d" y="226.245807"/>
     <use style="fill:#89ffbe;stroke:#3cb371;stroke-linejoin:miter;" x="231.484939" xlink:href="#m7c2a220c0d" y="226.248227"/>
     <use style="fill:#89ffbe;stroke:#3cb371;stroke-linejoin:miter;" x="294.998637" xlink:href="#m7c2a220c0d" y="221.339752"/>
    </g>
   </g>
   <g id="patch_13">
    <path d="M 48.247918 314.878406 
L 48.247918 212.68589 
" style="fill:none;stroke:#000000;stroke-linecap:square;stroke-linejoin:miter;stroke-width:0.8;"/>
   </g>
   <g id="patch_14">
    <path d="M 306.748672 314.878406 
L 306.748672 212.68589 
" style="fill:none;stroke:#000000;stroke-linecap:square;stroke-linejoin:miter;stroke-width:0.8;"/>
   </g>
   <g id="patch_15">
    <path d="M 48.247918 314.878406 
L 306.748672 314.878406 
" style="fill:none;stroke:#000000;stroke-linecap:square;stroke-linejoin:miter;stroke-width:0.8;"/>
   </g>
   <g id="patch_16">
    <path d="M 48.247918 212.68589 
L 306.748672 212.68589 
" style="fill:none;stroke:#000000;stroke-linecap:square;stroke-linejoin:miter;stroke-width:0.8;"/>
   </g>
   <g id="legend_3">
    <g id="LineCollection_6">
     <path d="M 225.015863 302.889614 
L 225.015863 290.889614 
" style="fill:none;stroke:#3cb371;stroke-width:1.5;"/>
    </g>
    <g id="line2d_44">
     <g>
      <use style="fill:#3cb371;stroke:#3cb371;" x="225.015863" xlink:href="#md9368feb6c" y="302.889614"/>
     </g>
    </g>
    <g id="line2d_45">
     <g>
      <use style="fill:#3cb371;stroke:#3cb371;" x="225.015863" xlink:href="#md9368feb6c" y="290.889614"/>
     </g>
    </g>
    <g id="line2d_46"/>
    <g id="line2d_47">
     <g>
      <use style="fill:#89ffbe;stroke:#3cb371;stroke-linejoin:miter;" x="225.015863" xlink:href="#m7c2a220c0d" y="296.889614"/>
     </g>
    </g>
    <g id="text_23">
     <!-- $U/t=0.5$ -->
     <g transform="translate(246.615863 301.089614)scale(0.12 -0.12)">
      <use transform="scale(0.996264)" xlink:href="#CMMI12-85"/>
      <use transform="translate(71.239337 0)scale(0.996264)" xlink:href="#CMMI12-61"/>
      <use transform="translate(120.014256 0)scale(0.996264)" xlink:href="#CMMI12-116"/>
      <use transform="translate(182.914595 0)scale(0.996264)" xlink:href="#CMR17-61"/>
      <use transform="translate(282.303392 0)scale(0.996264)" xlink:href="#CMR17-48"/>
      <use transform="translate(327.993869 0)scale(0.996264)" xlink:href="#CMMI12-58"/>
      <use transform="translate(355.091047 0)scale(0.996264)" xlink:href="#CMR17-53"/>
     </g>
    </g>
   </g>
  </g>
 </g>
 <defs>
  <clipPath id="pcc72503f05">
   <rect height="102.192517" width="258.500754" x="48.247918" y="3.6"/>
  </clipPath>
  <clipPath id="p1f39c7a8c7">
   <rect height="102.192517" width="258.500754" x="48.247918" y="108.142945"/>
  </clipPath>
  <clipPath id="p6e828d741f">
   <rect height="102.192517" width="258.500754" x="48.247918" y="212.68589"/>
  </clipPath>
 </defs>
</svg>
